<?xml version="1.0" standalone="no"?>
<!DOCTYPE svg PUBLIC "-//W3C//DTD SVG 1.1//EN" "http://www.w3.org/Graphics/SVG/1.1/DTD/svg11.dtd" >
<svg xmlns="http://www.w3.org/2000/svg">
<metadata>
Created by FontPrep 20130207 at Mon Aug 10 15:14:16 2015
 By Francis Nguyen
2013 published by FontShop International GmbH
</metadata>
<defs>
<font id="182cf175efd8bc65c01ef837dc1198f2" horiz-adv-x='1024' >
  <font-face 
    font-family="MarkOT-Bold"
    font-weight="700"
    font-stretch="normal"
    units-per-em="2048"
    panose-1="2 11 8 4 2 1 1 1 1 2"
    ascent="1618"
    descent="-430"
    x-height="992"
    cap-height="1434"
    bbox="-1394 -484 3180 2049"
    underline-thickness="139"
    underline-position="-127"
    unicode-range="U+000D-FEFF"
  />
<missing-glyph horiz-adv-x="1210" 
d="M357 217h496v1000h-496v-1000zM140 0v1434h930v-1434h-930z" />
    <glyph glyph-name=".notdef" horiz-adv-x="1210" 
d="M357 217h496v1000h-496v-1000zM140 0v1434h930v-1434h-930z" />
    <glyph glyph-name=".null" horiz-adv-x="0" 
 />
    <glyph glyph-name=".null" horiz-adv-x="0" 
 />
    <glyph glyph-name="nonmarkingreturn" horiz-adv-x="681" 
 />
    <glyph glyph-name="CR" unicode="&#xd;" horiz-adv-x="506" 
 />
    <glyph glyph-name="space" unicode=" " horiz-adv-x="506" 
 />
    <glyph glyph-name="exclam" unicode="!" horiz-adv-x="568" 
d="M284 364q78 0 136 -58t58 -136t-58 -137t-136 -59t-136 59q-59 59 -59 137t58 136q59 58 137 58zM443 1434l-36 -941h-246l-37 941h319z" />
    <glyph glyph-name="quotedbl" unicode="&#x22;" horiz-adv-x="1149" 
d="M654 1475h268v-612h-268v612zM228 1475h268v-612h-268v612z" />
    <glyph glyph-name="numbersign" unicode="#" horiz-adv-x="1505" 
d="M662 866l-63 -292h245l62 292h-244zM257 1096h207l73 338h245l-72 -338h244l73 338h246l-73 -338h208l-49 -230h-207l-62 -292h206l-48 -229h-208l-72 -345h-246l73 345h-245l-73 -345h-246l73 345h-207l49 229h207l63 292h-208z" />
    <glyph glyph-name="dollar" unicode="$" horiz-adv-x="1433" 
d="M623 1155q-155 -36 -157 -147q-1 -51 38 -83t119 -53v283zM850 278q74 17 116 55q42 39 43 91t-39 84t-120 53v-283zM623 1602h227v-190q224 -22 427 -144l-128 -219q-144 88 -299 111v-326q319 -49 410 -231q32 -68 30 -156q-7 -264 -270 -375q-77 -33 -169 -46v-203
h-227v197q-303 26 -489 173l140 217q146 -112 348 -140v330q-329 55 -410 236q-31 69 -29 158q4 169 124 279t315 137v192z" />
    <glyph glyph-name="percent" unicode="%" horiz-adv-x="2026" 
d="M1552 543q-76 0 -124 -50q-48 -49 -49 -127q0 -78 49 -128t124 -50t124 50t48 128q0 78 -48 128t-124 49zM1152 365q0 167 114 279t286 113q172 0 286 -112q114 -111 114 -279t-114 -280t-286 -112t-286 112t-114 279zM1626 1434l-960 -1434h-269l962 1434h267zM476 1245
q-75 1 -124 -49t-49 -128t49 -127q49 -50 124 -50t124 50q48 49 48 127t-48 128q-49 49 -124 49zM76 1068q0 168 114 280t286 111q172 0 285 -111q115 -112 115 -280t-114 -280t-286 -112t-286 112t-114 280z" />
    <glyph glyph-name="ampersand" unicode="&#x26;" horiz-adv-x="1508" 
d="M580 1219q-68 0 -108 -35q-38 -34 -38 -86t25 -88t98 -109q83 58 126 104t43 97t-39 84t-107 33zM562 217q123 0 228 99l-276 265q-137 -111 -137 -206q1 -72 51 -115t134 -43zM556 -26q-226 0 -346 102t-120 279q0 116 67 211t181 183q-95 97 -137 175q-41 78 -41 176
q0 158 116 258t304 101q188 0 303 -98q116 -98 115 -256q0 -113 -79 -202t-190 -168l224 -217l206 289l202 -139l-229 -323l355 -345h-368l-154 147q-183 -173 -409 -173z" />
    <glyph glyph-name="quotesingle" unicode="'" horiz-adv-x="723" 
d="M228 1475h268v-612h-268v612z" />
    <glyph glyph-name="parenleft" unicode="(" horiz-adv-x="864" 
d="M113 582q0 312 164 554q165 242 437 348l85 -239q-196 -92 -300 -268q-105 -176 -105 -395q0 -220 104 -396t301 -268l-85 -239q-272 107 -436 349t-165 554z" />
    <glyph glyph-name="parenright" unicode=")" horiz-adv-x="864" 
d="M470 582q0 220 -104 396t-300 268l85 239q272 -106 436 -348q165 -242 165 -554t-164 -554t-437 -348l-85 238q196 92 300 268q104 175 104 395z" />
    <glyph glyph-name="asterisk" unicode="*" horiz-adv-x="972" 
d="M146 1302l242 -84l-4 257h206l-5 -257l242 84l64 -197l-245 -75l155 -204l-167 -121l-148 209l-146 -209l-167 121l154 204l-245 75z" />
    <glyph glyph-name="plus" unicode="+" 
d="M731 74h-233v357h-355v228h355v358h233v-358h354v-228h-354v-357z" />
    <glyph glyph-name="comma" unicode="," horiz-adv-x="546" 
d="M155 324h300l-144 -611h-225z" />
    <glyph glyph-name="hyphen" unicode="-" horiz-adv-x="832" 
d="M719 662v-234h-605v234h605z" />
    <glyph glyph-name="period" unicode="." horiz-adv-x="567" 
d="M284 372q80 0 139 -59t59 -139t-59 -140t-139 -60t-139 60q-60 60 -60 140t60 139q59 59 139 59z" />
    <glyph glyph-name="slash" unicode="/" horiz-adv-x="1060" 
d="M1111 1577l-869 -1782h-283l869 1782h283z" />
    <glyph glyph-name="zero" unicode="0" horiz-adv-x="1445" 
d="M724 1194q-144 0 -238 -125t-93 -351q0 -226 93 -352t237 -126t237 125t93 352t-93 352q-92 125 -236 125zM722 1459q128 0 242 -51q112 -51 196 -145t133 -235t49 -311t-50 -311q-95 -276 -328 -380q-114 -52 -242 -52q-259 -1 -436 196q-84 94 -132 236t-49 311
q0 170 49 311q93 273 328 380q112 51 240 51z" />
    <glyph glyph-name="one" unicode="1" horiz-adv-x="840" 
d="M673 0h-277v1067l-343 -139v278l620 250v-1456z" />
    <glyph glyph-name="two" unicode="2" horiz-adv-x="1153" 
d="M558 1459q223 0 355 -127t131 -336q0 -122 -52 -218t-154 -200l-307 -319h548v-259h-947v216l507 519q118 120 118 246q-1 94 -61 154t-156 60t-160 -41q-66 -41 -133 -117l-178 175q189 247 489 247z" />
    <glyph glyph-name="three" unicode="3" horiz-adv-x="1171" 
d="M218 364q130 -138 336 -138q102 0 170 48q70 48 70 138t-78 139q-80 49 -202 49h-167v246h168q111 0 181 48t70 132q0 86 -67 134t-165 48q-184 -1 -295 -146l-174 175q165 222 478 222q227 0 367 -113t141 -298q0 -112 -56 -195t-158 -131q117 -45 181 -130t64 -183
q0 -259 -225 -368q-130 -65 -296 -66q-167 -1 -297 53t-211 154z" />
    <glyph glyph-name="four" unicode="4" horiz-adv-x="1196" 
d="M954 902v-382h200v-258h-200v-262h-276v262h-636v201l503 970h307l-479 -913h305v382h276z" />
    <glyph glyph-name="five" unicode="5" horiz-adv-x="1193" 
d="M1020 1434v-257h-581l-6 -287h165q242 0 372 -121t130 -310q0 -149 -71 -261t-189 -168t-269 -56q-152 0 -282 56t-220 158l155 194q60 -66 157 -109t203 -43t167 59q62 59 62 149t-68 146t-224 56h-341l16 794h824z" />
    <glyph glyph-name="six" unicode="6" horiz-adv-x="1208" 
d="M853 460q1 104 -71 170t-180 66t-180 -66q-71 -66 -71 -169t71 -169t180 -67q109 0 180 66q71 65 71 169zM644 939q216 0 356 -137t140 -343t-153 -345q-154 -139 -386 -140q-153 0 -275 62t-192 174t-70 268t136 361l397 595h334l-353 -499q39 4 66 4z" />
    <glyph glyph-name="seven" unicode="7" horiz-adv-x="1126" 
d="M1074 1434v-216l-594 -1218h-325l589 1176h-681v258h1011z" />
    <glyph glyph-name="eight" unicode="8" horiz-adv-x="1299" 
d="M650 1209q-100 -1 -166 -49t-66 -136t66 -137t166 -49t166 50t66 136q0 88 -66 136t-166 49zM650 610q-112 0 -188 -52q-74 -52 -74 -144t75 -142q75 -51 187 -51t188 51q74 50 74 142t-75 144t-187 52zM650 1459q146 0 264 -48t190 -143q71 -95 72 -220
q0 -223 -220 -325q254 -99 254 -333q0 -127 -76 -223q-76 -97 -202 -145t-282 -48q-328 0 -484 193q-76 96 -76 223q0 233 253 333q-218 101 -218 325q0 126 71 220q72 94 190 143q118 48 264 48z" />
    <glyph glyph-name="nine" unicode="9" horiz-adv-x="1208" 
d="M606 737q109 0 180 66q71 65 71 169t-71 170t-180 66t-180 -66t-71 -169t71 -169t180 -67zM564 495q-216 1 -356 137t-140 342t153 346q154 139 385 139q152 0 275 -62q123 -61 193 -173t71 -248q0 -177 -136 -381l-398 -595h-333l351 499q-26 -4 -65 -4z" />
    <glyph glyph-name="colon" unicode=":" horiz-adv-x="567" 
d="M284 372q80 0 139 -59t59 -139t-59 -140t-139 -60t-139 60q-60 60 -60 140t60 139q59 59 139 59zM284 1019q80 0 139 -59q59 -60 59 -140t-59 -139t-139 -59t-139 59q-60 59 -60 139t60 140q59 59 139 59z" />
    <glyph glyph-name="semicolon" unicode=";" horiz-adv-x="546" 
d="M155 324h300l-144 -611h-225zM290 1019q80 0 139 -59q59 -60 59 -140t-59 -139t-139 -59t-139 59q-60 59 -60 139t60 140q59 59 139 59z" />
    <glyph glyph-name="less" unicode="&#x3c;" 
d="M1034 297v-266l-838 390v249l838 390v-266l-584 -248z" />
    <glyph glyph-name="equal" unicode="=" 
d="M1085 877v-229h-942v229h942zM1085 442v-228h-942v228h942z" />
    <glyph glyph-name="greater" unicode="&#x3e;" 
d="M196 794v266l838 -390v-249l-838 -390v266l584 248z" />
    <glyph glyph-name="question" unicode="?" horiz-adv-x="912" 
d="M300 365q78 0 136 -58q58 -59 58 -137t-58 -137t-136 -59t-137 59t-59 137t58 137q60 58 138 58zM274 838q305 0 305 182q1 82 -77 126t-224 44q-70 0 -156 -8l-20 269q93 13 207 13q266 0 415 -114t149 -300t-114 -298q-114 -111 -328 -145l-8 -118h-247v349h98z" />
    <glyph glyph-name="at" unicode="@" horiz-adv-x="1980" 
d="M1165 512q0 88 -52 146q-51 58 -135 57q-84 0 -135 -58t-51 -145t51 -145t135 -58q84 -1 135 57q52 58 52 146zM1376 899v-441q0 -88 22 -128t82 -40t100 65t40 218t-80 288t-223 211t-325 77q-182 0 -324 -80q-144 -80 -224 -225t-80 -332q0 -188 80 -334
q78 -146 220 -226t343 -80t367 117l122 -165q-216 -158 -511 -158q-184 0 -343 64t-271 176t-175 269q-64 157 -64 337t64 335t177 267t273 176t346 64t346 -62q318 -123 448 -422q63 -148 63 -334t-105 -316q-104 -130 -290 -131q-186 0 -260 136q-90 -122 -254 -122
q-164 1 -269 117t-105 291t104 292q106 117 256 117t235 -102v81h215z" />
    <glyph glyph-name="A" unicode="A" horiz-adv-x="1507" 
d="M751 1151l-208 -554h414zM928 1434l558 -1434h-305l-125 334h-612l-125 -334h-297l558 1434h348z" />
    <glyph glyph-name="B" unicode="B" horiz-adv-x="1417" 
d="M449 1182v-335h292q121 0 187 36t66 141q0 158 -254 158h-291zM769 596h-320v-344l320 -1q128 0 193 38q64 39 64 135t-65 134t-192 38zM163 1434h586q259 0 401 -99t142 -299q0 -106 -58 -188t-150 -116q102 -35 170 -122t69 -199q0 -203 -139 -307t-401 -104h-620v1434
z" />
    <glyph glyph-name="C" unicode="C" horiz-adv-x="1546" 
d="M94 717q0 160 56 298q113 279 394 389q140 56 321 56t345 -86t251 -235l-246 -151q-61 94 -156 146t-214 52q-197 0 -325 -131t-128 -341t130 -338q129 -129 323 -128q238 0 374 196l233 -168q-97 -142 -254 -222q-158 -80 -336 -80t-318 55q-140 56 -239 154t-155 236
t-56 298z" />
    <glyph glyph-name="D" unicode="D" horiz-adv-x="1592" 
d="M751 1166h-302v-899h302q219 -1 333 123t115 328q-1 204 -115 326t-333 122zM163 1434h591q336 0 540 -197t204 -521t-204 -520t-540 -196h-591v1434z" />
    <glyph glyph-name="E" unicode="E" horiz-adv-x="1363" 
d="M1234 262v-262h-1071v1434h1063v-263h-777v-317h741v-262h-741v-330h785z" />
    <glyph glyph-name="F" unicode="F" horiz-adv-x="1312" 
d="M1167 844v-263h-718v-581h-286v1434h1052v-264h-766v-326h718z" />
    <glyph glyph-name="G" unicode="G" horiz-adv-x="1638" 
d="M854 1460q166 0 305 -57q140 -57 236 -163l-206 -202q-131 151 -337 151t-334 -132q-128 -131 -128 -343t129 -343t311 -131q358 1 415 317h-364v239h659q4 -37 4 -81q0 -213 -90 -383t-250 -264t-360 -94q-249 0 -436 129q-311 212 -314 614q0 161 57 299t156 235
t240 153t307 56z" />
    <glyph glyph-name="H" unicode="H" horiz-adv-x="1587" 
d="M449 1434v-578h690v578h285v-1434h-285v590h-690v-590h-286v1434h286z" />
    <glyph glyph-name="I" unicode="I" horiz-adv-x="611" 
d="M449 1434v-1434h-286v1434h286z" />
    <glyph glyph-name="J" unicode="J" horiz-adv-x="1156" 
d="M474 248q240 0 242 301v885h285v-912q0 -262 -141 -405t-373 -143q-295 0 -457 199l166 208q109 -133 278 -133z" />
    <glyph glyph-name="K" unicode="K" horiz-adv-x="1458" 
d="M449 590v-590h-286v1434h286v-581h135l474 581h358l-601 -700l646 -734h-370l-510 590h-132z" />
    <glyph glyph-name="L" unicode="L" horiz-adv-x="1239" 
d="M1206 267v-267h-1043v1434h286v-1167h757z" />
    <glyph glyph-name="M" unicode="M" horiz-adv-x="1907" 
d="M1745 1434v-1434h-286v1082l-354 -944h-302l-354 936v-1074h-286v1434h419l372 -968l372 968h419z" />
    <glyph glyph-name="N" unicode="N" horiz-adv-x="1607" 
d="M1445 1434v-1434h-268l-727 957l-1 -957h-286v1434h267l728 -958v958h287z" />
    <glyph glyph-name="O" unicode="O" horiz-adv-x="1694" 
d="M848 1186q-200 0 -328 -131t-128 -339t128 -338t328 -130t326 130q127 130 128 339q0 209 -128 339q-126 130 -326 130zM874 1460q190 0 362 -96t269 -266q96 -170 96 -381t-96 -381t-269 -266q-172 -96 -362 -96t-330 56t-239 154t-155 236t-56 297t56 296
q112 277 394 391q140 56 330 56z" />
    <glyph glyph-name="P" unicode="P" horiz-adv-x="1352" 
d="M742 1170h-293v-385h293q237 1 237 193t-237 192zM750 524h-301v-524h-286v1434h585q252 0 388 -122t136 -333t-136 -333t-386 -122z" />
    <glyph glyph-name="Q" unicode="Q" horiz-adv-x="1704" 
d="M1302 717q0 209 -128 339t-326 130q-200 0 -328 -131t-128 -339t128 -338q128 -131 327 -130q135 0 242 63l-262 348h342l99 -133q34 90 34 191zM874 1460q190 0 362 -96t269 -266q96 -170 96 -402t-145 -424l202 -272h-336l-67 88q-181 -115 -408 -115q-163 1 -303 57
t-239 154t-155 236t-56 297t56 296q112 277 394 391q140 56 330 56z" />
    <glyph glyph-name="R" unicode="R" horiz-adv-x="1392" 
d="M764 1170h-315v-351h315q237 0 236 178q1 173 -236 173zM163 1434h606q254 0 390 -114q135 -114 135 -308q0 -192 -116 -305t-323 -133l441 -574h-346l-418 570h-83v-570h-286v1434z" />
    <glyph glyph-name="S" unicode="S" horiz-adv-x="1385" 
d="M729 1194q-123 0 -199 -46t-76 -125t86 -113q66 -29 211 -54l80 -13q457 -75 457 -402q0 -115 -48 -205t-130 -147q-165 -113 -409 -115q-168 0 -330 49t-274 139l149 230q84 -66 205 -110t247 -44t207 46q79 46 79 122t-72 112t-232 61l-91 14q-437 69 -437 411
q0 108 46 196q86 163 307 228q102 30 236 30q275 0 530 -152l-135 -234q-198 122 -407 122z" />
    <glyph glyph-name="T" unicode="T" horiz-adv-x="1240" 
d="M1207 1434v-268h-444v-1166h-286v1166h-444v268h1174z" />
    <glyph glyph-name="U" unicode="U" horiz-adv-x="1527" 
d="M1381 1434v-862q-1 -194 -79 -330q-156 -268 -538 -268q-383 0 -539 269q-79 136 -79 329v862h287v-847q0 -171 88 -255t243 -84t243 84t88 255v847h286z" />
    <glyph glyph-name="V" unicode="V" horiz-adv-x="1467" 
d="M1446 1434l-539 -1434h-347l-538 1434h304l410 -1144l413 1144h297z" />
    <glyph glyph-name="W" unicode="W" horiz-adv-x="2232" 
d="M2198 1434l-429 -1434h-346l-307 1024l-307 -1024h-346l-428 1434h297l308 -1100l321 1100h316l320 -1100l309 1100h292z" />
    <glyph glyph-name="X" unicode="X" horiz-adv-x="1388" 
d="M1343 1434l-477 -706l491 -728h-335l-330 511l-331 -511h-329l489 728l-476 706h336l315 -492l318 492h329z" />
    <glyph glyph-name="Y" unicode="Y" horiz-adv-x="1394" 
d="M844 0h-286v566l-552 868h336l360 -609l361 609h326l-545 -869v-565z" />
    <glyph glyph-name="Z" unicode="Z" horiz-adv-x="1318" 
d="M1222 1434v-224l-745 -947h745v-263h-1125v223l745 947h-743v264h1123z" />
    <glyph glyph-name="bracketleft" unicode="[" horiz-adv-x="784" 
d="M719 -28v-241h-556v1703h556v-242h-285v-1220h285z" />
    <glyph glyph-name="backslash" unicode="\" horiz-adv-x="1060" 
d="M819 -205l-869 1782h282l870 -1782h-283z" />
    <glyph glyph-name="bracketright" unicode="]" horiz-adv-x="784" 
d="M66 1192v242h556v-1703h-556v241h284v1220h-284z" />
    <glyph glyph-name="asciicircum" unicode="^" 
d="M391 650h-267l365 784h250l366 -784h-274l-220 518z" />
    <glyph glyph-name="underscore" unicode="_" horiz-adv-x="962" 
d="M968 -105v-218h-973v218h973z" />
    <glyph glyph-name="grave" unicode="`" horiz-adv-x="1024" 
d="M775 1135h-255l-270 322h319z" />
    <glyph glyph-name="a" unicode="a" horiz-adv-x="1257" 
d="M608 770q-114 0 -186 -78q-70 -78 -70 -195t71 -195t185 -78t185 76q71 78 71 197t-71 196t-185 77zM1117 992v-992h-261v110q-110 -136 -306 -136t-334 150t-137 373q0 223 138 373t333 149q195 0 306 -136v109h261z" />
    <glyph glyph-name="b" unicode="b" horiz-adv-x="1256" 
d="M650 770q-114 0 -186 -77q-71 -77 -71 -196t71 -196q72 -77 186 -77t184 78t70 195t-70 195t-184 78zM708 1019q194 0 333 -150q138 -151 138 -373t-138 -372t-334 -150t-306 136v-110h-261v1475h267v-586q107 130 301 130z" />
    <glyph glyph-name="c" unicode="c" horiz-adv-x="1057" 
d="M607 770q-112 0 -184 -76t-72 -198t71 -197q71 -76 186 -76t207 101l191 -163q-145 -187 -390 -187t-391 147t-146 375t146 376t391 147q245 0 389 -188l-193 -160q-93 99 -205 99z" />
    <glyph glyph-name="d" unicode="d" horiz-adv-x="1257" 
d="M608 770q-114 0 -186 -78q-70 -78 -70 -195t71 -195t185 -78t185 76q71 78 71 197t-71 196t-185 77zM79 497q-1 223 137 373t332 149q194 0 303 -130v586h266v-1475h-261v110q-110 -136 -306 -136t-334 150t-137 373z" />
    <glyph glyph-name="e" unicode="e" horiz-adv-x="1140" 
d="M576 788q-90 0 -146 -52t-75 -146h440q-18 94 -74 146t-145 52zM609 202q139 0 251 95l157 -172q-164 -151 -408 -151t-387 143t-143 377q-1 234 139 380t358 145t352 -145t135 -376q0 -52 -5 -90h-704q20 -102 88 -154t167 -52z" />
    <glyph glyph-name="f" unicode="f" horiz-adv-x="869" 
d="M803 992v-237h-308v-755h-268v755h-185v237h185v123q0 177 92 281q91 104 263 104t306 -89l-107 -208q-89 48 -170 48q-117 0 -116 -139v-120h308z" />
    <glyph glyph-name="g" unicode="g" horiz-adv-x="1245" 
d="M602 773q-112 0 -180 -75q-69 -75 -69 -186q0 -112 69 -186t180 -74q110 0 180 74t70 186t-69 187q-69 74 -181 74zM843 992h262v-910q0 -238 -144 -374t-392 -137q-121 0 -237 31t-197 89l95 218q154 -101 328 -102q128 -1 205 69t78 195v69q-110 -134 -305 -134
q-90 0 -174 37q-173 77 -246 262q-37 95 -37 207q0 227 136 367t327 140t301 -137v110z" />
    <glyph glyph-name="h" unicode="h" horiz-adv-x="1210" 
d="M408 1476v-590q94 133 274 133t288 -108t108 -279v-632h-267v546q0 106 -51 164q-50 58 -142 58t-151 -58t-59 -166v-544h-268v1476h268z" />
    <glyph glyph-name="i" unicode="i" horiz-adv-x="547" 
d="M272 1489q72 0 122 -50t50 -122t-50 -121t-122 -49t-120 49q-48 50 -50 122q0 72 49 122t121 49zM408 992v-992h-268v992h268z" />
    <glyph glyph-name="j" unicode="j" horiz-adv-x="551" 
d="M275 1489q72 0 122 -50q49 -50 49 -122t-49 -121t-122 -49t-121 49q-48 50 -49 122q0 72 49 122t121 49zM412 992v-1086q0 -160 -84 -249t-225 -88q-89 0 -150 27l40 234q34 -12 72 -12q80 0 79 103v1071h268z" />
    <glyph glyph-name="k" unicode="k" horiz-adv-x="1121" 
d="M408 1475v-836h94l279 353h328l-391 -467l394 -525h-329l-285 401h-90v-401h-268v1475h268z" />
    <glyph glyph-name="l" unicode="l" horiz-adv-x="547" 
d="M408 1475v-1475h-268v1475h268z" />
    <glyph glyph-name="m" unicode="m" horiz-adv-x="1880" 
d="M1357 1019q175 0 283 -107t108 -280v-632h-266v546q0 106 -51 164t-143 58t-150 -58q-59 -58 -60 -166v-544h-267v546q0 106 -51 164q-50 58 -142 58t-151 -58t-59 -166v-544h-268v992h260v-116q96 143 292 143q106 0 192 -45t136 -125q104 170 337 170z" />
    <glyph glyph-name="n" unicode="n" horiz-adv-x="1210" 
d="M679 1019q183 0 291 -108t108 -279v-632h-267v546q0 106 -51 164q-50 58 -142 58t-151 -58t-59 -166v-544h-268v992h260v-116q96 143 279 143z" />
    <glyph glyph-name="o" unicode="o" horiz-adv-x="1229" 
d="M614 770q-114 0 -188 -77t-75 -197q0 -120 75 -196q74 -77 188 -77t189 77t76 197q1 121 -75 197t-190 76zM614 1019q230 0 384 -149t154 -373q0 -223 -153 -373t-384 -150t-384 149t-153 373t153 374q153 149 383 149z" />
    <glyph glyph-name="p" unicode="p" horiz-adv-x="1256" 
d="M650 770q-114 0 -186 -77q-71 -77 -71 -196t71 -196q72 -77 186 -77t184 78t70 195t-70 195t-184 78zM706 1019q196 0 335 -150q138 -151 138 -373t-138 -372t-332 -150t-302 129v-513h-267v1402h261v-109q109 136 305 136z" />
    <glyph glyph-name="q" unicode="q" horiz-adv-x="1257" 
d="M608 770q-114 0 -186 -78q-70 -78 -70 -195t71 -195t185 -78t185 76q71 78 71 197t-71 196t-185 77zM79 497q-1 223 137 373t334 149q196 0 306 -136v109h261v-1402h-266v513q-109 -129 -303 -129t-332 150t-137 373z" />
    <glyph glyph-name="r" unicode="r" horiz-adv-x="860" 
d="M679 1019q80 0 139 -22l-40 -265q-72 32 -164 32t-150 -58q-57 -58 -56 -165v-541h-268v992h259v-108q91 135 280 135z" />
    <glyph glyph-name="s" unicode="s" horiz-adv-x="1038" 
d="M383 708q0 -40 40 -57t122 -29l88 -14q335 -51 335 -297q0 -155 -121 -245t-335 -92q-276 0 -441 117l105 203q146 -97 334 -97t187 93q0 36 -39 58t-126 33l-80 11q-343 47 -343 301q0 153 111 239t320 86t402 -94l-90 -208q-160 79 -316 81q-75 0 -114 -24
q-39 -25 -39 -65z" />
    <glyph glyph-name="t" unicode="t" horiz-adv-x="955" 
d="M860 992v-237h-359v-363q0 -166 154 -168q74 0 181 64l98 -209q-152 -105 -332 -105t-274 102t-95 295v384h-191v237h191v295h268v-295h359z" />
    <glyph glyph-name="u" unicode="u" horiz-adv-x="1203" 
d="M1071 992v-569q0 -229 -137 -339t-332 -110q-249 0 -376 156q-94 111 -94 293v569h267v-546q-1 -114 55 -168t148 -55q92 0 148 55q55 55 55 168v546h266z" />
    <glyph glyph-name="v" unicode="v" horiz-adv-x="1125" 
d="M1107 992l-388 -992h-308l-393 992h291l257 -710l259 710h282z" />
    <glyph glyph-name="w" unicode="w" horiz-adv-x="1773" 
d="M1028 992l225 -696l213 696h280l-336 -992h-305l-220 671l-218 -671h-303l-336 992h284l212 -693l222 693h282z" />
    <glyph glyph-name="x" unicode="x" horiz-adv-x="1124" 
d="M1091 992l-356 -487l362 -505h-318l-223 315l-219 -315h-309l364 504l-355 488h317l214 -308l213 308h310z" />
    <glyph glyph-name="y" unicode="y" horiz-adv-x="1155" 
d="M1146 992l-759 -1406h-293l347 625l-428 781h303l273 -510l264 510h293z" />
    <glyph glyph-name="z" unicode="z" horiz-adv-x="1064" 
d="M955 992v-195l-489 -558h501v-239h-869v193l501 562h-483v237h839z" />
    <glyph glyph-name="braceleft" unicode="{" horiz-adv-x="902" 
d="M837 1196h-67q-89 0 -140 -49t-46 -138l4 -97q11 -251 -215 -329q226 -79 215 -330l-4 -96q-4 -89 46 -139q51 -49 140 -49h67v-237h-88q-219 0 -332 118t-104 324l4 100q4 91 -54 141q-59 50 -166 50v234q105 1 165 51t55 141l-4 100q-9 206 104 324t332 119h88v-238z
" />
    <glyph glyph-name="bar" unicode="|" horiz-adv-x="723" 
d="M496 1434v-1705h-268v1705h268z" />
    <glyph glyph-name="braceright" unicode="}" horiz-adv-x="902" 
d="M66 -31h66q89 0 140 49t46 139l-4 96q-11 251 215 330q-226 79 -215 329l4 97q4 89 -46 138q-51 49 -140 49h-66v238h88q220 0 332 -118t103 -325l-4 -100q-3 -91 55 -141t165 -50v-234q-105 0 -165 -50t-55 -142l4 -100q9 -206 -104 -324t-331 -118h-88v237z" />
    <glyph glyph-name="asciitilde" unicode="~" 
d="M424 700q120 0 219 -45q98 -45 172 -45q73 -1 165 88l129 -162q-122 -146 -304 -147q-125 -1 -222 45q-96 46 -168 46q-73 0 -165 -89l-129 163q120 146 303 146z" />
    <glyph glyph-name="uni00A0" unicode="&#xa0;" horiz-adv-x="506" 
 />
    <glyph glyph-name="exclamdown" unicode="&#xa1;" horiz-adv-x="568" 
d="M479 823q0 -77 -58 -135q-59 -58 -137 -58t-136 58t-58 136t58 136t136 59q78 0 137 -59q58 -59 58 -137zM125 -440l37 941h246l36 -941h-319z" />
    <glyph glyph-name="cent" unicode="&#xa2;" horiz-adv-x="1433" 
d="M505 716q0 -86 40 -152t108 -99v504q-69 -34 -109 -100q-40 -67 -39 -153zM653 1434h228v-203q196 -32 314 -178l-182 -156q-63 61 -132 85v-530q78 27 137 86l177 -158q-121 -147 -314 -177v-203h-228v209q-188 39 -300 177t-112 331t112 331t300 176v210z" />
    <glyph glyph-name="sterling" unicode="&#xa3;" horiz-adv-x="1433" 
d="M1252 259v-259h-1089v259h164v346h-164v223h164v66q0 138 43 248q44 110 118 178q151 138 389 139q239 0 388 -150l-185 -196q-82 82 -208 82t-198 -78t-72 -235v-54h495v-223h-495v-346h650z" />
    <glyph glyph-name="currency" unicode="&#xa4;" horiz-adv-x="1433" 
d="M718 436q118 0 198 82q81 82 81 198q0 118 -81 199q-80 81 -198 81t-199 -81t-81 -199t80 -198q82 -82 200 -82zM717 223q-144 0 -266 78l-155 -157l-151 152l156 155q-77 120 -77 265t77 265l-157 157l151 151l157 -157q122 78 264 78t266 -77l156 156l150 -151
l-155 -156q77 -122 77 -266t-77 -265l156 -155l-150 -152l-157 156q-121 -77 -265 -77z" />
    <glyph glyph-name="yen" unicode="&#xa5;" horiz-adv-x="1433" 
d="M1235 465v-190h-373v-275h-276v275h-374v190h374v138h-374v190h286l-435 641h323l338 -525l332 525h315l-426 -641h290v-190h-373v-138h373z" />
    <glyph glyph-name="brokenbar" unicode="&#xa6;" horiz-adv-x="723" 
d="M496 439v-710h-268v710h268zM496 1434v-711h-268v711h268z" />
    <glyph glyph-name="section" unicode="&#xa7;" horiz-adv-x="1334" 
d="M937 556q0 59 -66 89t-209 49l-80 11q-29 4 -42 7q-104 -41 -105 -133q0 -61 67 -89t211 -50l69 -10q37 -6 56 -10q99 42 99 136zM706 1215q-110 0 -179 -36t-69 -99t75 -92q74 -29 203 -47l71 -10q190 -29 300 -112q111 -83 111 -239t-145 -254q120 -90 120 -239
q0 -103 -44 -184q-80 -147 -290 -205q-94 -25 -224 -25q-130 1 -274 41t-244 115l134 216q184 -129 411 -129q110 0 180 36t70 101t-72 92t-203 45l-77 12q-404 59 -404 348q0 160 143 257q-120 89 -120 261t146 281q146 110 391 110t474 -129l-121 -218q-180 103 -363 103z
" />
    <glyph glyph-name="dieresis" unicode="&#xa8;" horiz-adv-x="1095" 
d="M766 1458q72 0 122 -50t50 -122t-50 -121t-122 -49t-121 49t-49 121t49 122t121 50zM326 1458q72 0 122 -50t49 -122q0 -72 -50 -121q-51 -49 -123 -49t-121 49t-49 121t50 122t122 50z" />
    <glyph glyph-name="copyright" unicode="&#xa9;" horiz-adv-x="1909" 
d="M971 1156q121 0 219 -55t151 -152l-193 -108q-61 104 -180 104q-85 0 -141 -61q-56 -60 -56 -160t58 -156t140 -57q115 0 184 104l180 -128q-124 -187 -362 -187q-189 0 -311 120q-121 120 -120 308q0 188 120 308q121 120 311 120zM934 1329q-144 0 -284 -80
q-140 -81 -220 -219q-82 -138 -82 -302t82 -303t221 -219t283 -81q274 0 450 176q81 81 129 193q49 112 49 234t-49 234q-48 111 -129 192q-177 175 -450 175zM972 1555q154 1 311 -65t269 -177t179 -264t67 -321t-68 -322q-133 -308 -447 -441q-156 -66 -328 -66t-328 66
q-316 134 -448 442q-67 155 -67 305q1 294 163 505q261 338 697 338z" />
    <glyph glyph-name="ordfeminine" unicode="&#xaa;" horiz-adv-x="813" 
d="M361 731q92 0 160 77v79h-133q-60 0 -90 -23q-30 -24 -30 -56t24 -54t69 -23zM376 1318q164 0 252 -79t89 -231v-416h-192v70q-85 -88 -207 -88t-188 62t-68 164q0 102 79 159q79 58 217 59h158q-11 126 -151 126q-99 0 -193 -66l-77 151q117 89 281 89z" />
    <glyph glyph-name="guillemotleft" unicode="&#xab;" horiz-adv-x="1113" 
d="M359 545l198 -400h-269l-198 400l198 399h269zM819 545l198 -400h-269l-198 400l198 399h269z" />
    <glyph glyph-name="logicalnot" unicode="&#xac;" 
d="M143 659h942v-548h-233v320h-709v228z" />
    <glyph glyph-name="uni00AD" unicode="&#xad;" horiz-adv-x="832" 
d="M719 662v-234h-605v234h605z" />
    <glyph glyph-name="registered" unicode="&#xae;" horiz-adv-x="1032" 
d="M540 1117h-83v-73h83q55 0 55 36t-55 37zM337 1221h205q84 0 130 -38q46 -37 45 -95q0 -114 -122 -136l127 -147h-141l-114 143h-10v-143h-120v416zM187 1013q0 -137 96 -233q97 -96 233 -96t232 96t96 232t-96 233q-96 96 -232 96t-233 -96q-96 -96 -96 -232zM517 1478
q199 0 338 -136t139 -329q0 -126 -63 -233q-63 -108 -173 -170t-242 -62q-131 0 -242 62q-112 62 -174 170t-62 233q0 126 63 233q63 108 173 170t243 62z" />
    <glyph glyph-name="macron" unicode="&#xaf;" horiz-adv-x="1079" 
d="M201 1179v214h678v-214h-678z" />
    <glyph glyph-name="degree" unicode="&#xb0;" horiz-adv-x="878" 
d="M438 1246q-74 0 -128 -54t-53 -130q-1 -76 53 -131q54 -54 128 -54t129 54q54 55 54 131t-54 130q-55 54 -129 54zM438 668q-166 0 -283 115t-117 279t117 281q117 116 283 116t285 -116q118 -117 118 -281t-118 -279q-119 -115 -285 -115z" />
    <glyph glyph-name="plusminus" unicode="&#xb1;" 
d="M1085 228v-228h-942v228h942zM731 325h-233v265h-355v228h355v330h233v-330h354v-228h-354v-265z" />
    <glyph glyph-name="twosuperior" unicode="&#xb2;" horiz-adv-x="742" 
d="M346 1255q-84 0 -170 -88l-122 132q121 148 314 149q136 0 217 -74t81 -197q0 -73 -32 -131t-103 -127l-147 -141h301v-186h-587v158l296 281q62 59 62 113t-30 83q-32 28 -80 28z" />
    <glyph glyph-name="threesuperior" unicode="&#xb3;" horiz-adv-x="747" 
d="M346 577q-198 0 -304 123l113 131q75 -77 181 -76q57 1 94 23t37 64t-42 66q-42 23 -106 23h-96v171h99q56 0 92 23t37 63q0 40 -32 61t-86 21q-104 0 -175 -79l-113 130q111 127 296 127q141 0 229 -67t88 -187t-123 -178q140 -56 141 -183t-96 -191t-234 -65z" />
    <glyph glyph-name="acute" unicode="&#xb4;" horiz-adv-x="1024" 
d="M505 1135h-255l206 322h319z" />
    <glyph glyph-name="mu" unicode="&#xb5;" horiz-adv-x="1210" 
d="M391 -410h-259v1402h267v-546q0 -106 51 -164q50 -58 142 -58t151 58t60 167v543h267v-992h-260v117q-96 -143 -292 -144q-69 0 -127 19v-402z" />
    <glyph glyph-name="paragraph" unicode="&#xb6;" horiz-adv-x="1319" 
d="M885 0v1434h207v-1434h-207zM572 0v609q-221 4 -340 114q-118 111 -118 299t118 297q119 109 340 114v1h207v-1434h-207z" />
    <glyph glyph-name="periodcentered" unicode="&#xb7;" horiz-adv-x="686" 
d="M344 743q80 -1 138 -59q60 -58 60 -138t-60 -140t-138 -60q-80 0 -140 60t-60 140t60 138t140 59z" />
    <glyph glyph-name="cedilla" unicode="&#xb8;" horiz-adv-x="891" 
d="M628 7l-106 -336h-258l114 336h250z" />
    <glyph glyph-name="onesuperior" unicode="&#xb9;" horiz-adv-x="566" 
d="M433 592h-202v578l-189 -69v196l391 150v-855z" />
    <glyph glyph-name="ordmasculine" unicode="&#xba;" horiz-adv-x="889" 
d="M445 1133q-78 -1 -129 -53t-51 -134t51 -134t129 -53q78 0 129 53q52 52 52 134t-52 134t-129 53zM445 1318q165 0 274 -106t109 -266t-110 -266q-108 -106 -273 -106t-273 106t-110 266q0 160 109 266t274 106z" />
    <glyph glyph-name="guillemotright" unicode="&#xbb;" horiz-adv-x="1113" 
d="M754 546l-198 399h269l198 -399l-198 -400h-269zM294 546l-198 399h270l197 -399l-197 -400h-270z" />
    <glyph glyph-name="onequarter" unicode="&#xbc;" horiz-adv-x="1750" 
d="M433 592h-202v578l-189 -69v196l391 150v-855zM1611 549v-226h106v-182h-106v-141h-202v141h-377v142l278 558h221l-261 -518h139v103l61 123h141zM1413 1434l-904 -1434h-247l904 1434h247z" />
    <glyph glyph-name="onehalf" unicode="&#xbd;" horiz-adv-x="1824" 
d="M433 592h-202v578l-189 -69v196l391 150v-855zM1449 856q136 0 217 -74t81 -197q0 -73 -31 -131t-103 -127l-148 -141h301v-186h-586v158l296 281q62 59 62 113t-31 83t-81 29q-82 1 -169 -89l-121 133q121 148 313 148zM1413 1434l-904 -1434h-247l904 1434h247z" />
    <glyph glyph-name="threequarters" unicode="&#xbe;" horiz-adv-x="1903" 
d="M346 577q-198 0 -304 123l113 131q75 -77 181 -76q57 1 94 23t37 64t-42 66q-42 23 -106 23h-96v171h99q56 0 92 23t37 63q0 40 -32 61t-86 21q-104 0 -175 -79l-113 130q111 127 296 127q141 0 229 -67t88 -187t-123 -178q140 -56 141 -183t-96 -191t-234 -65zM1764 549
v-226h107v-182h-107v-141h-201v141h-377v142l277 558h221l-261 -518h140v103l61 123h140zM1567 1434l-904 -1434h-247l904 1434h247z" />
    <glyph glyph-name="questiondown" unicode="&#xbf;" horiz-adv-x="912" 
d="M808 822q0 -78 -58 -136t-138 -57q-78 0 -136 58t-57 136q0 78 58 137q57 59 135 59t137 -59q59 -60 59 -138zM638 156q-304 0 -304 -183q0 -83 77 -127t224 -43q70 0 156 9l19 -270q-93 -13 -207 -13q-266 0 -415 114q-149 115 -149 301t114 297t328 145l8 118h247v-348
h-98z" />
    <glyph glyph-name="Agrave" unicode="&#xc0;" horiz-adv-x="1507" 
d="M672 1554l-271 323h320l206 -323h-255zM751 1151l-208 -554h414zM928 1434l558 -1434h-305l-125 334h-612l-125 -334h-297l558 1434h348z" />
    <glyph glyph-name="Aacute" unicode="&#xc1;" horiz-adv-x="1507" 
d="M821 1554h-255l206 323h320zM751 1151l-208 -554h414zM928 1434l558 -1434h-305l-125 334h-612l-125 -334h-297l558 1434h348z" />
    <glyph glyph-name="Acircumflex" unicode="&#xc2;" horiz-adv-x="1507" 
d="M1139 1544h-259l-126 157l-125 -157h-259l223 323h322zM751 1151l-208 -554h414zM928 1434l558 -1434h-305l-125 334h-612l-125 -334h-297l558 1434h348z" />
    <glyph glyph-name="Atilde" unicode="&#xc3;" horiz-adv-x="1507" 
d="M621 1854q96 0 205 -53q37 -18 61 -18q53 0 127 68l142 -152q-105 -135 -269 -135q-86 0 -204 53q-38 18 -62 18q-53 1 -127 -67l-142 152q103 134 269 134zM751 1151l-208 -554h414zM928 1434l558 -1434h-305l-125 334h-612l-125 -334h-297l558 1434h348z" />
    <glyph glyph-name="Adieresis" unicode="&#xc4;" horiz-adv-x="1507" 
d="M974 1878q72 0 122 -50t50 -122t-50 -121t-122 -49t-122 49q-48 49 -48 121t49 122t121 50zM532 1878q72 0 122 -50t50 -122t-49 -121q-51 -49 -123 -49t-120 49t-50 121q0 72 49 122t121 50zM751 1151l-208 -554h414zM928 1434l558 -1434h-305l-125 334h-612l-125 -334
h-297l558 1434h348z" />
    <glyph glyph-name="Aring" unicode="&#xc5;" horiz-adv-x="1507" 
d="M754 1896q-44 0 -76 -32t-33 -78q0 -46 32 -80q33 -32 77 -32t76 32t32 79t-32 79t-76 32zM754 2049q112 0 190 -77q78 -76 78 -186t-78 -187t-190 -77t-190 77t-78 187t78 186q79 77 190 77zM751 1151l-208 -554h414zM928 1434l558 -1434h-305l-125 334h-612l-125 -334
h-297l558 1434h348z" />
    <glyph glyph-name="AE" unicode="&#xc6;" horiz-adv-x="2358" 
d="M1157 564v556l-397 -556h397zM2228 262v-262h-1071v301h-585l-214 -301h-341l1038 1434h1165v-263h-777v-317h741v-262h-741v-330h785z" />
    <glyph glyph-name="Ccedilla" unicode="&#xc7;" horiz-adv-x="1546" 
d="M865 1460q181 0 345 -86t251 -235l-246 -151q-61 94 -156 146t-214 52q-197 0 -325 -131t-128 -341t130 -338q129 -129 323 -128q238 0 374 196l233 -168q-81 -118 -204 -194t-275 -99l-97 -312h-274l107 314q-275 43 -445 243q-169 201 -170 489q0 160 56 298
q113 279 394 389q140 56 321 56z" />
    <glyph glyph-name="Egrave" unicode="&#xc8;" horiz-adv-x="1363" 
d="M610 1554l-270 323h319l206 -323h-255zM1234 262v-262h-1071v1434h1063v-263h-777v-317h741v-262h-741v-330h785z" />
    <glyph glyph-name="Eacute" unicode="&#xc9;" horiz-adv-x="1363" 
d="M760 1554h-255l206 323h319zM1234 262v-262h-1071v1434h1063v-263h-777v-317h741v-262h-741v-330h785z" />
    <glyph glyph-name="Ecircumflex" unicode="&#xca;" horiz-adv-x="1363" 
d="M1077 1544h-259l-126 157l-125 -157h-259l223 323h323zM1234 262v-262h-1071v1434h1063v-263h-777v-317h741v-262h-741v-330h785z" />
    <glyph glyph-name="Edieresis" unicode="&#xcb;" horiz-adv-x="1363" 
d="M912 1536q-74 0 -122 49t-48 121t49 122t121 50t123 -50q49 -50 49 -122t-50 -121t-122 -49zM471 1878q72 0 122 -50t50 -122t-50 -121t-122 -49t-121 49t-49 121t49 122t121 50zM1234 262v-262h-1071v1434h1063v-263h-777v-317h741v-262h-741v-330h785z" />
    <glyph glyph-name="Igrave" unicode="&#xcc;" horiz-adv-x="611" 
d="M224 1554l-270 323h319l206 -323h-255zM449 1434v-1434h-286v1434h286z" />
    <glyph glyph-name="Iacute" unicode="&#xcd;" horiz-adv-x="611" 
d="M374 1554h-255l206 323h319zM449 1434v-1434h-286v1434h286z" />
    <glyph glyph-name="Icircumflex" unicode="&#xce;" horiz-adv-x="611" 
d="M691 1544h-259l-126 157l-125 -157h-259l223 323h323zM449 1434v-1434h-286v1434h286z" />
    <glyph glyph-name="Idieresis" unicode="&#xcf;" horiz-adv-x="611" 
d="M526 1878q72 0 122 -50t50 -122t-50 -121t-122 -49t-120 49t-50 121q0 72 49 122t121 50zM84 1536q-72 0 -120 49t-49 121q0 72 49 122q50 50 122 50t122 -50t49 -122q0 -72 -50 -121q-51 -49 -123 -49zM449 1434v-1434h-286v1434h286z" />
    <glyph glyph-name="Eth" unicode="&#xd0;" horiz-adv-x="1700" 
d="M913 851v-256h-356v-328h302q219 -1 334 123t115 328t-115 326t-334 122h-302v-315h356zM271 1434h591q337 0 541 -197t204 -521t-204 -520t-541 -196h-591v595h-174v256h174v583z" />
    <glyph glyph-name="Ntilde" unicode="&#xd1;" horiz-adv-x="1607" 
d="M676 1854q96 0 205 -53q37 -18 61 -18q53 0 127 68l142 -152q-105 -135 -269 -135q-86 0 -204 53q-38 18 -62 18q-53 1 -127 -67l-141 152q103 134 268 134zM1445 1434v-1434h-268l-727 957l-1 -957h-286v1434h267l728 -958v958h287z" />
    <glyph glyph-name="Ograve" unicode="&#xd2;" horiz-adv-x="1694" 
d="M765 1554l-270 323h319l206 -323h-255zM848 1186q-200 0 -328 -131t-128 -339t128 -338t328 -130t326 130q127 130 128 339q0 209 -128 339q-126 130 -326 130zM874 1460q190 0 362 -96t269 -266q96 -170 96 -381t-96 -381t-269 -266q-172 -96 -362 -96t-330 56t-239 154
t-155 236t-56 297t56 296q112 277 394 391q140 56 330 56z" />
    <glyph glyph-name="Oacute" unicode="&#xd3;" horiz-adv-x="1694" 
d="M914 1554h-255l206 323h320zM848 1186q-200 0 -328 -131t-128 -339t128 -338t328 -130t326 130q127 130 128 339q0 209 -128 339q-126 130 -326 130zM874 1460q190 0 362 -96t269 -266q96 -170 96 -381t-96 -381t-269 -266q-172 -96 -362 -96t-330 56t-239 154t-155 236
t-56 297t56 296q112 277 394 391q140 56 330 56z" />
    <glyph glyph-name="Ocircumflex" unicode="&#xd4;" horiz-adv-x="1694" 
d="M1232 1544h-259l-126 157l-125 -157h-259l223 323h323zM848 1186q-200 0 -328 -131t-128 -339t128 -338t328 -130t326 130q127 130 128 339q0 209 -128 339q-126 130 -326 130zM874 1460q190 0 362 -96t269 -266q96 -170 96 -381t-96 -381t-269 -266q-172 -96 -362 -96
t-330 56t-239 154t-155 236t-56 297t56 296q112 277 394 391q140 56 330 56z" />
    <glyph glyph-name="Otilde" unicode="&#xd5;" horiz-adv-x="1694" 
d="M714 1854q96 0 205 -53q37 -18 61 -18q53 0 127 68l142 -152q-105 -135 -269 -135q-86 0 -204 53q-38 18 -62 18q-53 1 -127 -67l-142 152q103 134 269 134zM848 1186q-200 0 -328 -131t-128 -339t128 -338t328 -130t326 130q127 130 128 339q0 209 -128 339
q-126 130 -326 130zM874 1460q190 0 362 -96t269 -266q96 -170 96 -381t-96 -381t-269 -266q-172 -96 -362 -96t-330 56t-239 154t-155 236t-56 297t56 296q112 277 394 391q140 56 330 56z" />
    <glyph glyph-name="Odieresis" unicode="&#xd6;" horiz-adv-x="1694" 
d="M1067 1878q72 0 122 -50t50 -122t-50 -121t-122 -49t-121 49t-49 121t49 122t121 50zM626 1878q72 0 122 -50t50 -122t-50 -121t-122 -49t-122 49q-48 49 -48 121t49 122t121 50zM848 1186q-200 0 -328 -131t-128 -339t128 -338t328 -130t326 130q127 130 128 339
q0 209 -128 339q-126 130 -326 130zM874 1460q190 0 362 -96t269 -266q96 -170 96 -381t-96 -381t-269 -266q-172 -96 -362 -96t-330 56t-239 154t-155 236t-56 297t56 296q112 277 394 391q140 56 330 56z" />
    <glyph glyph-name="multiply" unicode="&#xd7;" 
d="M329 96l-163 163l284 284l-286 285l167 167l285 -285l284 283l163 -163l-284 -283l286 -286l-167 -167l-286 286z" />
    <glyph glyph-name="Oslash" unicode="&#xd8;" horiz-adv-x="1694" 
d="M1302 717q0 123 -51 228l-639 -638q101 -59 235 -59q199 0 327 130t128 339zM847 1186q-199 0 -327 -131t-128 -338q0 -132 53 -234l640 640q-105 63 -238 63zM847 1460q252 0 444 -131l130 130l172 -172l-128 -128q135 -191 135 -423t-95 -400q-96 -170 -269 -266
t-407 -96t-422 127l-127 -127l-172 171l123 124q-137 191 -137 448q0 159 56 297q112 276 394 390q140 56 303 56z" />
    <glyph glyph-name="Ugrave" unicode="&#xd9;" horiz-adv-x="1527" 
d="M682 1554l-270 323h319l206 -323h-255zM1381 1434v-862q-1 -194 -79 -330q-156 -268 -538 -268q-383 0 -539 269q-79 136 -79 329v862h287v-847q0 -171 88 -255t243 -84t243 84t88 255v847h286z" />
    <glyph glyph-name="Uacute" unicode="&#xda;" horiz-adv-x="1527" 
d="M831 1554h-254l205 323h320zM1381 1434v-862q-1 -194 -79 -330q-156 -268 -538 -268q-383 0 -539 269q-79 136 -79 329v862h287v-847q0 -171 88 -255t243 -84t243 84t88 255v847h286z" />
    <glyph glyph-name="Ucircumflex" unicode="&#xdb;" horiz-adv-x="1527" 
d="M1149 1544h-259l-126 157l-125 -157h-259l223 323h323zM1381 1434v-862q-1 -194 -79 -330q-156 -268 -538 -268q-383 0 -539 269q-79 136 -79 329v862h287v-847q0 -171 88 -255t243 -84t243 84t88 255v847h286z" />
    <glyph glyph-name="Udieresis" unicode="&#xdc;" horiz-adv-x="1527" 
d="M984 1536q-72 0 -122 49q-48 49 -48 121t49 122t121 50t122 -50t50 -122t-50 -121t-122 -49zM543 1878q72 0 122 -50t50 -122t-50 -121t-122 -49t-121 49t-49 121t49 122t121 50zM1381 1434v-862q-1 -194 -79 -330q-156 -268 -538 -268q-383 0 -539 269q-79 136 -79 329
v862h287v-847q0 -171 88 -255t243 -84t243 84t88 255v847h286z" />
    <glyph glyph-name="Yacute" unicode="&#xdd;" horiz-adv-x="1394" 
d="M769 1554h-255l206 323h319zM844 0h-286v566l-552 868h336l360 -609l361 609h326l-545 -869v-565z" />
    <glyph glyph-name="Thorn" unicode="&#xde;" horiz-adv-x="1352" 
d="M742 924h-293v-384h293q237 0 237 192t-237 192zM449 1434v-246h299q252 0 388 -122t136 -334q0 -211 -136 -332t-386 -121h-301v-279h-286v1434h286z" />
    <glyph glyph-name="germandbls" unicode="&#xdf;" horiz-adv-x="1262" 
d="M133 0v1029q0 244 168 374q128 99 346 98q217 -1 357 -120t139 -298q-1 -125 -61 -215t-156 -125q110 -29 184 -123t75 -214q0 -197 -130 -314t-336 -118q-129 0 -213 27l37 230q65 -24 135 -23q111 0 172 54t61 154q0 203 -284 202h-38v231h10q271 0 271 202
q0 97 -66 150t-174 53t-169 -65q-62 -65 -62 -172v-1017h-266z" />
    <glyph glyph-name="agrave" unicode="&#xe0;" horiz-adv-x="1257" 
d="M551 1135l-270 322h319l206 -322h-255zM608 770q-114 0 -186 -78q-70 -78 -70 -195t71 -195t185 -78t185 76q71 78 71 197t-71 196t-185 77zM1117 992v-992h-261v110q-110 -136 -306 -136t-334 150t-137 373q0 223 138 373t333 149q195 0 306 -136v109h261z" />
    <glyph glyph-name="aacute" unicode="&#xe1;" horiz-adv-x="1257" 
d="M709 1135h-255l205 322h320zM608 770q-114 0 -186 -78q-70 -78 -70 -195t71 -195t185 -78t185 76q71 78 71 197t-71 196t-185 77zM1117 992v-992h-261v110q-110 -136 -306 -136t-334 150t-137 373q0 223 138 373t333 149q195 0 306 -136v109h261z" />
    <glyph glyph-name="acircumflex" unicode="&#xe2;" horiz-adv-x="1257" 
d="M1017 1124h-259l-126 157l-125 -157h-259l223 323h323zM608 770q-114 0 -186 -78q-70 -78 -70 -195t71 -195t185 -78t185 76q71 78 71 197t-71 196t-185 77zM1117 992v-992h-261v110q-110 -136 -306 -136t-334 150t-137 373q0 223 138 373t333 149q195 0 306 -136v109
h261z" />
    <glyph glyph-name="atilde" unicode="&#xe3;" horiz-adv-x="1257" 
d="M763 1363q53 0 127 69l142 -153q-105 -135 -269 -135q-90 0 -204 54q-38 18 -62 17q-53 1 -127 -67l-142 152q103 134 269 135q94 0 205 -54q37 -18 61 -18zM608 770q-114 0 -186 -78q-70 -78 -70 -195t71 -195t185 -78t185 76q71 78 71 197t-71 196t-185 77zM1117 992
v-992h-261v110q-110 -136 -306 -136t-334 150t-137 373q0 223 138 373t333 149q195 0 306 -136v109h261z" />
    <glyph glyph-name="adieresis" unicode="&#xe4;" horiz-adv-x="1257" 
d="M850 1458q72 0 122 -50t50 -122t-50 -121t-122 -49t-121 49t-49 121t49 122t121 50zM410 1458q72 0 122 -50t49 -122q0 -72 -50 -121q-51 -49 -123 -49t-121 49t-49 121t50 122t122 50zM608 770q-114 0 -186 -78q-70 -78 -70 -195t71 -195t185 -78t185 76q71 78 71 197
t-71 196t-185 77zM1117 992v-992h-261v110q-110 -136 -306 -136t-334 150t-137 373q0 223 138 373t333 149q195 0 306 -136v109h261z" />
    <glyph glyph-name="aring" unicode="&#xe5;" horiz-adv-x="1257" 
d="M632 1254q44 0 76 32t32 80q0 46 -32 78t-76 32t-76 -32t-32 -78t31 -80q33 -32 77 -32zM632 1629q112 0 190 -77q78 -76 78 -186t-78 -187t-190 -77t-190 77t-78 187t78 186q79 77 190 77zM608 770q-114 0 -186 -78q-70 -78 -70 -195t71 -195t185 -78t185 76
q71 78 71 197t-71 196t-185 77zM1117 992v-992h-261v110q-110 -136 -306 -136t-334 150t-137 373q0 223 138 373t333 149q195 0 306 -136v109h261z" />
    <glyph glyph-name="ae" unicode="&#xe6;" horiz-adv-x="1788" 
d="M1224 788q-186 0 -222 -201h442q-18 97 -74 149t-146 52zM532 412q-91 0 -133 -32q-43 -32 -43 -78q0 -48 40 -80t110 -33q150 0 250 110q-17 54 -24 113h-200zM540 1019q236 0 345 -147q125 147 344 147t350 -144t132 -377q0 -52 -5 -90h-704q20 -102 88 -154t166 -52
q139 0 252 95l157 -172q-167 -151 -419 -151t-392 153q-74 -70 -164 -111t-220 -42q-184 0 -288 87q-103 87 -103 229t110 222q111 80 305 80h234q-14 191 -222 191q-137 0 -274 -91l-97 209q169 118 405 118z" />
    <glyph glyph-name="ccedilla" unicode="&#xe7;" horiz-adv-x="1057" 
d="M607 770q-112 0 -184 -76t-72 -198t71 -197q71 -76 186 -76t207 101l191 -163q-112 -142 -293 -177l-99 -313h-258l108 320q-176 42 -281 179q-104 137 -104 327q0 227 146 375t391 147q245 0 389 -188l-193 -160q-93 99 -205 99z" />
    <glyph glyph-name="egrave" unicode="&#xe8;" horiz-adv-x="1140" 
d="M497 1135l-271 322h320l206 -322h-255zM576 788q-90 0 -146 -52t-75 -146h440q-18 94 -74 146t-145 52zM609 202q139 0 251 95l157 -172q-164 -151 -408 -151t-387 143t-143 377q-1 234 139 380t358 145t352 -145t135 -376q0 -52 -5 -90h-704q20 -102 88 -154t167 -52z
" />
    <glyph glyph-name="eacute" unicode="&#xe9;" horiz-adv-x="1140" 
d="M654 1135h-255l206 322h320zM576 788q-90 0 -146 -52t-75 -146h440q-18 94 -74 146t-145 52zM609 202q139 0 251 95l157 -172q-164 -151 -408 -151t-387 143t-143 377q-1 234 139 380t358 145t352 -145t135 -376q0 -52 -5 -90h-704q20 -102 88 -154t167 -52z" />
    <glyph glyph-name="ecircumflex" unicode="&#xea;" horiz-adv-x="1140" 
d="M963 1124h-260l-125 157l-125 -157h-259l223 323h322zM576 788q-90 0 -146 -52t-75 -146h440q-18 94 -74 146t-145 52zM609 202q139 0 251 95l157 -172q-164 -151 -408 -151t-387 143t-143 377q-1 234 139 380t358 145t352 -145t135 -376q0 -52 -5 -90h-704
q20 -102 88 -154t167 -52z" />
    <glyph glyph-name="edieresis" unicode="&#xeb;" horiz-adv-x="1140" 
d="M796 1458q72 0 122 -50t50 -122t-50 -121t-122 -49t-122 49q-48 49 -48 121t49 122t121 50zM354 1458q72 0 122 -50t50 -122t-50 -121t-122 -49t-121 49t-49 121t49 122t121 50zM576 788q-90 0 -146 -52t-75 -146h440q-18 94 -74 146t-145 52zM609 202q139 0 251 95
l157 -172q-164 -151 -408 -151t-387 143t-143 377q-1 234 139 380t358 145t352 -145t135 -376q0 -52 -5 -90h-704q20 -102 88 -154t167 -52z" />
    <glyph glyph-name="igrave" unicode="&#xec;" horiz-adv-x="547" 
d="M193 1135l-271 322h320l205 -322h-254zM408 992v-992h-268v992h268z" />
    <glyph glyph-name="iacute" unicode="&#xed;" horiz-adv-x="547" 
d="M350 1135h-255l206 322h320zM408 992v-992h-268v992h268z" />
    <glyph glyph-name="icircumflex" unicode="&#xee;" horiz-adv-x="547" 
d="M658 1124h-259l-126 157l-125 -157h-259l224 323h322zM408 992v-992h-268v992h268z" />
    <glyph glyph-name="idieresis" unicode="&#xef;" horiz-adv-x="547" 
d="M492 1458q72 0 122 -50t50 -122t-50 -121t-122 -49t-121 49t-49 121t49 122t121 50zM50 1116q-74 0 -122 49t-48 121t49 122t121 50t123 -50q49 -50 49 -122t-50 -121t-122 -49zM408 992v-992h-268v992h268z" />
    <glyph glyph-name="eth" unicode="&#xf0;" horiz-adv-x="1222" 
d="M614 730q-114 0 -188 -72t-75 -186q0 -114 75 -186q74 -72 188 -73q114 0 189 73q75 72 75 186t-74 186q-76 72 -190 72zM613 -26q-230 0 -382 142t-152 354t138 354q138 141 340 142q147 0 253 -89q-72 134 -215 242l-230 -141l-90 142l162 101q-69 39 -163 79l142 190
q143 -57 252 -130l200 124l90 -144l-147 -91q169 -155 251 -351t82 -409q0 -215 -150 -365q-151 -150 -381 -150z" />
    <glyph glyph-name="ntilde" unicode="&#xf1;" horiz-adv-x="1210" 
d="M752 1363q53 0 127 69l142 -153q-105 -135 -269 -135q-90 0 -204 54q-38 18 -63 17q-53 1 -127 -67l-141 152q103 134 268 135q95 0 206 -54q37 -18 61 -18zM679 1019q183 0 291 -108t108 -279v-632h-267v546q0 106 -51 164q-50 58 -142 58t-151 -58t-59 -166v-544h-268
v992h260v-116q96 143 279 143z" />
    <glyph glyph-name="ograve" unicode="&#xf2;" horiz-adv-x="1229" 
d="M534 1135l-271 322h320l205 -322h-254zM614 770q-114 0 -188 -77t-75 -197q0 -120 75 -196q74 -77 188 -77t189 77t76 197q1 121 -75 197t-190 76zM614 1019q230 0 384 -149t154 -373q0 -223 -153 -373t-384 -150t-384 149t-153 373t153 374q153 149 383 149z" />
    <glyph glyph-name="oacute" unicode="&#xf3;" horiz-adv-x="1229" 
d="M691 1135h-255l206 322h320zM614 770q-114 0 -188 -77t-75 -197q0 -120 75 -196q74 -77 188 -77t189 77t76 197q1 121 -75 197t-190 76zM614 1019q230 0 384 -149t154 -373q0 -223 -153 -373t-384 -150t-384 149t-153 373t153 374q153 149 383 149z" />
    <glyph glyph-name="ocircumflex" unicode="&#xf4;" horiz-adv-x="1229" 
d="M999 1124h-259l-126 157l-125 -157h-259l224 323h322zM614 770q-114 0 -188 -77t-75 -197q0 -120 75 -196q74 -77 188 -77t189 77t76 197q1 121 -75 197t-190 76zM614 1019q230 0 384 -149t154 -373q0 -223 -153 -373t-384 -150t-384 149t-153 373t153 374
q153 149 383 149z" />
    <glyph glyph-name="otilde" unicode="&#xf5;" horiz-adv-x="1229" 
d="M745 1363q53 0 127 69l143 -153q-105 -135 -270 -135q-89 0 -203 54q-38 18 -63 17q-53 1 -127 -67l-141 152q103 134 268 135q92 0 206 -54q37 -18 60 -18zM614 770q-114 0 -188 -77t-75 -197q0 -120 75 -196q74 -77 188 -77t189 77t76 197q1 121 -75 197t-190 76z
M614 1019q230 0 384 -149t154 -373q0 -223 -153 -373t-384 -150t-384 149t-153 373t153 374q153 149 383 149z" />
    <glyph glyph-name="odieresis" unicode="&#xf6;" horiz-adv-x="1229" 
d="M834 1458q72 0 122 -50t49 -122q0 -72 -50 -121q-51 -49 -123 -49t-121 49t-49 121t50 122t122 50zM391 1458q72 0 122 -50t50 -122q1 -72 -49 -121t-122 -49t-122 49q-49 49 -49 121t49 122t121 50zM614 770q-114 0 -188 -77t-75 -197q0 -120 75 -196q74 -77 188 -77
t189 77t76 197q1 121 -75 197t-190 76zM614 1019q230 0 384 -149t154 -373q0 -223 -153 -373t-384 -150t-384 149t-153 373t153 374q153 149 383 149z" />
    <glyph glyph-name="divide" unicode="&#xf7;" 
d="M615 362q68 0 118 -50q49 -50 49 -116q0 -68 -50 -118t-117 -50t-117 50t-51 118q0 68 50 117t118 49zM615 1083q68 0 118 -49q49 -48 49 -116t-50 -118t-117 -50t-117 50t-51 118q0 68 50 116t118 49zM1085 670v-229h-942v229h942z" />
    <glyph glyph-name="oslash" unicode="&#xf8;" horiz-adv-x="1229" 
d="M886 497q0 56 -20 108l-365 -364q53 -24 114 -24q115 0 193 79t78 201zM615 776q-117 0 -193 -79t-76 -200q0 -58 20 -111l365 366q-56 24 -116 24zM615 1019q162 0 292 -79l105 103l152 -151l-100 -100q88 -130 88 -295q0 -223 -153 -373t-384 -150q-161 0 -290 77
l-104 -103l-153 151l99 101q-88 130 -88 297q0 224 152 373q153 149 384 149z" />
    <glyph glyph-name="ugrave" unicode="&#xf9;" horiz-adv-x="1203" 
d="M521 1135l-270 322h319l206 -322h-255zM1071 992v-569q0 -229 -137 -339t-332 -110q-249 0 -376 156q-94 111 -94 293v569h267v-546q-1 -114 55 -168t148 -55q92 0 148 55q55 55 55 168v546h266z" />
    <glyph glyph-name="uacute" unicode="&#xfa;" horiz-adv-x="1203" 
d="M679 1135h-255l206 322h319zM1071 992v-569q0 -229 -137 -339t-332 -110q-249 0 -376 156q-94 111 -94 293v569h267v-546q-1 -114 55 -168t148 -55q92 0 148 55q55 55 55 168v546h266z" />
    <glyph glyph-name="ucircumflex" unicode="&#xfb;" horiz-adv-x="1203" 
d="M987 1124h-259l-126 157l-125 -157h-259l223 323h323zM1071 992v-569q0 -229 -137 -339t-332 -110q-249 0 -376 156q-94 111 -94 293v569h267v-546q-1 -114 55 -168t148 -55q92 0 148 55q55 55 55 168v546h266z" />
    <glyph glyph-name="udieresis" unicode="&#xfc;" horiz-adv-x="1203" 
d="M820 1116q-74 0 -122 49t-48 121t49 122t121 50t123 -50q49 -50 49 -122t-50 -121t-122 -49zM379 1458q72 0 122 -50t50 -122t-50 -121t-122 -49t-121 49t-49 121t49 122t121 50zM1071 992v-569q0 -229 -137 -339t-332 -110q-249 0 -376 156q-94 111 -94 293v569h267
v-546q-1 -114 55 -168t148 -55q92 0 148 55q55 55 55 168v546h266z" />
    <glyph glyph-name="yacute" unicode="&#xfd;" horiz-adv-x="1155" 
d="M662 1135h-255l205 322h320zM1146 992l-759 -1406h-293l347 625l-428 781h303l273 -510l264 510h293z" />
    <glyph glyph-name="thorn" unicode="&#xfe;" horiz-adv-x="1256" 
d="M650 770q-114 0 -186 -77q-71 -77 -71 -196t71 -196q72 -77 186 -77t184 78t70 195t-70 195t-184 78zM710 1019q194 0 331 -150q138 -151 138 -373t-138 -372q-137 -150 -331 -150t-302 127v-511h-268v1885h268v-584q108 128 302 128z" />
    <glyph glyph-name="ydieresis" unicode="&#xff;" horiz-adv-x="1155" 
d="M803 1458q72 0 122 -50t50 -122t-50 -121t-122 -49t-121 49t-49 121t49 122t121 50zM361 1116q-73 0 -121 49t-49 121q0 72 49 122q50 50 122 50t122 -50t50 -122t-50 -121t-123 -49zM1146 992l-759 -1406h-293l347 625l-428 781h303l273 -510l264 510h293z" />
    <glyph glyph-name="dotlessi" unicode="&#x131;" horiz-adv-x="547" 
d="M408 992v-992h-268v992h268z" />
    <glyph glyph-name="IJ" unicode="&#x132;" horiz-adv-x="1767" 
d="M1613 1434v-912q1 -262 -141 -405t-373 -143q-295 0 -458 199l166 208q109 -133 278 -133q117 0 180 75q62 75 62 226v885h286zM449 1434v-1434h-286v1434h286z" />
    <glyph glyph-name="ij" unicode="&#x133;" horiz-adv-x="1099" 
d="M272 1489q72 0 122 -50t50 -122t-50 -121t-122 -49t-120 49q-48 50 -50 122q0 72 49 122t121 49zM408 992v-992h-268v992h268zM823 1489q72 0 122 -50q49 -50 49 -122t-49 -121t-121 -49t-122 49q-49 50 -49 122t49 122t121 49zM959 992v-1086q1 -160 -83 -249t-225 -88
q-89 0 -150 27l40 234q34 -12 71 -12q80 0 80 103v1071h267z" />
    <glyph glyph-name="Lslash" unicode="&#x141;" horiz-adv-x="1347" 
d="M1315 267v-267h-1044v435l-174 -96v288l174 96v711h286v-551l460 256v-288l-460 -256v-328h758z" />
    <glyph glyph-name="lslash" unicode="&#x142;" horiz-adv-x="734" 
d="M501 1475v-498l191 121v-268l-191 -120v-710h-268v542l-191 -121v267l191 121v666h268z" />
    <glyph glyph-name="OE" unicode="&#x152;" horiz-adv-x="2272" 
d="M842 1166q-218 0 -334 -123t-116 -327t115 -326t335 -123h229v899h-229zM2142 262v-262h-1303q-337 0 -541 197t-204 521t204 520t541 196h1295v-263h-777v-317h741v-262h-741v-330h785z" />
    <glyph glyph-name="oe" unicode="&#x153;" horiz-adv-x="1940" 
d="M1594 590q-40 198 -219 198q-89 0 -145 -52t-75 -146h439zM614 770q-114 0 -188 -77t-75 -197q0 -120 75 -196q74 -77 188 -77t189 77t76 197q1 121 -75 197t-190 76zM1408 202q139 0 252 95l157 -172q-166 -151 -421 -151t-391 177q-71 -83 -172 -130t-219 -47
q-230 0 -383 149t-153 373t153 374q153 149 388 149t386 -177q135 177 362 177q227 -1 361 -145t135 -376q0 -52 -5 -90h-704q20 -102 88 -154t166 -52z" />
    <glyph glyph-name="Scaron" unicode="&#x160;" horiz-adv-x="1385" 
d="M356 1867h259l125 -157l126 157h259l-223 -323h-322zM729 1194q-123 0 -199 -46t-76 -125t86 -113q66 -29 211 -54l80 -13q457 -75 457 -402q0 -115 -48 -205t-130 -147q-165 -113 -409 -115q-168 0 -330 49t-274 139l149 230q84 -66 205 -110t247 -44t207 46
q79 46 79 122t-72 112t-232 61l-91 14q-437 69 -437 411q0 108 46 196q86 163 307 228q102 30 236 30q275 0 530 -152l-135 -234q-198 122 -407 122z" />
    <glyph glyph-name="scaron" unicode="&#x161;" horiz-adv-x="1038" 
d="M160 1447h259l125 -157l126 157h259l-223 -323h-323zM383 708q0 -40 40 -57t122 -29l88 -14q335 -51 335 -297q0 -155 -121 -245t-335 -92q-276 0 -441 117l105 203q146 -97 334 -97t187 93q0 36 -39 58t-126 33l-80 11q-343 47 -343 301q0 153 111 239t320 86t402 -94
l-90 -208q-160 79 -316 81q-75 0 -114 -24q-39 -25 -39 -65z" />
    <glyph glyph-name="Ydieresis" unicode="&#x178;" horiz-adv-x="1394" 
d="M922 1878q72 0 122 -50t50 -122t-50 -121t-122 -49t-121 49t-49 121t49 122t121 50zM480 1536q-74 0 -122 49t-48 121t49 122t121 50t123 -50q49 -50 49 -122t-50 -121t-122 -49zM844 0h-286v566l-552 868h336l360 -609l361 609h326l-545 -869v-565z" />
    <glyph glyph-name="Zcaron" unicode="&#x17d;" horiz-adv-x="1318" 
d="M276 1867h260l124 -157l126 157h260l-224 -323h-322zM1222 1434v-224l-745 -947h745v-263h-1125v223l745 947h-743v264h1123z" />
    <glyph glyph-name="zcaron" unicode="&#x17e;" horiz-adv-x="1064" 
d="M152 1447h259l125 -157l126 157h259l-224 -323h-322zM955 992v-195l-489 -558h501v-239h-869v193l501 562h-483v237h839z" />
    <glyph glyph-name="longs" unicode="&#x17f;" horiz-adv-x="671" 
d="M133 1115q0 177 92 281t263 104t306 -89l-108 -208q-87 48 -170 48q-117 0 -117 -139v-1112h-266v1115z" />
    <glyph glyph-name="florin" unicode="&#x192;" horiz-adv-x="1433" 
d="M1114 855v-225h-275l-28 -285q-17 -182 -100 -276q-83 -95 -243 -95t-286 78l104 202q78 -39 143 -39t90 35t32 109l27 271h-234v225h256l24 237q18 181 100 274t242 93t285 -78l-103 -201q-78 39 -144 39t-90 -35q-25 -35 -31 -110l-22 -219h253z" />
    <glyph glyph-name="uni0237" unicode="&#x237;" horiz-adv-x="551" 
d="M412 992v-1086q0 -160 -84 -249t-225 -88q-89 0 -150 27l40 234q34 -12 72 -12q80 0 79 103v1071h268z" />
    <glyph glyph-name="uni02BB" unicode="&#x2bb;" horiz-adv-x="546" 
d="M392 864h-300l144 611h225z" />
    <glyph glyph-name="afii57929" unicode="&#x2bc;" horiz-adv-x="546" 
d="M155 1475h300l-144 -611h-225z" />
    <glyph glyph-name="uni02BE" unicode="&#x2be;" horiz-adv-x="556" 
d="M115 683v228q69 1 119 53t49 124q0 72 -50 125q-50 52 -118 53v225q167 0 285 -118t118 -286t-118 -286t-285 -118z" />
    <glyph glyph-name="uni02BF" unicode="&#x2bf;" horiz-adv-x="556" 
d="M441 1490v-228q-69 0 -119 -52t-49 -126q0 -73 50 -125t118 -52v-225q-167 0 -285 118t-118 286t118 286t285 118z" />
    <glyph glyph-name="circumflex" unicode="&#x2c6;" horiz-adv-x="1094" 
d="M933 1124h-258l-126 157l-125 -157h-259l223 323h323z" />
    <glyph glyph-name="caron" unicode="&#x2c7;" horiz-adv-x="1094" 
d="M165 1447h258l126 -157l125 157h259l-223 -323h-323z" />
    <glyph glyph-name="breve" unicode="&#x2d8;" horiz-adv-x="1094" 
d="M547 1324q137 0 188 168l204 -59q-41 -157 -142 -240t-249 -83t-249 83t-143 240l203 59q51 -168 188 -168z" />
    <glyph glyph-name="dotaccent" unicode="&#x2d9;" horiz-adv-x="621" 
d="M310 1489q72 0 122 -50t50 -122t-50 -121q-49 -49 -122 -49q-74 0 -122 49q-48 50 -48 122t49 122t121 49z" />
    <glyph glyph-name="ring" unicode="&#x2da;" horiz-adv-x="1024" 
d="M512 1254q44 0 77 32t33 80q0 46 -32 78t-78 32q-44 0 -76 -32t-32 -78t32 -80q32 -32 76 -32zM512 1102q-112 0 -189 77q-78 77 -78 187t78 186q77 77 189 77t190 -77q78 -76 78 -186t-78 -187t-190 -77z" />
    <glyph glyph-name="ogonek" unicode="&#x2db;" horiz-adv-x="1131" 
d="M837 12q-206 -75 -206 -152t84 -77q60 0 114 46l140 -152q-115 -106 -263 -106t-231 67q-82 68 -82 174t75 177t218 125z" />
    <glyph glyph-name="tilde" unicode="&#x2dc;" horiz-adv-x="1094" 
d="M681 1363q53 0 127 69l142 -153q-105 -135 -269 -135q-90 0 -204 54q-38 18 -62 17q-53 1 -127 -67l-142 152q103 134 269 135q94 0 205 -54q37 -18 61 -18z" />
    <glyph glyph-name="hungarumlaut" unicode="&#x2dd;" horiz-adv-x="1094" 
d="M323 1135h-255l205 322h320zM757 1135h-255l206 322h319z" />
    <glyph glyph-name="gravecomb" unicode="&#x300;" horiz-adv-x="1" 
d="M-696 1135l-271 322h320l206 -322h-255z" />
    <glyph glyph-name="acutecomb" unicode="&#x301;" horiz-adv-x="1" 
d="M-539 1135h-255l206 322h320z" />
    <glyph glyph-name="uni0302" unicode="&#x302;" horiz-adv-x="1" 
d="M-230 1124h-259l-126 157l-125 -157h-259l223 323h322z" />
    <glyph glyph-name="tildecomb" unicode="&#x303;" horiz-adv-x="1" 
d="M-484 1363q53 0 127 69l142 -153q-105 -135 -269 -135q-90 0 -204 54q-38 18 -63 17q-53 1 -127 -67l-141 152q103 134 268 135q95 0 206 -54q37 -18 61 -18z" />
    <glyph glyph-name="uni0304" unicode="&#x304;" horiz-adv-x="1" 
d="M-954 1179v214h676v-214h-676z" />
    <glyph glyph-name="uni0306" unicode="&#x306;" horiz-adv-x="1" 
d="M-616 1324q136 0 189 168l204 -59q-41 -157 -143 -240t-249 -83t-249 83t-144 240l204 59q52 -168 188 -168z" />
    <glyph glyph-name="uni0307" unicode="&#x307;" horiz-adv-x="1" 
d="M-616 1489q72 0 122 -50t49 -122q1 -72 -49 -121t-122 -49t-121 49q-49 50 -49 122t49 122t121 49z" />
    <glyph glyph-name="uni0308" unicode="&#x308;" horiz-adv-x="1" 
d="M-397 1458q72 0 122 -50t50 -122t-50 -121t-122 -49t-121 49t-49 121t49 122t121 50zM-839 1116q-73 0 -121 49t-49 121q0 72 49 122q50 50 122 50t122 -50t50 -122t-50 -121t-123 -49z" />
    <glyph glyph-name="uni030A" unicode="&#x30a;" horiz-adv-x="1" 
d="M-724 1366q0 -46 32 -80q32 -32 76 -32t77 32q32 32 32 80q0 46 -32 78t-76 32q-45 0 -77 -32t-32 -78zM-615 1629q111 0 189 -77q78 -76 79 -186q-1 -110 -79 -187t-190 -77t-189 77q-79 77 -79 187t79 186q79 77 190 77z" />
    <glyph glyph-name="uni030B" unicode="&#x30b;" horiz-adv-x="1" 
d="M-686 1135h-258l198 322h283zM-300 1135h-260l222 322h291z" />
    <glyph glyph-name="uni030C" unicode="&#x30c;" horiz-adv-x="1" 
d="M-999 1447h259l125 -157l126 157h259l-224 -323h-322z" />
    <glyph glyph-name="uni0312" unicode="&#x312;" horiz-adv-x="1" 
d="M-483 1135h-273l94 398h222z" />
    <glyph glyph-name="dotbelowcomb" unicode="&#x323;" horiz-adv-x="1" 
d="M-614 -105q72 0 122 -50q50 -51 49 -123q1 -72 -49 -120t-122 -49q-72 1 -121 49t-49 120t49 123q49 50 121 50z" />
    <glyph glyph-name="uni0326" unicode="&#x326;" horiz-adv-x="1" 
d="M-736 -86h271l-94 -398h-221z" />
    <glyph glyph-name="uni0327" unicode="&#x327;" horiz-adv-x="1" 
d="M-432 7l-106 -336h-258l114 336h250z" />
    <glyph glyph-name="uni0328" unicode="&#x328;" horiz-adv-x="1" 
d="M-660 -146q0 -71 95 -71q49 0 103 46l139 -152q-115 -106 -265 -106t-234 62t-84 166t86 173t256 125l66 -56q-164 -87 -162 -187z" />
    <glyph glyph-name="uni032E" unicode="&#x32e;" horiz-adv-x="1" 
d="M-616 -245q136 0 190 168l204 -59q-42 -157 -144 -240t-248 -83q-147 0 -249 83t-144 240l204 59q51 -168 187 -168z" />
    <glyph glyph-name="uni0331" unicode="&#x331;" horiz-adv-x="1" 
d="M-953 -376v215h678v-215h-678z" />
    <glyph glyph-name="uni0335" unicode="&#x335;" horiz-adv-x="1" 
d="M-237 651v-223h-757v223h757z" />
    <glyph glyph-name="uni0336" unicode="&#x336;" horiz-adv-x="1" 
d="M163 651v-223h-1557v223h1557z" />
    <glyph glyph-name="uni0394" unicode="&#x394;" horiz-adv-x="1420" 
d="M710 1152l-332 -885h663zM1355 0h-1289v223l471 1211h347l471 -1211v-223z" />
    <glyph glyph-name="uni03A9" unicode="&#x3a9;" horiz-adv-x="1742" 
d="M1624 740q0 -289 -205 -480h258v-260h-660v231q141 45 225 170t84 299q0 214 -127 350t-327 136t-328 -135q-127 -135 -127 -351q0 -174 84 -299t225 -170v-231h-660v260h258q-205 192 -205 480q0 206 95 370t268 257q174 93 390 93t389 -93t268 -257t95 -370z" />
    <glyph glyph-name="uni03BC" unicode="&#x3bc;" horiz-adv-x="1210" 
d="M391 -410h-259v1402h267v-546q0 -106 51 -164q50 -58 142 -58t151 58t60 167v543h267v-992h-260v117q-96 -143 -292 -144q-69 0 -127 19v-402z" />
    <glyph glyph-name="pi" unicode="&#x3c0;" horiz-adv-x="1212" 
d="M1080 992v-992h-266v755h-406v-755h-268v992h940z" />
    <glyph glyph-name="uni1E9E" unicode="&#x1e9e;" horiz-adv-x="1481" 
d="M1089 411q-1 87 -79 131t-226 44h-106v202l287 348q-79 58 -225 58t-226 -76t-81 -202v-916h-287v928q0 172 91 309t282 193q102 30 227 29q206 0 348 -69t242 -197l-322 -383q171 -38 272 -142t102 -257q0 -199 -156 -318t-396 -119q-158 0 -265 26l52 260
q80 -22 169 -21q297 0 297 172z" />
    <glyph glyph-name="uni2007" unicode="&#x2007;" horiz-adv-x="1445" 
 />
    <glyph glyph-name="uni2008" unicode="&#x2008;" horiz-adv-x="567" 
 />
    <glyph glyph-name="uni2009" unicode="&#x2009;" horiz-adv-x="168" 
 />
    <glyph glyph-name="uni200B" unicode="&#x200b;" horiz-adv-x="0" 
 />
    <glyph glyph-name="uni2010" unicode="&#x2010;" horiz-adv-x="832" 
d="M719 662v-234h-605v234h605z" />
    <glyph glyph-name="uni2011" unicode="&#x2011;" horiz-adv-x="832" 
d="M719 662v-234h-605v234h605z" />
    <glyph glyph-name="figuredash" unicode="&#x2012;" 
d="M1110 659v-228h-991v228h991z" />
    <glyph glyph-name="endash" unicode="&#x2013;" horiz-adv-x="1185" 
d="M1089 659v-228h-992v228h992z" />
    <glyph glyph-name="emdash" unicode="&#x2014;" horiz-adv-x="1634" 
d="M1585 659v-228h-1536v228h1536z" />
    <glyph glyph-name="quoteleft" unicode="&#x2018;" horiz-adv-x="546" 
d="M392 864h-300l144 611h225z" />
    <glyph glyph-name="quoteright" unicode="&#x2019;" horiz-adv-x="546" 
d="M155 1475h300l-144 -611h-225z" />
    <glyph glyph-name="quotesinglbase" unicode="&#x201a;" horiz-adv-x="546" 
d="M155 324h300l-144 -611h-225z" />
    <glyph glyph-name="quotedblleft" unicode="&#x201c;" horiz-adv-x="991" 
d="M837 864h-300l143 611h225zM392 864h-300l144 611h225z" />
    <glyph glyph-name="quotedblright" unicode="&#x201d;" horiz-adv-x="990" 
d="M155 1475h300l-144 -611h-225zM598 1475h300l-143 -611h-226z" />
    <glyph glyph-name="quotedblbase" unicode="&#x201e;" horiz-adv-x="990" 
d="M155 324h300l-144 -611h-225zM598 324h300l-143 -611h-226z" />
    <glyph glyph-name="dagger" unicode="&#x2020;" horiz-adv-x="815" 
d="M512 616h-209v433h-221v203h221v223h209v-223h221v-203h-221v-433z" />
    <glyph glyph-name="daggerdbl" unicode="&#x2021;" horiz-adv-x="815" 
d="M512 1475v-170h221v-196h-221v-134h221v-196h-221v-170h-209v170h-221v196h221v134h-221v196h221v170h209z" />
    <glyph glyph-name="bullet" unicode="&#x2022;" horiz-adv-x="904" 
d="M128 545q0 135 95 229t229 95q134 -1 230 -95q95 -94 95 -229t-95 -230q-96 -95 -230 -95t-229 95t-95 230z" />
    <glyph glyph-name="uni2023" unicode="&#x2023;" horiz-adv-x="1029" 
d="M945 546l-762 -443v883z" />
    <glyph glyph-name="ellipsis" unicode="&#x2026;" horiz-adv-x="1700" 
d="M1417 372q80 0 139 -59q60 -59 60 -139t-60 -140t-139 -60q-80 0 -139 60t-59 140t59 139t139 59zM850 372q80 0 139 -59t59 -139t-58 -140q-60 -60 -140 -60t-139 60q-60 60 -60 140t60 139q59 59 139 59zM284 372q80 0 139 -59t59 -139t-59 -140t-139 -60t-139 60
q-60 60 -60 140t60 139q59 59 139 59z" />
    <glyph glyph-name="perthousand" unicode="&#x2030;" horiz-adv-x="2903" 
d="M2601 366q0 78 -49 128t-124 49q-76 0 -124 -50t-48 -127t49 -127q49 -51 123 -51t124 50q49 50 49 128zM2428 757q172 0 286 -112q114 -111 114 -279t-114 -280t-286 -112t-286 112t-114 280t114 279q114 112 286 112zM1552 543q-76 0 -124 -50q-48 -49 -49 -127
q0 -78 49 -128t124 -50t124 50t48 128q0 78 -48 128t-124 49zM1551 757q171 0 286 -113q115 -114 115 -280t-114 -278t-286 -112t-286 112t-114 279t114 279t285 113zM1626 1434l-960 -1434h-269l962 1434h267zM476 1245q-75 1 -124 -49t-49 -128t49 -127q49 -50 124 -50
t124 50q48 49 48 127t-48 128q-49 49 -124 49zM76 1068q0 168 114 280t286 111q172 0 285 -111q115 -112 115 -280t-114 -280t-286 -112t-286 112t-114 280z" />
    <glyph glyph-name="minute" unicode="&#x2032;" horiz-adv-x="579" 
d="M234 1434h253l-148 -698h-253z" />
    <glyph glyph-name="second" unicode="&#x2033;" horiz-adv-x="966" 
d="M234 1434h253l-148 -698h-253zM622 1434h252l-148 -698h-253z" />
    <glyph glyph-name="uni2034" unicode="&#x2034;" horiz-adv-x="1312" 
d="M234 1434h253l-148 -698h-253zM968 1434h253l-149 -698h-253zM601 1434h253l-148 -698h-253z" />
    <glyph glyph-name="guilsinglleft" unicode="&#x2039;" horiz-adv-x="653" 
d="M359 545l198 -400h-269l-198 400l198 399h269z" />
    <glyph glyph-name="guilsinglright" unicode="&#x203a;" horiz-adv-x="653" 
d="M294 546l-198 399h270l197 -399l-197 -400h-270z" />
    <glyph glyph-name="fraction" unicode="&#x2044;" horiz-adv-x="487" 
d="M819 1434l-904 -1434h-247l904 1434h247z" />
    <glyph glyph-name="uni2070" unicode="&#x2070;" horiz-adv-x="922" 
d="M462 1255q-74 0 -122 -63q-47 -63 -47 -179t47 -180q48 -64 122 -64t121 64t47 180t-47 179t-121 63zM462 1448q162 0 270 -118t108 -318t-108 -317q-108 -118 -271 -118t-271 118q-108 117 -108 317t109 318t271 118z" />
    <glyph glyph-name="uni2071" unicode="&#x2071;" horiz-adv-x="402" 
d="M201 1652q53 0 89 -36t36 -88q0 -53 -36 -89t-89 -36t-89 36q-35 36 -35 89q-1 52 35 88t89 36zM300 1298v-706h-198v706h198z" />
    <glyph glyph-name="uni2074" unicode="&#x2074;" horiz-adv-x="750" 
d="M611 1141v-227h107v-181h-107v-141h-201v141h-377v141l277 559h221l-261 -519h140v104l61 123h140z" />
    <glyph glyph-name="uni2075" unicode="&#x2075;" horiz-adv-x="764" 
d="M638 1434v-185h-334l-3 -128h73q152 -1 234 -69t82 -192t-92 -203q-92 -80 -234 -80q-192 0 -310 114l106 144q36 -30 92 -53q56 -22 111 -22q56 0 88 25q31 26 30 70q0 92 -149 92h-212l11 487h507z" />
    <glyph glyph-name="uni2076" unicode="&#x2076;" horiz-adv-x="772" 
d="M384 984q-53 0 -88 -32t-35 -82t35 -84q35 -32 88 -32t88 32t35 83t-35 83t-88 32zM411 1151q141 0 224 -80t83 -204t-95 -207t-238 -83q-143 -1 -239 81t-96 201t86 243l226 332h242l-206 -283h13z" />
    <glyph glyph-name="uni2077" unicode="&#x2077;" horiz-adv-x="712" 
d="M671 1434v-158l-336 -684h-240l337 654h-382v188h621z" />
    <glyph glyph-name="uni2078" unicode="&#x2078;" horiz-adv-x="829" 
d="M414 1276q-48 0 -78 -24t-30 -65t30 -65t78 -24t78 24t30 66t-30 64q-30 24 -78 24zM414 940q-54 0 -88 -26q-35 -26 -35 -70t35 -71q34 -27 88 -27t89 26t35 72q0 44 -34 70q-36 26 -90 26zM92 1196q0 120 92 186t230 66t230 -66t92 -186t-129 -179q151 -58 151 -196
q0 -113 -99 -179t-245 -66t-245 67q-98 67 -98 178q0 137 149 196q-128 59 -128 179z" />
    <glyph glyph-name="uni2079" unicode="&#x2079;" horiz-adv-x="772" 
d="M387 1041q53 1 88 33t35 82t-35 82t-88 33q-53 0 -88 -32q-35 -33 -35 -83t35 -82t88 -33zM360 874q-141 0 -224 80t-83 203q0 124 95 207q95 84 238 84t239 -81t96 -201t-85 -243l-227 -331h-242l205 282h-12z" />
    <glyph glyph-name="uni207F" unicode="&#x207f;" horiz-adv-x="868" 
d="M491 1318q129 0 205 -76t76 -199v-451h-200v388q0 74 -34 113t-96 39t-102 -40t-40 -113v-387h-199v706h193v-81q68 101 197 101z" />
    <glyph glyph-name="uni2080" unicode="&#x2080;" horiz-adv-x="922" 
d="M462 269q-74 0 -122 -63q-47 -63 -47 -179t47 -180q48 -64 122 -64t121 64t47 180t-47 179t-121 63zM462 462q162 0 270 -118t108 -318t-108 -317q-108 -119 -271 -119t-271 118t-108 318t109 318t271 118z" />
    <glyph glyph-name="uni2081" unicode="&#x2081;" horiz-adv-x="566" 
d="M433 -394h-202v578l-189 -69v196l391 150v-855z" />
    <glyph glyph-name="uni2082" unicode="&#x2082;" horiz-adv-x="742" 
d="M346 269q-84 0 -170 -88l-122 132q121 148 314 149q136 0 217 -74t81 -198q0 -73 -32 -131t-103 -127l-147 -140h301v-186h-587v157l296 282q62 59 62 113t-30 83q-32 28 -80 28z" />
    <glyph glyph-name="uni2083" unicode="&#x2083;" horiz-adv-x="747" 
d="M346 -410q-198 0 -304 124l113 131q75 -77 181 -76q57 1 94 23t37 64t-42 66q-42 23 -106 23h-96v171h99q56 0 92 23t37 63q0 40 -32 61t-86 21q-104 0 -175 -79l-113 130q111 127 296 127q141 0 229 -67t88 -187t-123 -178q140 -56 141 -183t-96 -192t-234 -65z" />
    <glyph glyph-name="uni2084" unicode="&#x2084;" horiz-adv-x="750" 
d="M611 155v-227h107v-181h-107v-141h-201v141h-377v141l277 558h221l-261 -518h140v104l61 123h140z" />
    <glyph glyph-name="uni2085" unicode="&#x2085;" horiz-adv-x="764" 
d="M638 447v-184h-334l-3 -128h73q152 -1 234 -69t82 -192t-92 -203q-92 -80 -234 -81q-191 0 -310 115l106 143q36 -30 92 -52t111 -22q56 0 88 25q31 26 30 70q0 92 -149 92h-212l11 486h507z" />
    <glyph glyph-name="uni2086" unicode="&#x2086;" horiz-adv-x="772" 
d="M384 -2q-53 0 -88 -32t-35 -82t35 -84q35 -32 88 -32t88 32t35 83t-35 83t-88 32zM411 165q141 0 224 -80t83 -204t-95 -207q-95 -84 -238 -84t-239 82t-96 201t86 243l226 331h242l-206 -282h13z" />
    <glyph glyph-name="uni2087" unicode="&#x2087;" horiz-adv-x="712" 
d="M671 447v-157l-336 -684h-240l337 654h-382v187h621z" />
    <glyph glyph-name="uni2088" unicode="&#x2088;" horiz-adv-x="829" 
d="M414 290q-48 0 -78 -24t-30 -65t30 -65t78 -24t78 24t30 66t-30 64q-30 24 -78 24zM414 -46q-54 0 -88 -26q-35 -26 -35 -70t35 -72q34 -26 88 -26t89 26t35 72t-34 70q-36 26 -90 26zM92 210q0 120 92 186t230 66t230 -66t92 -186t-129 -179q151 -58 151 -196
q0 -113 -99 -179t-245 -66t-245 67q-98 67 -98 178q0 137 149 196q-128 59 -128 179z" />
    <glyph glyph-name="uni2089" unicode="&#x2089;" horiz-adv-x="772" 
d="M387 55q53 1 88 33t35 82t-35 82t-88 32t-88 -32t-35 -82t35 -82t88 -33zM360 -112q-141 0 -224 80t-83 203q0 124 95 207q95 84 238 84t239 -82t96 -201q0 -120 -85 -242l-227 -331h-242l205 282h-12z" />
    <glyph glyph-name="Euro" unicode="&#x20ac;" horiz-adv-x="1433" 
d="M1068 648v-189h-519q48 -112 138 -173t205 -61q181 0 311 146l152 -199q-187 -198 -461 -198q-238 0 -407 129t-232 356h-178v189h147q-2 23 -2 69t2 68h-147v190h178q63 226 232 355t407 129q276 0 465 -194l-158 -203q-129 146 -310 146q-117 0 -206 -61t-137 -172h520
v-190h-565q-3 -33 -3 -69t3 -68h565z" />
    <glyph glyph-name="uni20BA" unicode="&#x20ba;" horiz-adv-x="1433" 
d="M594 262h168q114 0 200 56t153 180l224 -133q-103 -185 -246 -275t-351 -90h-425v358l-172 -76v201l172 77v134l-172 -77v202l172 77v540h277v-415l431 194v-201l-431 -195v-134l431 195v-202l-431 -195v-221z" />
    <glyph glyph-name="uni2100" unicode="&#x2100;" horiz-adv-x="2048" 
d="M1568 534q-79 0 -128 -52q-48 -52 -48 -136t48 -135t128 -51t141 70l145 -117q-105 -139 -280 -139t-280 105t-105 268t105 267t281 105q176 0 279 -138l-147 -117q-60 70 -139 70zM1639 1434l-904 -1434h-247l905 1434h246zM493 872q92 0 159 77v79h-133q-61 0 -90 -22
t-29 -56t23 -56q24 -22 70 -22zM508 1459q164 0 252 -79t88 -231v-416h-192v70q-86 -88 -208 -88t-188 62q-66 61 -66 163t78 161q79 58 217 58h158q-11 126 -151 126q-99 0 -193 -65l-77 150q118 89 282 89z" />
    <glyph glyph-name="uni2101" unicode="&#x2101;" horiz-adv-x="2048" 
d="M1535 554q-103 0 -103 -59q0 -27 28 -38t86 -20l61 -9q237 -37 236 -212q0 -114 -86 -178t-263 -64t-294 81l77 152q104 -69 235 -69t130 62q0 24 -27 38t-89 23l-53 7q-246 35 -246 216q0 111 80 172q79 62 227 62t291 -67l-64 -153q-123 56 -226 56zM1645 1434
l-905 -1434h-246l904 1434h247zM498 872q92 0 159 77v79h-133q-61 0 -90 -22q-30 -22 -30 -56t24 -56t70 -22zM512 1459q164 0 252 -79t89 -231v-416h-191v70q-86 -88 -208 -88t-188 62q-67 61 -67 163t79 160t217 59h157q-11 126 -151 126q-99 0 -193 -65l-77 150
q117 89 281 89z" />
    <glyph glyph-name="afii61248" unicode="&#x2105;" horiz-adv-x="2048" 
d="M1508 534q-78 0 -129 -52t-51 -135q0 -82 51 -135q51 -52 129 -52t129 52t52 135t-51 135t-130 52zM1508 719q165 0 274 -106q108 -106 108 -266t-108 -266q-108 -107 -274 -107q-165 0 -274 106t-109 267q0 160 109 266t274 106zM1584 1434l-904 -1434h-247l904 1434
h247zM538 1274q-80 0 -128 -52t-49 -136q1 -84 49 -134q48 -52 127 -52t142 71l145 -118q-105 -138 -280 -138t-280 105q-105 106 -105 268t105 266t281 105q176 0 279 -138l-147 -117q-59 70 -139 70z" />
    <glyph glyph-name="uni2106" unicode="&#x2106;" horiz-adv-x="2048" 
d="M1898 699v-404q0 -159 -95 -240t-237 -81t-240 79t-99 242v404h198v-387q-1 -76 37 -114t101 -38t100 38t38 114v387h197zM1576 1434l-904 -1434h-247l904 1434h247zM528 1274q-80 0 -128 -52t-48 -136t48 -134q48 -52 128 -52t142 71l145 -118q-105 -138 -281 -138
t-280 105q-104 106 -104 268t104 267q105 104 282 104t279 -138l-147 -117q-60 70 -140 70z" />
    <glyph glyph-name="afii61289" unicode="&#x2113;" horiz-adv-x="1070" 
d="M722 1147q0 56 -25 88t-73 32t-79 -46q-32 -46 -32 -132l-1 -280q210 159 210 338zM512 370q0 -146 150 -148q74 0 178 65l104 -203q-144 -101 -317 -101t-270 95q-96 96 -96 282v44q-63 -23 -79 -29l-79 224q76 27 158 64l2 436q1 178 101 290q100 111 257 111
q158 0 255 -96t97 -246q-1 -375 -461 -634v-154z" />
    <glyph glyph-name="afii61352" unicode="&#x2116;" horiz-adv-x="2499" 
d="M1445 1434v-1434h-268l-727 957l-1 -957h-286v1434h267l728 -958v958h287zM2230 1080q0 80 -50 132t-126 51q-76 1 -125 -51q-50 -52 -50 -132t50 -130q49 -52 125 -52t126 51t50 131zM2437 1080q0 -160 -109 -266q-110 -106 -274 -105q-164 0 -272 106
q-108 105 -109 265q1 160 109 266t272 107q164 0 274 -106q109 -107 109 -267zM2417 596v-222h-724v222h724z" />
    <glyph glyph-name="uni2117" unicode="&#x2117;" horiz-adv-x="1909" 
d="M1019 766q137 0 137 92t-137 93h-160v-185h160zM639 1144h384q171 0 264 -78t93 -206q0 -130 -92 -206t-263 -75h-166v-279h-220v844zM934 1329q-144 0 -284 -80q-140 -81 -220 -219q-82 -138 -82 -302t82 -303t221 -219t283 -81q274 0 450 176q81 81 129 193
q49 112 49 234t-49 234q-48 111 -129 192q-177 175 -450 175zM972 1555q154 1 311 -65t269 -177t179 -264t67 -321t-68 -322q-133 -308 -447 -441q-156 -66 -328 -66t-328 66q-316 134 -448 442q-67 155 -67 305q1 294 163 505q261 338 697 338z" />
    <glyph glyph-name="uni2120" unicode="&#x2120;" horiz-adv-x="1682" 
d="M1617 771h-182v429l-135 -367h-182l-136 368v-430h-181v663h255l153 -398l153 398h255v-663zM402 1295q-120 0 -118 -55q0 -30 45 -41q35 -10 100 -18l32 -4q108 -13 169 -61t61 -126q0 -117 -88 -175t-216 -58q-187 0 -305 76l82 138q109 -63 227 -63t118 57
q0 27 -32 39t-110 20l-37 4q-230 23 -230 203q0 92 82 153t222 61t269 -63l-73 -138q-112 51 -198 51z" />
    <glyph glyph-name="trademark" unicode="&#x2122;" horiz-adv-x="1658" 
d="M456 771h-182v497h-208v166h599v-166h-209v-497zM1593 771h-182v429l-134 -367h-182l-138 368v-430h-180v663h255l154 -398l152 398h255v-663z" />
    <glyph glyph-name="Omega" unicode="&#x2126;" horiz-adv-x="1742" 
d="M1624 740q0 -289 -205 -480h258v-260h-660v231q141 45 225 170t84 299q0 214 -127 350t-327 136t-328 -135q-127 -135 -127 -351q0 -174 84 -299t225 -170v-231h-660v260h258q-205 192 -205 480q0 206 95 370t268 257q174 93 390 93t389 -93t268 -257t95 -370z" />
    <glyph glyph-name="estimated" unicode="&#x212e;" horiz-adv-x="2048" 
d="M515 768h1030v303q0 191 -135 272q-178 108 -382 108t-374 -97q-76 -43 -108 -110t-31 -163v-313zM515 666v-314q0 -192 139 -272q170 -97 364 -97t354 82q159 82 257 229l83 -64q-113 -166 -294 -258q-180 -92 -372 -93q-372 0 -609 230q-112 108 -178 266t-66 342
t66 342q129 310 442 435q153 60 323 60t323 -60t265 -169q112 -108 177 -266q66 -158 66 -342q0 -35 -2 -51h-1338z" />
    <glyph glyph-name="uni214D" unicode="&#x214d;" horiz-adv-x="2102" 
d="M1699 1434l-904 -1434h-247l904 1434h247zM531 1247l-81 -260h163zM1731 224q1 30 -33 42t-121 24l-38 5q-253 31 -253 226q0 114 90 184t233 69q97 0 166 -18t144 -54l-82 -161q-109 58 -225 58t-117 -59q0 -36 59 -48l24 -5q14 -3 24 -5t28 -4q18 -3 28 -4l31 -5
q252 -39 251 -216q0 -91 -50 -153q-93 -115 -293 -114q-201 1 -331 88l92 159q126 -73 250 -73t123 64zM650 1434l272 -761h-210l-43 136h-276l-42 -136h-208l272 761h235z" />
    <glyph glyph-name="uni2150" unicode="&#x2150;" horiz-adv-x="1828" 
d="M433 592h-202v578l-189 -69v196l391 150v-855zM1787 842v-158l-336 -684h-240l337 654h-382v188h621zM1413 1434l-904 -1434h-247l904 1434h247z" />
    <glyph glyph-name="uni2151" unicode="&#x2151;" horiz-adv-x="1853" 
d="M433 592h-202v578l-189 -69v196l391 150v-855zM1468 450q53 0 88 32t35 82t-35 82t-88 33q-53 0 -88 -32q-34 -33 -34 -83t34 -82t88 -32zM1442 283q-141 0 -224 79t-83 203q0 123 95 207q96 84 238 84t238 -81t96 -201t-85 -243l-227 -331h-242l205 283h-11zM1413 1434
l-904 -1434h-247l904 1434h247z" />
    <glyph glyph-name="uni2152" unicode="&#x2152;" horiz-adv-x="2590" 
d="M433 592h-202v578l-189 -69v196l391 150v-855zM2298 421q0 115 -47 179t-121 64t-122 -64q-47 -64 -47 -179q0 -116 47 -180q48 -64 122 -64t121 64t47 180zM2130 856q162 0 270 -118t108 -318t-108 -317q-108 -118 -271 -118t-271 118q-108 117 -107 317q0 200 108 318
q109 118 271 118zM1535 0h-202v579l-189 -70v197l391 149v-855zM1413 1434l-904 -1434h-247l904 1434h247z" />
    <glyph glyph-name="onethird" unicode="&#x2153;" horiz-adv-x="1828" 
d="M433 592h-202v578l-189 -69v196l391 150v-855zM1758 241q0 -127 -97 -191t-234 -65q-198 0 -304 124l113 131q75 -77 181 -77q57 1 94 23t37 64t-42 66q-42 23 -105 23h-96v171h98q56 0 93 23q36 23 36 63t-32 61t-86 21q-104 0 -175 -79l-113 130q111 127 296 127
q141 0 230 -66q88 -68 88 -188t-124 -178q142 -56 142 -183zM1413 1434l-904 -1434h-247l904 1434h247z" />
    <glyph glyph-name="twothirds" unicode="&#x2154;" horiz-adv-x="2009" 
d="M346 1255q-84 0 -170 -88l-122 132q121 148 314 149q136 0 217 -74t81 -197q0 -73 -32 -131t-103 -127l-147 -141h301v-186h-587v158l296 281q62 59 62 113t-30 83q-32 28 -80 28zM1937 241q-1 -127 -97 -191t-233 -65q-198 0 -304 124l112 131q75 -77 181 -77
q57 0 95 22q37 23 37 65t-42 66q-42 23 -106 23h-96v171h98q56 0 93 23q36 23 36 63t-32 61t-86 21q-104 0 -175 -79l-112 130q112 127 296 127q141 0 229 -66t88 -188q0 -120 -124 -178q142 -56 142 -183zM1592 1434l-904 -1434h-247l905 1434h246z" />
    <glyph glyph-name="uni2155" unicode="&#x2155;" horiz-adv-x="1846" 
d="M433 592h-202v578l-189 -69v196l391 150v-855zM1719 842v-185h-334l-3 -128h73q151 -1 234 -69t83 -191t-92 -203t-235 -81q-191 0 -309 114l105 144q36 -30 92 -53q56 -22 112 -22t87 26t31 69q0 92 -150 92h-212l11 487h507zM1413 1434l-904 -1434h-247l904 1434h247z
" />
    <glyph glyph-name="uni2156" unicode="&#x2156;" horiz-adv-x="2025" 
d="M346 1255q-84 0 -170 -88l-122 132q121 148 314 149q136 0 217 -74t81 -197q0 -73 -32 -131t-103 -127l-147 -141h301v-186h-587v158l296 281q62 59 62 113t-30 83q-32 28 -80 28zM1898 842v-185h-333l-3 -128h72q151 -1 234 -69t83 -191t-92 -203t-235 -81
q-191 0 -309 114l105 144q36 -30 92 -53q56 -22 112 -22t87 26t31 69q0 92 -150 92h-212l12 487h506zM1592 1434l-904 -1434h-247l905 1434h246z" />
    <glyph glyph-name="uni2157" unicode="&#x2157;" horiz-adv-x="1999" 
d="M346 577q-198 0 -304 123l113 131q75 -77 181 -76q57 1 94 23t37 64t-42 66q-42 23 -106 23h-96v171h99q56 0 92 23t37 63q0 40 -32 61t-86 21q-104 0 -175 -79l-113 130q111 127 296 127q141 0 229 -67t88 -187t-123 -178q140 -56 141 -183t-96 -191t-234 -65zM1873 842
v-185h-334l-3 -128h73q151 -1 233 -69t83 -191q0 -123 -92 -203t-235 -81q-191 0 -309 114l106 144q35 -30 91 -53q56 -22 112 -22t88 26q31 26 30 69q0 92 -149 92h-212l11 487h507zM1567 1434l-904 -1434h-247l904 1434h247z" />
    <glyph glyph-name="uni2158" unicode="&#x2158;" horiz-adv-x="2004" 
d="M611 1141v-227h107v-181h-107v-141h-201v141h-377v141l277 559h221l-261 -519h140v104l61 123h140zM1879 842v-185h-334l-3 -128h73q151 -1 233 -69t83 -191q0 -123 -91 -204q-92 -80 -235 -80q-189 0 -310 114l106 144q35 -30 91 -53q56 -22 112 -22t88 26q31 26 30 69
q0 92 -149 92h-212l11 487h507zM1573 1434l-904 -1434h-247l904 1434h247z" />
    <glyph glyph-name="uni2159" unicode="&#x2159;" horiz-adv-x="1764" 
d="M433 592h-202v578l-189 -69v196l391 150v-855zM1376 392q-53 0 -88 -32t-35 -82t35 -83t88 -33t88 33t35 83t-35 82t-88 32zM1403 559q141 0 224 -80q83 -79 83 -203t-95 -208t-238 -83q-143 0 -239 82q-96 83 -96 201t86 242l227 332h241l-205 -283h12zM1413 1434
l-904 -1434h-247l904 1434h247z" />
    <glyph glyph-name="uni215A" unicode="&#x215a;" horiz-adv-x="1928" 
d="M638 1434v-185h-334l-3 -128h73q152 -1 234 -69t82 -192t-92 -203q-92 -80 -234 -80q-192 0 -310 114l106 144q36 -30 92 -53q56 -22 111 -22q56 0 88 25q31 26 30 70q0 92 -149 92h-212l11 487h507zM1539 392q-53 0 -88 -32t-35 -82t35 -83t88 -33t88 33t35 83t-35 82
t-88 32zM1566 559q141 0 224 -80q83 -79 83 -203t-95 -208t-238 -83q-143 0 -239 82q-96 83 -96 201t86 242l227 332h241l-206 -283h13zM1577 1434l-904 -1434h-247l904 1434h247z" />
    <glyph glyph-name="oneeighth" unicode="&#x215b;" horiz-adv-x="1890" 
d="M433 592h-202v578l-189 -69v196l391 150v-855zM1583 596q0 42 -30 64q-29 24 -77 24t-78 -24t-31 -65q0 -41 30 -65q29 -24 77 -24t78 24t31 66zM1599 252q0 44 -35 70q-34 26 -88 26t-90 -25q-34 -26 -34 -71t34 -71t89 -26q54 0 89 26t35 71zM1476 856q138 0 229 -66
q92 -66 92 -186t-129 -179q151 -58 151 -196q0 -113 -99 -179t-245 -66t-245 67q-98 67 -98 178q0 137 149 196q-128 59 -128 179t92 187q93 65 231 65zM1413 1434l-904 -1434h-247l904 1434h247z" />
    <glyph glyph-name="threeeighths" unicode="&#x215c;" horiz-adv-x="2043" 
d="M346 577q-198 0 -304 123l113 131q75 -77 181 -76q57 1 94 23t37 64t-42 66q-42 23 -106 23h-96v171h99q56 0 92 23t37 63q0 40 -32 61t-86 21q-104 0 -175 -79l-113 130q111 127 296 127q141 0 229 -67t88 -187t-123 -178q140 -56 141 -183t-96 -191t-234 -65zM1737 596
q-1 42 -31 64q-30 24 -78 24t-77 -24q-30 -24 -30 -65t30 -65t77 -24t78 24t31 66zM1628 348q-54 0 -88 -26q-35 -26 -35 -70q0 -45 35 -71q34 -26 88 -26t90 26q35 26 35 71t-35 71q-36 25 -90 25zM1307 604q0 120 92 186q91 66 229 66t231 -65q92 -67 92 -187t-129 -179
q151 -58 150 -196q0 -113 -99 -179t-245 -66t-245 67q-98 67 -98 178q0 137 150 196q-128 59 -128 179zM1567 1434l-904 -1434h-247l904 1434h247z" />
    <glyph glyph-name="fiveeighths" unicode="&#x215d;" horiz-adv-x="2053" 
d="M638 1434v-185h-334l-3 -128h73q152 -1 234 -69t82 -192t-92 -203q-92 -80 -234 -80q-192 0 -310 114l106 144q36 -30 92 -53q56 -22 111 -22q56 0 88 25q31 26 30 70q0 92 -149 92h-212l11 487h507zM1746 596q0 42 -30 64q-30 24 -78 24t-78 -24t-30 -65t30 -65t77 -24
t78 24t31 66zM1638 348q-54 0 -89 -26t-35 -70q0 -45 35 -71t89 -26t89 26t35 71t-35 71q-35 25 -89 25zM1316 604q0 120 92 186t230 66t230 -65q92 -67 92 -187t-129 -179q151 -58 150 -196q-1 -113 -99 -179t-244 -66t-245 68q-98 66 -99 177q0 137 150 196
q-128 59 -128 179zM1577 1434l-904 -1434h-247l904 1434h247z" />
    <glyph glyph-name="seveneighths" unicode="&#x215e;" horiz-adv-x="1885" 
d="M671 1434v-158l-336 -684h-240l337 654h-382v188h621zM1579 596q-1 42 -31 64q-30 24 -78 24t-77 -24q-30 -24 -30 -65t30 -65t77 -24t78 24t31 66zM1470 348q-54 0 -88 -26t-34 -70q0 -45 34 -71t88 -26t90 26q35 26 35 71t-35 71q-36 25 -90 25zM1149 604q0 120 92 186
q91 66 229 66t231 -65q92 -67 92 -187t-129 -179q151 -58 151 -196q0 -113 -99 -179q-100 -66 -246 -66t-244 68q-98 66 -99 177q0 137 150 196q-128 59 -128 179zM1409 1434l-904 -1434h-247l904 1434h247z" />
    <glyph glyph-name="uni215F" unicode="&#x215f;" horiz-adv-x="1081" 
d="M433 592h-202v578l-189 -69v196l391 150v-855zM1413 1434l-904 -1434h-247l904 1434h247z" />
    <glyph glyph-name="uni2189" unicode="&#x2189;" horiz-adv-x="2100" 
d="M462 1255q-74 0 -122 -63q-47 -63 -47 -179t47 -180q48 -64 122 -64t121 64t47 180t-47 179t-121 63zM462 1448q162 0 270 -118t108 -318t-108 -317q-108 -118 -271 -118t-271 118q-108 117 -108 317t109 318t271 118zM1803 596q-1 82 -111 82t-182 -79l-112 130
q112 127 296 127q141 0 229 -66t88 -188q0 -120 -124 -178q141 -56 142 -183t-96 -191t-234 -65q-198 0 -304 124l112 131q75 -77 182 -77q57 1 94 23t37 64t-42 66q-42 23 -106 23h-96v171h98q56 0 93 23q36 23 36 63zM1684 1434l-904 -1434h-246l904 1434h246z" />
    <glyph glyph-name="arrowleft" unicode="&#x2190;" horiz-adv-x="2048" 
d="M1873 561h-993q-169 0 -291 8q97 -79 270 -247l151 -150l-165 -165l-670 671l670 670l165 -165l-151 -149q-161 -159 -270 -249q122 9 291 10h993v-234z" />
    <glyph glyph-name="arrowup" unicode="&#x2191;" horiz-adv-x="2048" 
d="M907 -127v993q0 169 8 291q-88 -109 -247 -270l-150 -151l-164 165l670 670l670 -670l-164 -165l-150 151q-160 162 -247 270q8 -122 8 -291v-993h-234z" />
    <glyph glyph-name="arrowright" unicode="&#x2192;" horiz-adv-x="2048" 
d="M175 795h993q169 0 291 -10q-110 90 -270 249l-151 149l165 165l670 -670l-670 -671l-165 165l151 150q173 169 270 247q-122 -8 -291 -8h-993v234z" />
    <glyph glyph-name="arrowdown" unicode="&#x2193;" horiz-adv-x="2048" 
d="M1141 1571v-993q0 -169 -8 -291q88 109 247 270l150 151l164 -165l-670 -670l-670 670l164 165l150 -151q160 -162 247 -270q-8 122 -8 291v993h234z" />
    <glyph glyph-name="uni2196" unicode="&#x2196;" horiz-adv-x="2048" 
d="M382 347v948h947v-233l-212 1q-230 2 -366 16q106 -93 211 -199l703 -704l-165 -165l-702 704q-141 143 -200 211q13 -136 15 -367l1 -212h-232z" />
    <glyph glyph-name="uni2197" unicode="&#x2197;" horiz-adv-x="2048" 
d="M677 1278h948v-947h-233l1 212q0 211 15 366q-80 -92 -199 -211l-703 -703l-165 165l702 702q105 108 211 200q-135 -13 -365 -15l-212 -1v232z" />
    <glyph glyph-name="uni2198" unicode="&#x2198;" horiz-adv-x="2048" 
d="M1625 1025v-948h-948v233l212 -1q230 -2 366 -16q-106 93 -211 200l-703 703l166 165l702 -704q120 -120 200 -211q-14 134 -16 367l-1 212h233z" />
    <glyph glyph-name="uni2199" unicode="&#x2199;" horiz-adv-x="2048" 
d="M1330 59h-948v948h233l-1 -211q0 -210 -15 -367q66 76 199 211l703 703l165 -165l-702 -703q-105 -108 -211 -200q155 15 366 16l211 1v-233z" />
    <glyph glyph-name="partialdiff" unicode="&#x2202;" horiz-adv-x="1219" 
d="M610 730q-114 0 -188 -72t-75 -186q0 -114 75 -186q74 -72 188 -73q114 0 189 73q75 72 75 186t-75 186t-189 72zM608 -26q-232 0 -383 141t-151 353t137 355q138 142 343 143q142 0 249 -87q-137 248 -534 421l142 190q441 -172 625 -540q106 -212 106 -444t-151 -382
t-383 -150z" />
    <glyph glyph-name="uni2300" unicode="&#x2205;" horiz-adv-x="1436" 
d="M718 243q120 0 206 85t85 204q0 63 -28 122l-384 -385q56 -26 121 -26zM427 532q0 -65 28 -124l387 387q-59 29 -124 28q-121 1 -206 -85t-85 -206zM1237 537q0 -145 -70 -264t-189 -189q-118 -70 -264 -70t-273 80l-117 -117l-161 161l117 117q-81 125 -81 271
q-1 146 69 266t189 190t265 70t273 -81l117 116l162 -160l-118 -117q81 -128 81 -273z" />
    <glyph glyph-name="uni2300" unicode="&#x2300;" horiz-adv-x="1436" 
d="M718 243q120 0 206 85t85 204q0 63 -28 122l-384 -385q56 -26 121 -26zM427 532q0 -65 28 -124l387 387q-59 29 -124 28q-121 1 -206 -85t-85 -206zM1237 537q0 -145 -70 -264t-189 -189q-118 -70 -264 -70t-273 80l-117 -117l-161 161l117 117q-81 125 -81 271
q-1 146 69 266t189 190t265 70t273 -81l117 116l162 -160l-118 -117q81 -128 81 -273z" />
    <glyph glyph-name="Delta" unicode="&#x2206;" horiz-adv-x="1420" 
d="M710 1152l-332 -885h663zM1355 0h-1289v223l471 1211h347l471 -1211v-223z" />
    <glyph glyph-name="product" unicode="&#x220f;" horiz-adv-x="1509" 
d="M1347 1434v-1705h-286v1437h-612v-1437h-286v1705h1184z" />
    <glyph glyph-name="summation" unicode="&#x2211;" horiz-adv-x="1303" 
d="M1203 1434v-268h-689l454 -493v-166l-461 -511h699v-267h-1109v223l574 633l-570 625v224h1102z" />
    <glyph glyph-name="minus" unicode="&#x2212;" 
d="M1085 659v-228h-942v228h942z" />
    <glyph glyph-name="uni2219" unicode="&#x2219;" 
d="M290 545q0 135 94 229t230 95q134 0 230 -94q95 -95 95 -230t-95 -230t-230 -95q-136 0 -230 95t-94 230z" />
    <glyph glyph-name="radical" unicode="&#x221a;" horiz-adv-x="1339" 
d="M1318 1475l-566 -1746h-349l-385 1024h310l250 -697l442 1419h298z" />
    <glyph glyph-name="infinity" unicode="&#x221e;" horiz-adv-x="1761" 
d="M1478 536q0 96 -51 150t-115 54t-115 -42q-50 -41 -161 -161h1l-1 -1q111 -120 161 -162q51 -42 115 -41q64 0 115 54q51 53 51 149zM285 536q1 -96 51 -149q50 -54 114 -54t115 41q50 41 160 162v1q-110 120 -160 161q-51 41 -115 41t-115 -53q-50 -54 -50 -150zM42 536
q0 194 123 312t299 120q139 0 259 -106q63 -53 158 -156q185 203 303 244q54 18 114 18q114 0 209 -52t153 -152t59 -228q0 -128 -58 -228q-57 -100 -153 -152t-213 -52t-206 67t-208 196q-148 -164 -239 -214q-90 -49 -178 -49q-174 0 -298 120q-124 118 -124 312z" />
    <glyph glyph-name="integral" unicode="&#x222b;" horiz-adv-x="671" 
d="M571 1210q-117 0 -116 -139v-983q-1 -178 -93 -282t-263 -103q-81 0 -142 16l60 239q26 -6 54 -6q117 0 116 139v983q1 178 93 282t263 103q81 0 143 -16l-61 -239q-27 6 -54 6z" />
    <glyph glyph-name="congruent" unicode="&#x2245;" 
d="M404 1135q-62 0 -154 -89l-129 162q120 146 303 147q82 0 153 -23t129 -46t110 -22q72 0 164 89l129 -163q-122 -146 -304 -147q-81 0 -152 23t-129 46t-120 23zM1085 877v-229h-942v229h942zM1085 442v-228h-942v228h942z" />
    <glyph glyph-name="approxequal" unicode="&#x2248;" 
d="M805 172q-125 0 -222 46q-96 46 -168 45q-73 0 -165 -89l-129 163q120 146 303 146q120 0 219 -45q98 -45 172 -45q73 -1 165 88l129 -163q-122 -146 -304 -146zM424 913q120 0 219 -45q98 -45 172 -45q73 -1 165 88l129 -162q-122 -146 -304 -147q-125 0 -222 46
q-96 46 -168 45q-73 0 -165 -89l-129 163q120 146 303 146z" />
    <glyph glyph-name="uni2259" unicode="&#x2259;" 
d="M999 1043h-259l-126 157l-125 -157h-259l224 323h322zM1085 877v-229h-942v229h942zM1085 442v-228h-942v228h942z" />
    <glyph glyph-name="notequal" unicode="&#x2260;" 
d="M1085 442v-228h-503l-99 -214h-238l98 214h-200v228h306l95 206h-401v229h506l100 214h238l-99 -214h197v-229h-303l-95 -206h398z" />
    <glyph glyph-name="lessequal" unicode="&#x2264;" 
d="M196 0v228h838v-228h-838zM1034 1195v-264l-558 -200l558 -199v-264l-838 338v250z" />
    <glyph glyph-name="greaterequal" unicode="&#x2265;" 
d="M1034 228v-228h-838v228h838zM196 931v264l838 -339v-250l-838 -338v264l558 199z" />
    <glyph glyph-name="dotmath" unicode="&#x22c5;" 
d="M416 546q0 80 60 138t138 59q80 0 140 -58q59 -59 59 -139t-59 -140t-139 -60q-79 0 -139 60t-60 140z" />
    <glyph glyph-name="uni2460" unicode="&#x2460;" horiz-adv-x="2099" 
d="M1192 291h-210v595l-213 -76v206l423 159v-884zM1050 1401q-140 0 -268 -54q-128 -53 -219 -145q-92 -92 -146 -218q-55 -126 -55 -266t54 -266q54 -127 147 -219q92 -92 219 -146t291 -54q164 -1 322 91t251 250q92 158 92 320t-54 290q-111 258 -367 363
q-127 54 -267 54zM1050 1642q191 0 365 -73t300 -197t200 -295q75 -171 75 -359t-74 -360q-150 -346 -501 -493q-174 -74 -365 -74q-192 0 -366 74q-174 73 -300 197t-200 296t-74 360t74 359q149 345 500 492q175 73 366 73z" />
    <glyph glyph-name="uni2461" unicode="&#x2461;" horiz-adv-x="2099" 
d="M1026 975q-86 0 -176 -90l-130 137q129 155 329 155q141 0 227 -78t86 -206q0 -76 -35 -137t-108 -129l-153 -141h314v-195h-614v166l310 288q67 63 67 117t-33 84q-33 29 -84 29zM1050 1401q-140 0 -268 -54q-128 -53 -219 -145q-92 -92 -146 -218q-55 -126 -55 -266
t54 -266q54 -127 147 -219q92 -92 219 -146t291 -54q164 -1 322 91t251 250q92 158 92 320t-54 290q-111 258 -367 363q-127 54 -267 54zM1050 1642q191 0 365 -73t300 -197t200 -295q75 -171 75 -359t-74 -360q-150 -346 -501 -493q-174 -74 -365 -74q-192 0 -366 74
q-174 73 -300 197t-200 296t-74 360t74 359q149 345 500 492q175 73 366 73z" />
    <glyph glyph-name="uni2462" unicode="&#x2462;" horiz-adv-x="2099" 
d="M1035 460q60 0 99 23q38 23 38 67t-43 67q-44 24 -110 24h-103v177h104q59 0 98 23q38 23 38 65t-34 63q-34 22 -91 21q-109 0 -182 -82l-119 138q116 131 310 131q148 1 240 -69t92 -183q0 -138 -132 -197q149 -58 151 -196q-1 -83 -51 -143q-95 -113 -298 -114
q-204 -1 -315 127l118 137q79 -79 190 -79zM1050 1401q-140 0 -268 -54q-128 -53 -219 -145q-92 -92 -146 -218q-55 -126 -55 -266t54 -266q54 -127 147 -219q92 -92 219 -146t291 -54q164 -1 322 91t251 250q92 158 92 320t-54 290q-111 258 -367 363q-127 54 -267 54z
M1050 1642q191 0 365 -73t300 -197t200 -295q75 -171 75 -359t-74 -360q-150 -346 -501 -493q-174 -74 -365 -74q-192 0 -366 74q-174 73 -300 197t-200 296t-74 360t74 359q149 345 500 492q175 73 366 73z" />
    <glyph glyph-name="uni2463" unicode="&#x2463;" horiz-adv-x="2099" 
d="M1280 860v-232h112v-192h-112v-145h-210v145h-395v147l291 577h231l-272 -532h145v90l72 142h138zM1050 1401q-140 0 -268 -54q-128 -53 -219 -145q-92 -92 -146 -218q-55 -126 -55 -266t54 -266q54 -127 147 -219q92 -92 219 -146t291 -54q164 -1 322 91t251 250
q92 158 92 320t-54 290q-111 258 -367 363q-127 54 -267 54zM1050 1642q191 0 365 -73t300 -197t200 -295q75 -171 75 -359t-74 -360q-150 -346 -501 -493q-174 -74 -365 -74q-192 0 -366 74q-174 73 -300 197t-200 296t-74 360t74 359q149 345 500 492q175 73 366 73z" />
    <glyph glyph-name="uni2464" unicode="&#x2464;" horiz-adv-x="2099" 
d="M1339 1161v-193h-349l-4 -130h84q155 0 239 -71q85 -71 85 -198t-96 -211t-245 -84q-198 0 -325 120l103 156q37 -32 99 -58t122 -26t92 27t32 70q0 94 -158 94h-220l11 504h530zM1050 1401q-140 0 -268 -54q-128 -53 -219 -145q-92 -92 -146 -218q-55 -126 -55 -266
t54 -266q54 -127 147 -219q92 -92 219 -146t291 -54q164 -1 322 91t251 250q92 158 92 320t-54 290q-111 258 -367 363q-127 54 -267 54zM1050 1642q191 0 365 -73t300 -197t200 -295q75 -171 75 -359t-74 -360q-150 -346 -501 -493q-174 -74 -365 -74q-192 0 -366 74
q-174 73 -300 197t-200 296t-74 360t74 359q149 345 500 492q175 73 366 73z" />
    <glyph glyph-name="uni2465" unicode="&#x2465;" horiz-adv-x="2099" 
d="M1041 694q-54 0 -90 -33q-37 -33 -37 -83t36 -83t90 -33t92 33q36 33 36 83t-36 83q-37 33 -91 33zM1069 869q145 0 233 -82t87 -210q1 -127 -99 -215t-248 -88t-249 85q-100 85 -100 206t90 254l235 342h254l-215 -292h12zM1050 1401q-140 0 -268 -54
q-128 -53 -219 -145q-92 -92 -146 -218q-55 -126 -55 -266t54 -266q54 -127 147 -219q92 -92 219 -146t291 -54q164 -1 322 91t251 250q92 158 92 320t-54 290q-111 258 -367 363q-127 54 -267 54zM1050 1642q191 0 365 -73t300 -197t200 -295q75 -171 75 -359t-74 -360
q-150 -346 -501 -493q-174 -74 -365 -74q-192 0 -366 74q-174 73 -300 197t-200 296t-74 360t74 359q149 345 500 492q175 73 366 73z" />
    <glyph glyph-name="uni2466" unicode="&#x2466;" horiz-adv-x="2099" 
d="M1402 1161v-166l-352 -704h-251l354 675h-401v195h650zM1050 1401q-140 0 -268 -54q-128 -53 -219 -145q-92 -92 -146 -218q-55 -126 -55 -266t54 -266q54 -127 147 -219q92 -92 219 -146t291 -54q164 -1 322 91t251 250q92 158 92 320t-54 290q-111 258 -367 363
q-127 54 -267 54zM1050 1642q191 0 365 -73t300 -197t200 -295q75 -171 75 -359t-74 -360q-150 -346 -501 -493q-174 -74 -365 -74q-192 0 -366 74q-174 73 -300 197t-200 296t-74 360t74 359q149 345 500 492q175 73 366 73z" />
    <glyph glyph-name="uni2467" unicode="&#x2467;" horiz-adv-x="2099" 
d="M1163 905q0 41 -32 65q-33 24 -81 24t-80 -24t-32 -65q0 -42 32 -66t80 -24t81 24q32 24 32 66zM1050 650q-54 0 -90 -26t-37 -72q0 -46 36 -71t91 -25t92 26t37 70q0 46 -37 72q-38 26 -92 26zM715 916q1 124 97 192t238 69q142 0 239 -69q96 -68 96 -192t-136 -186
q159 -62 159 -203q0 -115 -103 -183t-255 -70q-152 0 -255 70t-103 183q0 142 159 203q-136 62 -136 186zM1050 1401q-140 0 -268 -54q-128 -53 -219 -145q-92 -92 -146 -218q-55 -126 -55 -266t54 -266q54 -127 147 -219q92 -92 219 -146t291 -54q164 -1 322 91t251 250
q92 158 92 320t-54 290q-111 258 -367 363q-127 54 -267 54zM1050 1642q191 0 365 -73t300 -197t200 -295q75 -171 75 -359t-74 -360q-150 -346 -501 -493q-174 -74 -365 -74q-192 0 -366 74q-174 73 -300 197t-200 296t-74 360t74 359q149 345 500 492q175 73 366 73z" />
    <glyph glyph-name="uni2468" unicode="&#x2468;" horiz-adv-x="2099" 
d="M1061 758q54 0 90 33q37 33 37 83t-36 82q-36 34 -91 34t-91 -33t-36 -83t36 -84q36 -32 91 -32zM1033 582q-145 0 -232 83t-87 211t99 214q99 87 247 87t249 -85q100 -85 100 -206t-90 -254l-236 -341h-253l213 291h-10zM1050 1401q-140 0 -268 -54q-128 -53 -219 -145
q-92 -92 -146 -218q-55 -126 -55 -266t54 -266q54 -127 147 -219q92 -92 219 -146t291 -54q164 -1 322 91t251 250q92 158 92 320t-54 290q-111 258 -367 363q-127 54 -267 54zM1050 1642q191 0 365 -73t300 -197t200 -295q75 -171 75 -359t-74 -360q-150 -346 -501 -493
q-174 -74 -365 -74q-192 0 -366 74q-174 73 -300 197t-200 296t-74 360t74 359q149 345 500 492q175 73 366 73z" />
    <glyph glyph-name="uni24EA" unicode="&#x24ea;" horiz-adv-x="2099" 
d="M1050 975q-78 0 -127 -66t-49 -184q0 -117 48 -183q50 -66 128 -66t128 65t49 184q1 119 -49 185t-128 65zM654 726q0 206 113 328t283 123q170 -1 284 -123q112 -122 112 -328t-113 -329t-283 -123t-283 122q-113 124 -113 330zM1050 1401q-140 0 -268 -54
q-128 -53 -219 -145q-92 -92 -146 -218q-55 -126 -55 -266t54 -266q54 -127 147 -219q92 -92 219 -146t291 -54q164 -1 322 91t251 250q92 158 92 320t-54 290q-111 258 -367 363q-127 54 -267 54zM1050 1642q191 0 365 -73t300 -197t200 -295q75 -171 75 -359t-74 -360
q-150 -346 -501 -493q-174 -74 -365 -74q-192 0 -366 74q-174 73 -300 197t-200 296t-74 360t74 359q149 345 500 492q175 73 366 73z" />
    <glyph glyph-name="uni24FF" unicode="&#x24ff;" horiz-adv-x="2099" 
d="M1050 1621q187 0 357 -72q341 -145 488 -480q73 -167 73 -333t-46 -303q-90 -269 -328 -446q-239 -176 -544 -174q-188 -1 -358 71q-341 143 -487 483q-73 168 -73 351q0 182 73 350q148 339 487 481q171 72 358 72zM1050 975q78 0 128 -66q50 -67 49 -185
q0 -118 -50 -183q-49 -65 -127 -65t-127 66t-49 184t48 184q50 66 128 65zM1446 726q0 206 -112 328t-284 123q-170 -1 -283 -123t-113 -328t113 -329t283 -123t284 122q112 124 112 330z" />
    <glyph glyph-name="uni2715" unicode="&#x2573;" horiz-adv-x="2224" 
d="M1296 717l956 -956l-184 -184l-955 957l-956 -957l-185 184l956 956l-956 955l185 185l956 -956l955 956l184 -185z" />
    <glyph glyph-name="uni2715" unicode="&#x2715;" horiz-adv-x="2224" 
d="M1296 717l956 -956l-184 -184l-955 957l-956 -957l-185 184l956 956l-956 955l185 185l956 -956l955 956l184 -185z" />
    <glyph glyph-name="uni25AE" unicode="&#x258c;" horiz-adv-x="1843" 
d="M205 1434h717v-1434h-717v1434z" />
    <glyph glyph-name="uni25AE" unicode="&#x25ae;" horiz-adv-x="1843" 
d="M205 1434h717v-1434h-717v1434z" />
    <glyph glyph-name="filledbox" unicode="&#x25a0;" horiz-adv-x="1843" 
d="M205 1434h1433v-1434h-1433v1434z" />
    <glyph glyph-name="H22073" unicode="&#x25a1;" horiz-adv-x="1843" 
d="M449 1190v-946h946v946h-946zM205 1434h1433v-1434h-1433v1434z" />
    <glyph glyph-name="triagup" unicode="&#x25b2;" horiz-adv-x="1843" 
d="M922 1454l839 -1454h-1679z" />
    <glyph glyph-name="uni25B3" unicode="&#x25b3;" horiz-adv-x="1843" 
d="M922 968l-419 -724h837zM922 1454l839 -1454h-1679z" />
    <glyph glyph-name="uni25B4" unicode="&#x25b4;" 
d="M615 1071l455 -785h-910z" />
    <glyph glyph-name="uni25B8" unicode="&#x25b8;" 
d="M1071 678l-787 -457v913z" />
    <glyph glyph-name="triagdn" unicode="&#x25bc;" horiz-adv-x="1843" 
d="M922 -20l-840 1454h1679z" />
    <glyph glyph-name="uni25BD" unicode="&#x25bd;" horiz-adv-x="1843" 
d="M922 466l418 724h-837zM922 -20l-840 1454h1679z" />
    <glyph glyph-name="uni25BE" unicode="&#x25be;" 
d="M613 285l-454 785h910z" />
    <glyph glyph-name="uni25C2" unicode="&#x25c2;" 
d="M158 678l787 456v-913z" />
    <glyph glyph-name="uni25C6" unicode="&#x25c6;" horiz-adv-x="1843" 
d="M922 1473l755 -756l-755 -756l-756 756z" />
    <glyph glyph-name="uni25C7" unicode="&#x25c7;" horiz-adv-x="1843" 
d="M922 1128l-412 -411l412 -412l411 412zM922 1473l755 -756l-755 -756l-756 756z" />
    <glyph glyph-name="lozenge" unicode="&#x25ca;" horiz-adv-x="1574" 
d="M1156 716l-373 462l-362 -459l373 -464zM1493 717l-571 -717h-270l-570 717l571 717h270z" />
    <glyph glyph-name="circle" unicode="&#x25cb;" horiz-adv-x="1843" 
d="M922 204q140 0 257 68q118 68 187 187q69 117 69 257t-69 258t-187 187q-117 69 -257 69t-258 -69t-187 -187t-69 -257t70 -257q68 -118 186 -188q118 -68 258 -68zM922 -40q-154 0 -295 60q-282 121 -402 403q-60 140 -60 294t60 294q120 280 402 403q141 60 295 60
t294 -60t240 -162q102 -102 162 -241q60 -140 60 -294t-60 -294q-60 -139 -161 -241t-241 -162t-294 -60z" />
    <glyph glyph-name="H18533" unicode="&#x25cf;" horiz-adv-x="1843" 
d="M922 -40q-154 0 -295 60q-282 121 -402 403q-60 140 -60 294t60 294q120 280 402 403q141 60 295 60t294 -60t240 -162q102 -102 162 -241q60 -140 60 -294t-60 -294q-60 -139 -161 -241t-241 -162t-294 -60z" />
    <glyph glyph-name="uni25D0" unicode="&#x25d0;" horiz-adv-x="1843" 
d="M922 1230v-1026q139 0 257 68t187 187q69 117 69 257t-69 258t-187 187t-257 69zM922 -40q-154 0 -295 60q-282 121 -402 403q-60 140 -60 294t60 294q120 280 402 403q141 60 295 60t294 -60t240 -162q102 -102 162 -241q60 -140 60 -294t-60 -294q-60 -139 -161 -241
t-241 -162t-294 -60z" />
    <glyph glyph-name="uni25D6" unicode="&#x25d6;" horiz-adv-x="1843" 
d="M922 1474v-1514q-155 0 -295 60q-282 121 -402 403q-60 140 -60 294t60 294q120 280 402 403q140 60 295 60z" />
    <glyph glyph-name="uni25E7" unicode="&#x25e7;" horiz-adv-x="1843" 
d="M922 1190v-946h473v946h-473zM205 1434h1433v-1434h-1433v1434z" />
    <glyph glyph-name="uni2610" unicode="&#x2610;" horiz-adv-x="2252" 
d="M459 1384v-1335h1335v1335h-1335zM259 1584h1735v-1735h-1735v1735z" />
    <glyph glyph-name="uni2611" unicode="&#x2611;" horiz-adv-x="2252" 
d="M1526 1220l156 -112l-669 -931l-426 480l141 129l266 -304zM459 1384v-1335h1335v1335h-1335zM259 1584h1735v-1735h-1735v1735z" />
    <glyph glyph-name="uni2612" unicode="&#x2612;" horiz-adv-x="2252" 
d="M641 369l349 348l-349 348l137 137l348 -349l349 349l137 -137l-349 -348l349 -348l-137 -138l-349 350l-348 -350zM1794 1384h-1335v-1335h1335v1335zM1994 1584v-1735h-1735v1735h1735z" />
    <glyph glyph-name="heart" unicode="&#x2665;" horiz-adv-x="1843" 
d="M1248 1285q134 0 226 -95q93 -95 93 -238q0 -288 -398 -647q-113 -102 -247 -196q-273 192 -460 416q-186 224 -186 427q0 142 93 238t227 95q134 0 229 -75q96 -75 97 -177q0 101 96 177t230 75z" />
    <glyph glyph-name="uni2713" unicode="&#x2713;" horiz-adv-x="2252" 
d="M1602 1354l188 -140l-839 -1130l-487 532l172 158l297 -323z" />
    <glyph glyph-name="uni2717" unicode="&#x2717;" horiz-adv-x="2252" 
d="M1291 717l429 -429l-165 -165l-429 429l-429 -429l-165 165l430 429l-430 429l165 165l429 -429l429 429l165 -165z" />
    <glyph glyph-name="uni278A" unicode="&#x2776;" horiz-adv-x="2099" 
d="M1050 1621q187 0 357 -72q341 -145 488 -480q73 -167 73 -333t-46 -303q-90 -269 -328 -446q-239 -176 -544 -174q-188 -1 -358 71q-341 143 -487 483q-73 168 -73 351q0 182 73 350q148 339 487 481q171 72 358 72zM982 291h210v884l-423 -159v-206l213 76v-595z" />
    <glyph glyph-name="uni278A" unicode="&#x278a;" horiz-adv-x="2099" 
d="M1050 1621q187 0 357 -72q341 -145 488 -480q73 -167 73 -333t-46 -303q-90 -269 -328 -446q-239 -176 -544 -174q-188 -1 -358 71q-341 143 -487 483q-73 168 -73 351q0 182 73 350q148 339 487 481q171 72 358 72zM982 291h210v884l-423 -159v-206l213 76v-595z" />
    <glyph glyph-name="uni278B" unicode="&#x2777;" horiz-adv-x="2099" 
d="M1050 1621q187 0 357 -72q341 -145 488 -480q73 -167 73 -333t-46 -303q-90 -269 -328 -446q-239 -176 -544 -174q-188 -1 -358 71q-341 143 -487 483q-73 168 -73 351q0 182 73 350q148 339 487 481q171 72 358 72zM1025 975q52 0 85 -29t33 -83t-67 -118l-310 -288
v-166h614v195h-314l153 141q75 69 109 129t34 137q0 128 -86 206t-227 78q-200 0 -329 -155l130 -137q43 43 83 67t92 23z" />
    <glyph glyph-name="uni278B" unicode="&#x278b;" horiz-adv-x="2099" 
d="M1050 1621q187 0 357 -72q341 -145 488 -480q73 -167 73 -333t-46 -303q-90 -269 -328 -446q-239 -176 -544 -174q-188 -1 -358 71q-341 143 -487 483q-73 168 -73 351q0 182 73 350q148 339 487 481q171 72 358 72zM1025 975q52 0 85 -29t33 -83t-67 -118l-310 -288
v-166h614v195h-314l153 141q75 69 109 129t34 137q0 128 -86 206t-227 78q-200 0 -329 -155l130 -137q43 43 83 67t92 23z" />
    <glyph glyph-name="uni278C" unicode="&#x2778;" horiz-adv-x="2099" 
d="M1372 925q0 114 -92 183t-240 69q-194 0 -310 -131l119 -138q75 82 191 82t116 -84q0 -42 -38 -65t-98 -23h-104v-177h103q67 0 111 -24q44 -23 42 -67q0 -44 -38 -67t-99 -23q-112 0 -190 79l-118 -137q111 -128 314 -128t299 115q50 60 51 143q0 139 -151 196
q132 58 132 197zM1050 1621q187 0 357 -72q341 -145 488 -480q73 -167 73 -333t-46 -303q-90 -269 -328 -446q-239 -176 -544 -174q-188 -1 -358 71q-341 143 -487 483q-73 168 -73 351q0 182 73 350q148 339 487 481q171 72 358 72z" />
    <glyph glyph-name="uni278C" unicode="&#x278c;" horiz-adv-x="2099" 
d="M1372 925q0 114 -92 183t-240 69q-194 0 -310 -131l119 -138q75 82 191 82t116 -84q0 -42 -38 -65t-98 -23h-104v-177h103q67 0 111 -24q44 -23 42 -67q0 -44 -38 -67t-99 -23q-112 0 -190 79l-118 -137q111 -128 314 -128t299 115q50 60 51 143q0 139 -151 196
q132 58 132 197zM1050 1621q187 0 357 -72q341 -145 488 -480q73 -167 73 -333t-46 -303q-90 -269 -328 -446q-239 -176 -544 -174q-188 -1 -358 71q-341 143 -487 483q-73 168 -73 351q0 182 73 350q148 339 487 481q171 72 358 72z" />
    <glyph glyph-name="uni278D" unicode="&#x2779;" horiz-adv-x="2099" 
d="M1280 860h-138l-72 -142v-90h-145l272 532h-231l-291 -577v-147h395v-145h210v145h112v192h-112v232zM1050 1621q187 0 357 -72q341 -145 488 -480q73 -167 73 -333t-46 -303q-90 -269 -328 -446q-239 -176 -544 -174q-188 -1 -358 71q-341 143 -487 483q-73 168 -73 351
q0 182 73 350q148 339 487 481q171 72 358 72z" />
    <glyph glyph-name="uni278D" unicode="&#x278d;" horiz-adv-x="2099" 
d="M1280 860h-138l-72 -142v-90h-145l272 532h-231l-291 -577v-147h395v-145h210v145h112v192h-112v232zM1050 1621q187 0 357 -72q341 -145 488 -480q73 -167 73 -333t-46 -303q-90 -269 -328 -446q-239 -176 -544 -174q-188 -1 -358 71q-341 143 -487 483q-73 168 -73 351
q0 182 73 350q148 339 487 481q171 72 358 72z" />
    <glyph glyph-name="uni278E" unicode="&#x277a;" horiz-adv-x="2099" 
d="M1050 1621q187 0 357 -72q341 -145 488 -480q73 -167 73 -333t-46 -303q-90 -269 -328 -446q-239 -176 -544 -174q-188 -1 -358 71q-341 143 -487 483q-73 168 -73 351q0 182 73 350q148 339 487 481q171 72 358 72zM1394 569q0 129 -84 199t-240 70h-84l4 130h349v193
h-530l-11 -504h220q158 0 158 -94q0 -45 -32 -71t-92 -26t-122 26t-99 58l-103 -156q127 -120 325 -120q149 0 245 84t96 211z" />
    <glyph glyph-name="uni278E" unicode="&#x278e;" horiz-adv-x="2099" 
d="M1050 1621q187 0 357 -72q341 -145 488 -480q73 -167 73 -333t-46 -303q-90 -269 -328 -446q-239 -176 -544 -174q-188 -1 -358 71q-341 143 -487 483q-73 168 -73 351q0 182 73 350q148 339 487 481q171 72 358 72zM1394 569q0 129 -84 199t-240 70h-84l4 130h349v193
h-530l-11 -504h220q158 0 158 -94q0 -45 -32 -71t-92 -26t-122 26t-99 58l-103 -156q127 -120 325 -120q149 0 245 84t96 211z" />
    <glyph glyph-name="uni278F" unicode="&#x277b;" horiz-adv-x="2099" 
d="M1041 694q55 0 91 -33t36 -83t-36 -83t-91 -33t-91 33t-36 83t36 83t91 33zM693 565q0 -121 100 -206t248 -85t248 87q99 87 99 215t-86 211q-87 82 -233 82h-12l215 292h-254l-235 -342q-90 -133 -90 -254zM1050 1621q187 0 357 -72q341 -145 488 -480q73 -167 73 -333
t-46 -303q-90 -269 -328 -446q-239 -176 -544 -174q-188 -1 -358 71q-341 143 -487 483q-73 168 -73 351q0 182 73 350q148 339 487 481q171 72 358 72z" />
    <glyph glyph-name="uni278F" unicode="&#x278f;" horiz-adv-x="2099" 
d="M1041 694q55 0 91 -33t36 -83t-36 -83t-91 -33t-91 33t-36 83t36 83t91 33zM693 565q0 -121 100 -206t248 -85t248 87q99 87 99 215t-86 211q-87 82 -233 82h-12l215 292h-254l-235 -342q-90 -133 -90 -254zM1050 1621q187 0 357 -72q341 -145 488 -480q73 -167 73 -333
t-46 -303q-90 -269 -328 -446q-239 -176 -544 -174q-188 -1 -358 71q-341 143 -487 483q-73 168 -73 351q0 182 73 350q148 339 487 481q171 72 358 72z" />
    <glyph glyph-name="uni2790" unicode="&#x277c;" horiz-adv-x="2099" 
d="M1050 1621q187 0 357 -72q341 -145 488 -480q73 -167 73 -333t-46 -303q-90 -269 -328 -446q-239 -176 -544 -174q-188 -1 -358 71q-341 143 -487 483q-73 168 -73 351q0 182 73 350q148 339 487 481q171 72 358 72zM1402 1161h-650v-195h401l-354 -675h251l352 704v166z
" />
    <glyph glyph-name="uni2790" unicode="&#x2790;" horiz-adv-x="2099" 
d="M1050 1621q187 0 357 -72q341 -145 488 -480q73 -167 73 -333t-46 -303q-90 -269 -328 -446q-239 -176 -544 -174q-188 -1 -358 71q-341 143 -487 483q-73 168 -73 351q0 182 73 350q148 339 487 481q171 72 358 72zM1402 1161h-650v-195h401l-354 -675h251l352 704v166z
" />
    <glyph glyph-name="uni2791" unicode="&#x277d;" horiz-adv-x="2099" 
d="M938 905q0 41 32 65t80 24t81 -24q32 -24 32 -65q0 -42 -32 -66q-33 -24 -81 -24t-80 24t-32 66zM1050 650q54 0 92 -26q37 -26 37 -72t-37 -71q-38 -25 -92 -25t-91 25q-36 25 -36 71t36 72q37 26 91 26zM1385 916q0 124 -96 192q-97 68 -239 69q-142 0 -238 -69
t-97 -193q0 -124 136 -185q-159 -60 -159 -203q0 -115 103 -183t255 -70q152 0 256 70q102 70 102 183q0 140 -159 203q136 62 136 186zM1050 1621q187 0 357 -72q341 -145 488 -480q73 -167 73 -333t-46 -303q-90 -269 -328 -446q-239 -176 -544 -174q-188 -1 -358 71
q-341 143 -487 483q-73 168 -73 351q0 182 73 350q148 339 487 481q171 72 358 72z" />
    <glyph glyph-name="uni2791" unicode="&#x2791;" horiz-adv-x="2099" 
d="M938 905q0 41 32 65t80 24t81 -24q32 -24 32 -65q0 -42 -32 -66q-33 -24 -81 -24t-80 24t-32 66zM1050 650q54 0 92 -26q37 -26 37 -72t-37 -71q-38 -25 -92 -25t-91 25q-36 25 -36 71t36 72q37 26 91 26zM1385 916q0 124 -96 192q-97 68 -239 69q-142 0 -238 -69
t-97 -193q0 -124 136 -185q-159 -60 -159 -203q0 -115 103 -183t255 -70q152 0 256 70q102 70 102 183q0 140 -159 203q136 62 136 186zM1050 1621q187 0 357 -72q341 -145 488 -480q73 -167 73 -333t-46 -303q-90 -269 -328 -446q-239 -176 -544 -174q-188 -1 -358 71
q-341 143 -487 483q-73 168 -73 351q0 182 73 350q148 339 487 481q171 72 358 72z" />
    <glyph glyph-name="uni2792" unicode="&#x277e;" horiz-adv-x="2099" 
d="M1061 758q-54 0 -91 33q-36 33 -36 83t36 82q36 34 90 34t91 -33t37 -83t-36 -84q-36 -32 -91 -32zM1409 886q0 121 -100 206t-248 85q-147 0 -247 -87t-100 -215q0 -129 87 -211t232 -82h10l-213 -291h253l236 341q90 133 90 254zM1050 1621q187 0 357 -72
q341 -145 488 -480q73 -167 73 -333t-46 -303q-90 -269 -328 -446q-239 -176 -544 -174q-188 -1 -358 71q-341 143 -487 483q-73 168 -73 351q0 182 73 350q148 339 487 481q171 72 358 72z" />
    <glyph glyph-name="uni2792" unicode="&#x2792;" horiz-adv-x="2099" 
d="M1061 758q-54 0 -91 33q-36 33 -36 83t36 82q36 34 90 34t91 -33t37 -83t-36 -84q-36 -32 -91 -32zM1409 886q0 121 -100 206t-248 85q-147 0 -247 -87t-100 -215q0 -129 87 -211t232 -82h10l-213 -291h253l236 341q90 133 90 254zM1050 1621q187 0 357 -72
q341 -145 488 -480q73 -167 73 -333t-46 -303q-90 -269 -328 -446q-239 -176 -544 -174q-188 -1 -358 71q-341 143 -487 483q-73 168 -73 351q0 182 73 350q148 339 487 481q171 72 358 72z" />
    <glyph glyph-name="uni2B51" unicode="&#x2b51;" horiz-adv-x="1843" 
d="M1114 924h621l-502 -365l192 -593l-502 367l-502 -367l191 593l-503 365h622l192 593z" />
    <glyph glyph-name="uni2B52" unicode="&#x2b52;" horiz-adv-x="1843" 
d="M1011 781l-88 272l-88 -272h-287l231 -168l-88 -273l232 169l231 -169l-88 273l231 168h-286zM1114 924h621l-502 -365l192 -593l-502 367l-502 -367l191 593l-503 365h622l192 593z" />
    <glyph glyph-name="uni2E17" unicode="&#x2e17;" horiz-adv-x="898" 
d="M751 608v-219l-604 -220v219zM751 969v-219l-604 -221v221z" />
    <glyph glyph-name="uni2E38" unicode="&#x2e38;" horiz-adv-x="815" 
d="M303 1475h209v-433h221v-203h-221v-223h-209v223h-221v203h221v433z" />
    <glyph glyph-name="uniEA00" unicode="&#xea00;" horiz-adv-x="1843" 
d="M1011 781l-88 272v-544l231 -169l-88 273l231 168h-286zM1114 924h621l-502 -365l192 -593l-502 367l-502 -367l191 593l-503 365h622l192 593z" />
    <glyph glyph-name="uniEA01" unicode="&#xea01;" horiz-adv-x="1843" 
d="M923 333l-502 -367l191 593l-503 365h622l192 593v-1184z" />
    <glyph glyph-name="uniFB00" unicode="&#xfb00;" horiz-adv-x="1715" 
d="M1649 992v-237h-309v-755h-267v755h-185v237h185v123q0 177 92 281t263 104t306 -89l-107 -208q-89 48 -170 48q-117 0 -117 -139v-120h309zM803 992v-237h-308v-755h-268v755h-185v237h185v123q0 177 92 281q91 104 263 104t306 -89l-107 -208q-89 48 -170 48
q-117 0 -116 -139v-120h308z" />
    <glyph glyph-name="fi" unicode="&#xfb01;" horiz-adv-x="1417" 
d="M1142 1489q72 0 122 -50t49 -122q0 -72 -49 -121t-122 -49t-122 49q-48 50 -48 122t49 122t121 49zM1277 992v-992h-267v992h267zM803 992v-237h-308v-755h-268v755h-185v237h185v123q0 177 92 281q91 104 263 104t306 -89l-107 -208q-89 48 -170 48q-117 0 -116 -139
v-120h308z" />
    <glyph glyph-name="fl" unicode="&#xfb02;" horiz-adv-x="1417" 
d="M1277 1475v-1475h-267v1475h267zM803 992v-237h-308v-755h-268v755h-185v237h185v123q0 177 92 281q91 104 263 104t306 -89l-107 -208q-89 48 -170 48q-117 0 -116 -139v-120h308z" />
    <glyph glyph-name="uniFB03" unicode="&#xfb03;" horiz-adv-x="2263" 
d="M1988 1489q72 0 122 -50t49 -122q1 -72 -49 -121t-122 -49t-122 49q-48 50 -48 122t49 122t121 49zM2123 992v-992h-268v992h268zM1649 992v-237h-309v-755h-267v755h-185v237h185v123q0 177 92 281t263 104t306 -89l-107 -208q-89 48 -170 48q-117 0 -117 -139v-120h309
zM803 992v-237h-308v-755h-268v755h-185v237h185v123q0 177 92 281q91 104 263 104t306 -89l-107 -208q-89 48 -170 48q-117 0 -116 -139v-120h308z" />
    <glyph glyph-name="uniFB04" unicode="&#xfb04;" horiz-adv-x="2263" 
d="M2123 1475v-1475h-268v1475h268zM1649 992v-237h-309v-755h-267v755h-185v237h185v123q0 177 92 281t263 104t306 -89l-107 -208q-89 48 -170 48q-117 0 -117 -139v-120h309zM803 992v-237h-308v-755h-268v755h-185v237h185v123q0 177 92 281q91 104 263 104t306 -89
l-107 -208q-89 48 -170 48q-117 0 -116 -139v-120h308z" />
    <glyph glyph-name="uniFB05" unicode="&#xfb05;" horiz-adv-x="1485" 
d="M1392 992v-237h-361v-363q0 -166 156 -168q74 0 180 64l97 -209q-152 -105 -331 -105t-273 102t-95 295v384h-166v237h166v56q0 106 -50 158q-51 52 -133 52t-132 -52t-50 -158v-1048h-267v1059q0 229 136 337q126 104 314 104t318 -108t130 -334v-66h361z" />
    <glyph glyph-name="uniFB06" unicode="&#xfb06;" horiz-adv-x="1986" 
d="M1891 992v-237h-359v-363q0 -166 154 -168q74 0 181 64l98 -209q-153 -105 -333 -105t-273 102q-94 102 -94 295v384h-192v237h192v295h267v-295h359zM383 708q0 -40 40 -57t122 -29l88 -14q335 -51 335 -297q0 -155 -121 -245t-335 -92q-276 0 -441 117l105 203
q146 -97 334 -97t187 93q0 36 -39 58t-126 33l-80 11q-343 47 -343 301q0 153 111 239t320 86t402 -94l-90 -208q-160 79 -316 81q-75 0 -114 -24q-39 -25 -39 -65z" />
    <glyph glyph-name="uniFEFF" unicode="&#xfeff;" horiz-adv-x="0" 
 />
    <glyph glyph-name="uni030C.alt001" horiz-adv-x="1" 
d="M-746 1036v439h263l-53 -439h-210z" />
    <glyph glyph-name="uni0328.alt001" horiz-adv-x="1" 
d="M-633 -162q0 -55 60 -55q36 0 77 36l131 -157q-99 -91 -227 -91t-201 54q-72 54 -71 147q0 140 174 247q46 29 110 62l74 -78q-127 -79 -127 -165z" />
    <glyph glyph-name="uni0328.alt002" horiz-adv-x="1" 
d="M-660 -146q0 -71 95 -71q49 0 103 46l139 -152q-115 -106 -265 -106t-234 62t-84 166t86 173t256 125l81 -72q-177 -79 -177 -171z" />
    <glyph glyph-name="uni0328.alt003" horiz-adv-x="1" 
d="M-633 -162q0 -55 60 -55q36 0 77 36l131 -157q-99 -91 -227 -91t-201 55q-71 55 -71 154t91 167q91 69 241 134l73 -78q-174 -81 -174 -165z" />
    <glyph glyph-name="uni0328.alt004" horiz-adv-x="1" 
d="M-660 -146q0 -71 95 -71q49 0 103 46l139 -152q-115 -106 -265 -106t-234 62t-84 166t86 173t256 125l81 -72q-177 -79 -177 -171z" />
    <glyph glyph-name="j.latn_NLD" horiz-adv-x="551" 
d="M353 1135h-255l206 322h320zM412 992v-1086q0 -160 -84 -249t-225 -88q-89 0 -150 27l40 234q34 -12 72 -12q80 0 79 103v1071h268z" />
    <glyph glyph-name="zero.numr" horiz-adv-x="922" 
d="M462 1255q-74 0 -122 -63q-47 -63 -47 -179t47 -180q48 -64 122 -64t121 64t47 180t-47 179t-121 63zM462 1448q162 0 270 -118t108 -318t-108 -317q-108 -118 -271 -118t-271 118q-108 117 -108 317t109 318t271 118z" />
    <glyph glyph-name="one.numr" horiz-adv-x="566" 
d="M433 592h-202v578l-189 -69v196l391 150v-855z" />
    <glyph glyph-name="two.numr" horiz-adv-x="742" 
d="M346 1255q-84 0 -170 -88l-122 132q121 148 314 149q136 0 217 -74t81 -197q0 -73 -32 -131t-103 -127l-147 -141h301v-186h-587v158l296 281q62 59 62 113t-30 83q-32 28 -80 28z" />
    <glyph glyph-name="three.numr" horiz-adv-x="747" 
d="M346 577q-198 0 -304 123l113 131q75 -77 181 -76q57 1 94 23t37 64t-42 66q-42 23 -106 23h-96v171h99q56 0 92 23t37 63q0 40 -32 61t-86 21q-104 0 -175 -79l-113 130q111 127 296 127q141 0 229 -67t88 -187t-123 -178q140 -56 141 -183t-96 -191t-234 -65z" />
    <glyph glyph-name="four.numr" horiz-adv-x="750" 
d="M611 1141v-227h107v-181h-107v-141h-201v141h-377v141l277 559h221l-261 -519h140v104l61 123h140z" />
    <glyph glyph-name="five.numr" horiz-adv-x="764" 
d="M638 1434v-185h-334l-3 -128h73q152 -1 234 -69t82 -192t-92 -203q-92 -80 -234 -80q-192 0 -310 114l106 144q36 -30 92 -53q56 -22 111 -22q56 0 88 25q31 26 30 70q0 92 -149 92h-212l11 487h507z" />
    <glyph glyph-name="six.numr" horiz-adv-x="772" 
d="M384 984q-53 0 -88 -32t-35 -82t35 -84q35 -32 88 -32t88 32t35 83t-35 83t-88 32zM411 1151q141 0 224 -80t83 -204t-95 -207t-238 -83q-143 -1 -239 81t-96 201t86 243l226 332h242l-206 -283h13z" />
    <glyph glyph-name="seven.numr" horiz-adv-x="712" 
d="M671 1434v-158l-336 -684h-240l337 654h-382v188h621z" />
    <glyph glyph-name="eight.numr" horiz-adv-x="829" 
d="M414 1276q-48 0 -78 -24t-30 -65t30 -65t78 -24t78 24t30 66t-30 64q-30 24 -78 24zM414 940q-54 0 -88 -26q-35 -26 -35 -70t35 -71q34 -27 88 -27t89 26t35 72q0 44 -34 70q-36 26 -90 26zM92 1196q0 120 92 186t230 66t230 -66t92 -186t-129 -179q151 -58 151 -196
q0 -113 -99 -179t-245 -66t-245 67q-98 67 -98 178q0 137 149 196q-128 59 -128 179z" />
    <glyph glyph-name="nine.numr" horiz-adv-x="772" 
d="M387 1041q53 1 88 33t35 82t-35 82t-88 33q-53 0 -88 -32q-35 -33 -35 -83t35 -82t88 -33zM360 874q-141 0 -224 80t-83 203q0 124 95 207q95 84 238 84t239 -81t96 -201t-85 -243l-227 -331h-242l205 282h-12z" />
    <glyph glyph-name="zero.dnom" horiz-adv-x="922" 
d="M630 421q0 115 -47 179t-121 64t-122 -64q-47 -64 -47 -179q0 -116 47 -180q48 -64 122 -64t121 64t47 180zM462 856q162 0 270 -118t108 -318t-108 -317q-108 -118 -271 -118t-271 118q-108 117 -108 317t109 318t271 118z" />
    <glyph glyph-name="one.dnom" horiz-adv-x="565" 
d="M433 0h-202v579l-189 -70v197l391 149v-855z" />
    <glyph glyph-name="two.dnom" horiz-adv-x="742" 
d="M368 856q136 0 217 -74t81 -197q0 -73 -32 -131t-103 -127l-147 -141h301v-186h-587v158l296 281q62 59 62 113t-30 83q-32 29 -81 29q-82 1 -169 -89l-122 133q121 148 314 148z" />
    <glyph glyph-name="three.dnom" horiz-adv-x="747" 
d="M346 -15q-198 0 -304 124l113 131q75 -77 181 -77q57 1 94 23t37 64t-42 66q-42 23 -106 23h-96v171h99q56 0 92 23t37 63q0 40 -32 61t-86 21q-104 0 -175 -79l-113 130q112 127 296 127q141 0 229 -66t88 -188q0 -120 -123 -178q140 -56 141 -183t-96 -191t-234 -65z
" />
    <glyph glyph-name="four.dnom" horiz-adv-x="750" 
d="M611 549v-226h107v-182h-107v-141h-201v141h-377v142l277 558h221l-261 -518h140v103l61 123h140z" />
    <glyph glyph-name="five.dnom" horiz-adv-x="764" 
d="M638 842v-185h-334l-3 -128h73q152 -1 234 -69t82 -191t-91 -204q-92 -80 -235 -80q-192 0 -310 114l106 144q36 -30 92 -53q56 -22 111 -22q56 0 88 26q31 26 30 69q0 92 -149 92h-212l11 487h507z" />
    <glyph glyph-name="six.dnom" horiz-adv-x="771" 
d="M384 392q-53 0 -88 -32t-35 -82t35 -83t88 -33t88 33t35 83t-35 82t-88 32zM411 559q141 0 224 -80q83 -79 83 -203t-95 -208t-238 -83q-143 0 -239 82q-96 83 -96 201t86 242l226 332h242l-206 -283h13z" />
    <glyph glyph-name="seven.dnom" horiz-adv-x="711" 
d="M671 842v-158l-336 -684h-240l337 654h-382v188h621z" />
    <glyph glyph-name="eight.dnom" horiz-adv-x="828" 
d="M414 684q-48 0 -78 -24t-30 -65t30 -65t78 -24t78 24t30 66t-30 64q-30 24 -78 24zM414 348q-54 0 -88 -26q-35 -26 -35 -70q0 -45 35 -71q34 -26 88 -26t89 26t35 71q0 44 -34 70q-36 26 -90 26zM414 856q138 0 230 -66t92 -186t-129 -179q151 -58 151 -196
q0 -113 -99 -179t-245 -66t-245 67q-98 67 -98 178q0 137 149 196q-128 59 -128 179t92 187q92 65 230 65z" />
    <glyph glyph-name="nine.dnom" horiz-adv-x="771" 
d="M387 450q53 0 88 32t35 82t-35 82t-88 33q-53 0 -88 -32q-35 -33 -35 -83t35 -82t88 -32zM360 283q-141 0 -224 79t-83 203q0 123 95 207t238 84t239 -81t96 -201t-85 -243l-227 -331h-242l205 283h-12z" />
    <glyph glyph-name="space.frac" horiz-adv-x="101" 
 />
    <glyph glyph-name="b.ordn" horiz-adv-x="906" 
d="M465 759q79 0 127 54q48 53 48 133t-48 134t-126 53q-78 0 -128 -53q-48 -53 -48 -134t48 -134t127 -53zM512 1318q137 0 234 -106q98 -106 98 -266q0 -159 -98 -266t-236 -107q-139 0 -215 95v-76h-194v1047h198v-411q76 90 213 90z" />
    <glyph glyph-name="c.ordn" horiz-adv-x="790" 
d="M442 1133q-80 0 -128 -52q-48 -51 -49 -135q0 -84 48 -136q47 -52 127 -52t143 71l145 -117q-104 -138 -280 -138t-281 104q-105 105 -105 268q0 164 105 268t282 104t279 -138l-147 -117q-59 70 -139 70z" />
    <glyph glyph-name="d.ordn" horiz-adv-x="906" 
d="M440 1133q-78 1 -126 -53t-48 -134t49 -134t126 -53q77 0 126 53t49 134t-49 134t-127 53zM62 946q0 160 98 266t234 106q137 0 213 -91v412h198v-1047h-194v77q-79 -95 -217 -95t-235 106q-97 107 -97 266z" />
    <glyph glyph-name="e.ordn" horiz-adv-x="830" 
d="M420 1148q-60 0 -100 -35t-53 -99h301q-28 134 -148 134zM267 881q28 -139 190 -139q82 0 158 67l119 -126q-116 -110 -292 -110t-277 102q-103 103 -103 269t100 270t257 104t253 -103t95 -269q0 -41 -3 -65h-497z" />
    <glyph glyph-name="h.ordn" horiz-adv-x="868" 
d="M300 1640v-414q68 92 194 92t202 -76t76 -199v-451h-200v388q0 74 -34 113t-96 39t-102 -40t-40 -113v-387h-199v1048h199z" />
    <glyph glyph-name="l.ordn" horiz-adv-x="401" 
d="M300 1639v-1047h-199v1047h199z" />
    <glyph glyph-name="m.ordn" horiz-adv-x="1339" 
d="M509 1318q147 0 221 -121q73 121 236 121q125 0 201 -76t76 -199v-451h-197v388q0 73 -35 112q-35 40 -97 40t-102 -40t-40 -113v-387h-200v388q0 74 -34 113t-96 39t-102 -40t-40 -113v-387h-199v706h193v-81q68 101 215 101z" />
    <glyph glyph-name="r.ordn" horiz-adv-x="620" 
d="M492 1318q56 0 94 -14l-27 -197q-55 21 -119 21t-102 -38t-38 -113v-385h-199v706h193v-75q63 95 198 95z" />
    <glyph glyph-name="s.ordn" horiz-adv-x="753" 
d="M389 1154q-103 0 -103 -59q0 -27 28 -38t86 -20l61 -9q237 -37 236 -212q0 -114 -86 -178t-263 -64t-294 81l77 152q104 -69 235 -69t131 62q0 24 -27 38t-90 23l-53 7q-246 35 -246 216q0 111 80 172q79 62 227 62t291 -67l-64 -153q-123 56 -226 56z" />
    <glyph glyph-name="t.ordn" horiz-adv-x="696" 
d="M369 877q0 -118 104 -118q53 0 131 45l71 -155q-109 -76 -239 -76q-130 -1 -198 73t-68 212v265h-135v175h135v210h199v-210h253v-175h-253v-246z" />
    <glyph glyph-name="u.ordn" horiz-adv-x="874" 
d="M773 1298v-404q0 -159 -95 -240t-238 -81t-240 78t-99 243v404h199v-387q0 -77 37 -115t100 -37q63 0 101 38q37 38 37 114v387h198z" />
    <glyph glyph-name="egrave.ordn" horiz-adv-x="830" 
d="M420 1148q-60 0 -100 -35t-53 -99h301q-28 134 -148 134zM362 1398l-194 232h234l149 -232h-189zM267 881q28 -139 190 -139q82 0 158 67l119 -126q-116 -110 -292 -110t-277 102q-103 103 -103 269t100 270t257 104t253 -103t95 -269q0 -41 -3 -65h-497z" />
    <glyph glyph-name="zero.osf" horiz-adv-x="1376" 
d="M1007 547q0 147 -91 235q-92 88 -228 88t-227 -88t-91 -234t91 -234q90 -88 227 -89q137 0 228 88t91 234zM688 1121q164 1 298 -69t213 -202t79 -302t-79 -303q-79 -131 -213 -201t-298 -70t-298 70t-212 202q-79 132 -79 302t79 302q78 132 212 202t298 69z" />
    <glyph glyph-name="one.osf" horiz-adv-x="793" 
d="M636 0h-270v764l-312 -96v263l582 193v-1124z" />
    <glyph glyph-name="two.osf" horiz-adv-x="1135" 
d="M1067 250v-250h-947v215l406 254q112 70 158 127q46 56 46 120t-56 110t-148 44q-92 0 -162 -40q-68 -40 -131 -111l-168 172q72 89 174 150q131 82 321 81q192 -1 322 -107t130 -261t-92 -257t-223 -175l-124 -72h494z" />
    <glyph glyph-name="three.osf" horiz-adv-x="1149" 
d="M214 20q126 -139 332 -139q100 0 168 48t68 140t-78 143t-197 51h-164v243h164q107 0 177 48t70 134q0 88 -66 137t-167 48q-174 0 -283 -146l-175 170q73 102 193 163t281 61q222 1 360 -113t137 -300q0 -110 -55 -193t-154 -131q113 -46 177 -131t64 -193t-44 -189
q-126 -233 -504 -235q-130 0 -258 54t-210 153z" />
    <glyph glyph-name="four.osf" horiz-adv-x="1186" 
d="M925 578v-324h222v-254h-222v-340h-271v340h-614v201l453 893h289l-425 -840h297v324h271z" />
    <glyph glyph-name="five.osf" horiz-adv-x="1181" 
d="M1012 1094v-253h-582l-5 -293h169q244 0 371 -124q128 -124 128 -306q1 -114 -41 -207q-79 -177 -278 -245q-94 -32 -202 -33q-321 0 -507 219l158 187q59 -67 155 -110t202 -43t168 60t61 150q0 205 -292 205h-341l13 793h823z" />
    <glyph glyph-name="six.osf" horiz-adv-x="1198" 
d="M851 459q0 105 -72 171q-73 66 -183 67q-110 -1 -182 -67t-72 -170t72 -172t182 -68t183 67q72 67 72 172zM638 937q215 0 355 -136t141 -340q0 -137 -70 -249t-193 -175t-275 -63t-274 62t-192 174q-70 110 -70 266t136 360l397 598h330l-355 -502q34 5 70 5z" />
    <glyph glyph-name="seven.osf" horiz-adv-x="1126" 
d="M1067 1094v-212l-597 -1222h-320l593 1180h-684v254h1008z" />
    <glyph glyph-name="eight.osf" horiz-adv-x="1248" 
d="M624 1212q-92 0 -154 -51t-63 -135q0 -84 62 -137q62 -52 155 -52t155 52q63 53 63 137t-62 135q-64 51 -156 51zM625 609q-105 0 -177 -54t-72 -142t71 -142q71 -53 177 -53t177 53t71 141t-71 143q-71 54 -176 54zM119 1046q0 184 146 298t360 115q140 0 255 -50
q114 -50 182 -145t68 -218q0 -218 -214 -323q113 -47 181 -129q67 -82 67 -204t-73 -218t-195 -147t-271 -51q-147 0 -271 50t-197 147t-73 219t68 204t180 129q-213 103 -213 323z" />
    <glyph glyph-name="nine.osf" horiz-adv-x="1198" 
d="M601 397q110 0 182 67q72 68 72 172t-72 171t-182 67t-182 -67t-72 -171t72 -172q72 -67 182 -67zM559 158q-214 0 -354 136t-140 343t153 346t383 138q152 0 275 -62q123 -61 193 -173t70 -248q0 -175 -137 -379l-397 -598h-330l354 501q-28 -4 -70 -4z" />
    <glyph glyph-name="zero.tf" 
d="M340 717q0 -363 172 -453q48 -24 105 -24t104 24q168 88 168 453q0 241 -77 359t-193 118t-198 -107q-81 -106 -81 -370zM604 1459q310 0 461 -259q109 -184 109 -483q0 -447 -230 -634q-136 -109 -327 -109t-330 109q-233 184 -233 634q0 385 161 563q161 179 389 179z
" />
    <glyph glyph-name="one.tf" 
d="M202 262h340v822l-357 -127v276l632 223v-1194h325v-262h-940v262z" />
    <glyph glyph-name="two.tf" 
d="M588 1459q223 0 355 -127t131 -336q0 -122 -53 -218t-154 -200l-306 -319h548v-259h-947v216l507 519q118 120 117 246q0 94 -60 154t-156 60t-162 -41t-132 -117l-178 175q189 247 490 247z" />
    <glyph glyph-name="three.tf" 
d="M247 364q130 -138 335 -138q101 0 171 48t70 138t-79 139t-201 49h-167v246h168q110 0 180 48t71 132q0 86 -67 134q-68 48 -166 48q-183 -1 -295 -146l-174 175q165 222 478 222q227 0 367 -113t141 -298q0 -112 -56 -195t-158 -131q116 -45 181 -130t65 -183
q0 -259 -225 -368q-130 -65 -296 -66q-167 -1 -297 53t-211 154z" />
    <glyph glyph-name="four.tf" 
d="M971 902v-382h199v-258h-199v-262h-277v262h-636v201l503 970h307l-479 -913h305v382h277z" />
    <glyph glyph-name="five.tf" 
d="M1035 1434v-257h-580l-6 -287h164q241 0 372 -121t130 -310q0 -149 -71 -261q-70 -112 -188 -168t-270 -56t-282 56t-220 158l156 194q60 -66 157 -109t203 -43t166 59q62 59 62 149t-67 146q-68 56 -224 56h-341l15 794h824z" />
    <glyph glyph-name="six.tf" 
d="M610 696q-108 0 -178 -66t-72 -169q0 -103 72 -169t180 -67q108 0 179 66q71 65 71 169t-71 170q-73 66 -181 66zM653 939q217 0 357 -137t140 -343t-154 -345t-386 -140q-152 0 -274 62t-193 174q-70 111 -70 248q0 176 136 381l397 595h334l-353 -499q39 4 66 4z" />
    <glyph glyph-name="seven.tf" 
d="M1123 1434v-216l-594 -1218h-325l590 1176h-681v258h1010z" />
    <glyph glyph-name="eight.tf" 
d="M615 1209q-99 -1 -165 -49t-66 -136t66 -137t166 -49t165 50q66 50 66 136q0 88 -66 136t-166 49zM878 414q0 92 -76 144t-188 52t-186 -52t-75 -144q0 -92 75 -142q76 -51 188 -51t187 51q75 50 75 142zM615 1459q147 0 265 -48t190 -143t71 -220q0 -223 -219 -325
q254 -99 254 -333q0 -127 -76 -223q-76 -97 -203 -145q-126 -48 -282 -48q-155 0 -281 49t-202 145t-77 222q0 233 253 333q-218 101 -218 325q0 126 71 220t189 143q118 48 265 48z" />
    <glyph glyph-name="nine.tf" 
d="M617 737q109 0 180 66q71 65 71 169t-71 170t-180 66t-179 -66t-71 -169q1 -103 71 -169t179 -67zM575 495q-216 1 -356 137t-140 342t153 346q154 139 385 139q152 0 275 -62q124 -61 194 -173t70 -248q0 -177 -136 -381l-397 -595h-334l351 499q-26 -4 -65 -4z" />
    <glyph glyph-name="uni2007.tf" 
 />
    <glyph glyph-name="zero.tosf" 
d="M897 548q-1 152 -81 240q-80 89 -202 89q-122 1 -204 -89q-80 -90 -80 -242t81 -240t203 -88t203 89q80 89 80 241zM614 1121q154 0 279 -69t201 -201t74 -304q0 -172 -74 -304q-74 -131 -200 -201t-280 -70t-280 69q-125 69 -200 201t-75 305q0 172 75 304t200 201
q126 69 280 69z" />
    <glyph glyph-name="one.tosf" 
d="M198 254h329v527l-345 -100v267l616 176v-870l319 1v-255h-919v254z" />
    <glyph glyph-name="two.tosf" 
d="M1118 250v-250h-947v215l407 254q112 70 158 127q46 56 45 120q0 64 -56 110t-148 44q-93 0 -161 -40t-131 -111l-169 172q72 89 174 150q131 82 321 81q191 -1 321 -107t131 -261q0 -155 -92 -257t-222 -175l-124 -72h493z" />
    <glyph glyph-name="three.tosf" 
d="M255 20q127 -139 333 -139q100 0 168 48t67 140q0 92 -78 143t-197 51h-164v243h164q108 0 178 48t69 134q0 88 -66 137t-167 48q-174 0 -283 -146l-175 170q72 102 192 163t282 61q222 1 360 -113t137 -300q0 -110 -55 -193t-154 -131q113 -46 177 -131t64 -193
t-44 -189q-125 -233 -503 -235q-130 0 -260 54q-128 54 -209 153z" />
    <glyph glyph-name="four.tosf" 
d="M959 578v-324h223v-254h-223v-340h-270v340h-614v201l452 893h290l-425 -840h297v324h270z" />
    <glyph glyph-name="five.tosf" 
d="M1034 1094v-253h-581l-6 -293h169q246 0 372 -124q127 -124 127 -306q0 -114 -41 -207q-40 -93 -112 -153q-147 -123 -367 -125q-321 0 -508 219l159 187q59 -67 155 -110t202 -43t167 60t61 150q0 205 -291 205h-341l13 793h822z" />
    <glyph glyph-name="six.tosf" 
d="M871 459q0 105 -72 171q-73 66 -183 67q-110 -1 -182 -67t-72 -170t72 -172t183 -68q110 0 182 67t72 172zM658 937q216 0 356 -136t140 -340q0 -137 -70 -249t-192 -175t-275 -63t-275 62t-192 174q-70 111 -70 247q0 175 136 379l397 598h330l-354 -502q34 5 69 5z" />
    <glyph glyph-name="seven.tosf" 
d="M1133 1094v-212l-597 -1222h-321l594 1180h-684v254h1008z" />
    <glyph glyph-name="eight.tosf" 
d="M624 1212q-92 0 -156 -51q-62 -51 -62 -135t62 -137q62 -52 155 -52t155 52q62 53 62 137t-62 135t-154 51zM624 609q-106 0 -178 -54t-72 -142t72 -142q72 -53 178 -53t176 53q71 53 71 141t-71 143q-71 54 -176 54zM118 1046q0 184 146 298t360 115q140 0 255 -50
t183 -145t67 -218q0 -218 -214 -323q113 -47 181 -129t68 -204t-74 -218t-196 -147t-270 -51t-272 50t-196 147q-73 97 -73 219t68 204t180 129q-213 103 -213 323z" />
    <glyph glyph-name="nine.tosf" 
d="M611 397q110 0 182 67q72 68 72 172t-72 171t-182 67q-109 0 -181 -67t-72 -171t71 -172q72 -67 182 -67zM569 158q-214 0 -354 136t-140 343t153 346t383 138q152 0 275 -62q123 -61 193 -173t70 -248q0 -175 -136 -379l-398 -598h-329l353 501q-28 -4 -70 -4z" />
    <glyph glyph-name="uni2007.tosf" 
 />
    <glyph glyph-name="exclam.sc" horiz-adv-x="567" 
d="M285 315q69 -1 119 -51t50 -119t-50 -119t-120 -52q-68 0 -119 52t-51 120t51 118t120 51zM428 1097l-31 -681h-227l-31 681h289z" />
    <glyph glyph-name="numbersign.sc" horiz-adv-x="1238" 
d="M554 654l-46 -205h176l46 205h-176zM223 857h154l53 240h221l-53 -240h176l53 240h223l-54 -240h152l-43 -203h-153l-46 -205h152l-43 -205h-154l-53 -244h-222l53 244h-176l-53 -244h-223l54 244h-151l44 205h153l45 205h-153z" />
    <glyph glyph-name="dollar.sc" 
d="M437 767q0 -53 90 -78v161q-90 -24 -90 -83zM817 331q1 29 -22 47t-70 33v-166q91 24 92 86zM527 1220h198v-143q173 -17 337 -105l-111 -199q-112 63 -226 82v-200h2q166 -27 260 -101q95 -74 91 -208t-102 -218t-251 -106v-150h-198v146q-241 22 -388 127l123 196
q126 -81 265 -101v202l-3 1q-170 29 -259 103t-87 205t98 217q95 86 251 108v144z" />
    <glyph glyph-name="percent.sc" horiz-adv-x="1648" 
d="M1258 402q-54 0 -88 -34t-34 -86t34 -86t88 -34t89 34t34 86q0 52 -34 86q-35 34 -89 34zM1258 584q136 0 228 -86t92 -216t-92 -216t-228 -86t-228 86q-91 86 -91 215t91 216q92 87 228 87zM1339 1097l-797 -1097h-239l798 1097h238zM389 936q-53 0 -88 -34t-35 -86
t35 -85q35 -35 88 -35t88 34t35 86t-35 86t-88 34zM389 1118q137 0 228 -86t91 -216t-90 -216q-92 -86 -229 -86t-228 86t-90 216q0 130 90 216q91 86 228 86z" />
    <glyph glyph-name="ampersand.sc" 
d="M482 913q-50 1 -78 -23t-28 -58t18 -60q18 -24 70 -75q61 41 93 72t32 65t-29 56q-28 23 -78 23zM333 301q0 -113 139 -113q70 0 150 64l-193 179q-96 -75 -96 -130zM80 284q0 144 190 285q-71 72 -102 130t-31 131q0 126 96 206t250 80t248 -77t94 -203q1 -79 -55 -144
t-156 -135l156 -146l168 212l175 -124l-184 -235l-1 -1l280 -263h-318l-114 103q-152 -123 -329 -123t-272 80t-95 224z" />
    <glyph glyph-name="parenleft.sc" horiz-adv-x="713" 
d="M343 549q0 -161 78 -286t232 -196l-73 -214q-221 78 -357 264q-135 185 -135 431t135 432q136 186 357 264l73 -213q-155 -71 -233 -196t-77 -286z" />
    <glyph glyph-name="parenright.sc" horiz-adv-x="713" 
d="M371 548q0 161 -78 286t-233 196l74 214q221 -78 356 -264q136 -186 136 -432t-136 -431q-136 -186 -356 -264l-74 213q155 71 233 196t78 286z" />
    <glyph glyph-name="asterisk.sc" horiz-adv-x="813" 
d="M135 975l182 -65l-6 187h191l-6 -187l182 65l59 -180l-185 -52l118 -145l-155 -112l-108 156l-110 -156l-154 112l117 145l-184 52z" />
    <glyph glyph-name="slash.sc" horiz-adv-x="952" 
d="M892 1097l-554 -1097h-278l555 1097h277z" />
    <glyph glyph-name="zero.sc" horiz-adv-x="1184" 
d="M592 874q-102 0 -168 -86t-67 -240q0 -154 66 -240q65 -86 169 -86t170 85t66 241t-66 241q-68 85 -170 85zM1091 526q1 -152 -67 -282q-68 -132 -180 -198t-234 -66q-230 0 -373 152t-143 414q0 261 142 415t356 154t353 -150q146 -153 146 -439z" />
    <glyph glyph-name="one.sc" horiz-adv-x="734" 
d="M583 0h-252v766l-284 -103v248l536 202v-1113z" />
    <glyph glyph-name="two.sc" horiz-adv-x="954" 
d="M862 755q0 -97 -46 -173t-131 -155l-208 -193h411v-234h-771v198l396 372q87 81 87 154t-43 112q-44 38 -113 38t-121 -30t-105 -85l-157 164q157 193 408 192q179 0 286 -99t107 -261z" />
    <glyph glyph-name="three.sc" horiz-adv-x="961" 
d="M858 800q0 -178 -171 -249q92 -33 143 -96q52 -63 52 -147t-36 -147q-104 -181 -418 -181q-106 0 -210 42t-171 118l143 164q100 -102 247 -102q80 0 131 30q52 30 52 90q0 58 -58 91t-145 32h-130v214h131q80 0 130 31q50 32 50 86t-46 84t-121 30q-140 0 -229 -105
l-149 164q141 166 389 166q185 0 301 -86q115 -87 115 -229z" />
    <glyph glyph-name="four.sc" horiz-adv-x="976" 
d="M793 711v-289h146v-235h-146v-187h-253v187h-502v178l378 731h277l-353 -674h200v289h253z" />
    <glyph glyph-name="five.sc" horiz-adv-x="982" 
d="M830 1097v-233h-448l-5 -178h117q193 0 298 -89t105 -249t-120 -265q-120 -104 -308 -103q-251 0 -408 153l128 184q47 -43 125 -75t156 -32q80 0 123 36t43 96q0 126 -209 126h-277l13 629h667z" />
    <glyph glyph-name="six.sc" horiz-adv-x="988" 
d="M492 513q-74 1 -123 -43t-49 -112t50 -110q48 -44 122 -44t122 44t50 111q0 67 -49 111t-123 43zM927 357q0 -161 -125 -269q-124 -108 -310 -108t-311 107t-125 259t113 314l302 437h304l-274 -372l26 1q178 0 289 -104t111 -265z" />
    <glyph glyph-name="seven.sc" horiz-adv-x="929" 
d="M873 1097v-199l-453 -898h-300l455 862h-519v235h817z" />
    <glyph glyph-name="eight.sc" horiz-adv-x="1058" 
d="M528 895q-68 0 -110 -32q-44 -32 -44 -88t44 -89t110 -33t112 33q44 33 44 89t-44 88t-112 32zM528 456q-74 0 -124 -34t-50 -94t51 -94t124 -34t124 33t51 93t-52 96q-50 34 -124 34zM528 1115q178 0 301 -85q121 -86 121 -230q0 -167 -177 -247q206 -78 206 -255
q0 -145 -130 -232t-321 -86q-262 0 -387 147q-61 73 -61 171q0 177 205 255q-177 80 -177 247q0 143 121 229t299 86z" />
    <glyph glyph-name="nine.sc" horiz-adv-x="988" 
d="M497 583q75 -1 123 43t48 111t-49 111t-123 43q-74 0 -122 -44q-49 -44 -49 -111t49 -110t123 -43zM461 370q-178 0 -289 104t-111 264q1 160 125 270q124 108 310 108t311 -107t125 -259t-113 -314l-302 -436h-303l272 371q-8 -1 -25 -1z" />
    <glyph glyph-name="question.sc" horiz-adv-x="792" 
d="M290 315q70 -1 120 -51t50 -119t-51 -119t-119 -52q-68 0 -120 52q-51 52 -51 120t51 118t120 51zM475 779q0 101 -217 101q-41 0 -122 -8l-17 237q76 12 178 12q208 -1 327 -89t119 -225q0 -268 -334 -326l-7 -78h-227v270h82q218 0 218 106z" />
    <glyph glyph-name="at.sc" horiz-adv-x="1540" 
d="M765 677q-51 0 -85 -36q-34 -35 -33 -91q0 -56 33 -92q32 -36 84 -37q52 0 85 36q33 35 33 91t-32 92q-34 36 -85 37zM1066 842v-334q0 -115 64 -115q48 0 76 50t28 151q0 184 -129 305t-332 121t-333 -131t-130 -340t128 -340t331 -131q150 0 268 80l109 -147
q-152 -113 -360 -113t-360 84t-237 232q-84 148 -84 334t85 334q84 148 238 234q154 84 346 84t343 -80q152 -80 234 -218q83 -138 83 -306q0 -166 -86 -270t-232 -104t-206 101q-62 -83 -184 -83t-198 88t-76 220t75 222q76 88 186 88t170 -77v61h183z" />
    <glyph glyph-name="bracketleft.sc" horiz-adv-x="673" 
d="M613 115v-217h-462v1302h462v-218h-216v-867h216z" />
    <glyph glyph-name="backslash.sc" horiz-adv-x="952" 
d="M614 0l-554 1097h277l555 -1097h-278z" />
    <glyph glyph-name="bracketright.sc" horiz-adv-x="673" 
d="M60 983v217h463v-1302h-463v218h216v867h-216z" />
    <glyph glyph-name="a.sc" 
d="M611 845l-146 -386h292zM771 1097l437 -1097h-277l-87 230h-465l-87 -230h-272l439 1097h312z" />
    <glyph glyph-name="b.sc" horiz-adv-x="1181" 
d="M624 656q176 0 176 112t-176 112h-212v-224h212zM645 445h-233v-230h233q89 0 135 27t45 90q0 113 -180 113zM151 1097h483q211 1 323 -79t112 -232q1 -80 -43 -141t-116 -90q79 -27 131 -93t53 -149q0 -153 -110 -233t-322 -80h-511v1097z" />
    <glyph glyph-name="c.sc" horiz-adv-x="1227" 
d="M359 545q0 -144 90 -230t220 -86q179 0 273 144l212 -150q-78 -115 -202 -179t-280 -64q-256 0 -420 160t-164 408t164 408t420 160q160 0 291 -70t201 -194l-227 -129q-86 144 -268 144q-134 0 -222 -89t-88 -233z" />
    <glyph glyph-name="d.sc" horiz-adv-x="1287" 
d="M618 856h-207v-615h207q152 0 231 84q79 83 79 223t-78 224q-80 84 -232 84zM151 1097h473q260 0 418 -151q158 -150 157 -398q0 -248 -158 -398t-417 -150h-473v1097z" />
    <glyph glyph-name="e.sc" horiz-adv-x="1136" 
d="M151 0v1097h862v-230h-601v-200h567v-229h-567v-210h605l-1 -228h-865z" />
    <glyph glyph-name="f.sc" horiz-adv-x="1094" 
d="M966 654v-233h-554v-421h-261v1097h854v-235h-593v-208h554z" />
    <glyph glyph-name="g.sc" horiz-adv-x="1302" 
d="M678 1116q258 0 414 -160l-186 -181q-94 97 -234 97t-229 -90q-87 -91 -87 -239q0 -149 90 -237t221 -88q234 0 283 197h-271v201h530q5 -48 5 -81q0 -166 -76 -295q-76 -128 -197 -194t-275 -66t-287 70t-212 200t-79 298q0 250 166 409t424 159z" />
    <glyph glyph-name="h.sc" horiz-adv-x="1308" 
d="M412 1097v-423h485v423h261v-1097h-261v433h-485v-433h-261v1097h261z" />
    <glyph glyph-name="i.sc" horiz-adv-x="562" 
d="M412 1097v-1097h-261v1097h261z" />
    <glyph glyph-name="j.sc" horiz-adv-x="949" 
d="M807 1097v-685q0 -210 -113 -321t-304 -111q-237 0 -363 137l140 196q80 -84 205 -84q174 0 174 205v663h261z" />
    <glyph glyph-name="k.sc" horiz-adv-x="1207" 
d="M412 1097v-427h107l331 427h322l-445 -535l481 -562h-328l-364 435h-104v-435h-261v1097h261z" />
    <glyph glyph-name="l.sc" horiz-adv-x="1019" 
d="M990 241v-241h-839v1097h261v-856h578z" />
    <glyph glyph-name="m.sc" horiz-adv-x="1568" 
d="M1418 1097v-1097h-255v777l-247 -674h-264l-246 671v-774h-255v1097h367l266 -711l267 711h367z" />
    <glyph glyph-name="n.sc" horiz-adv-x="1343" 
d="M1193 1097v-1097h-248l-533 670v-670h-261v1097h248l534 -670v670h260z" />
    <glyph glyph-name="o.sc" horiz-adv-x="1344" 
d="M673 867q-138 0 -226 -89t-88 -230t88 -230t226 -89t226 89t87 230q0 141 -87 230q-88 89 -226 89zM673 1116q169 0 302 -73t207 -203t74 -292t-74 -292t-207 -203t-302 -73q-256 0 -421 160q-164 161 -164 408q0 248 164 408t421 160z" />
    <glyph glyph-name="p.sc" horiz-adv-x="1132" 
d="M629 603q162 0 164 128q-1 63 -43 96t-121 33h-217v-257h217zM635 372h-223v-372h-261v1097h481q206 -1 316 -99t111 -266q0 -168 -110 -264t-314 -96z" />
    <glyph glyph-name="q.sc" horiz-adv-x="1352" 
d="M986 548q0 141 -87 230q-88 89 -226 89t-226 -89t-88 -230t88 -230t226 -89q83 0 150 35l-195 258h277l64 -86q17 52 17 112zM673 1116q169 0 303 -73t207 -203q74 -130 74 -300t-100 -308l174 -232h-306l-49 65q-140 -85 -306 -85t-300 73t-208 203t-74 292t74 292
t208 203t303 73z" />
    <glyph glyph-name="r.sc" horiz-adv-x="1157" 
d="M633 863h-222v-232h222q168 0 168 116t-168 116zM151 1097h486q207 0 317 -93q110 -94 110 -240t-82 -232t-231 -110l332 -422h-317l-304 414h-51v-414h-260v1097z" />
    <glyph glyph-name="s.sc" horiz-adv-x="1146" 
d="M598 883q-87 0 -139 -28q-53 -28 -53 -78t61 -70q61 -21 168 -38l58 -10q170 -28 267 -106t97 -207q1 -92 -39 -164t-108 -115q-138 -87 -303 -87q-331 0 -517 143l127 205q166 -117 369 -117q84 0 138 28q54 29 54 77t-54 72t-176 39l-59 8q-169 24 -264 104t-95 230
q0 151 129 249t347 98t432 -119l-115 -207q-156 93 -325 93z" />
    <glyph glyph-name="t.sc" horiz-adv-x="1001" 
d="M972 1097v-242h-341v-855h-260v855h-341v242h942z" />
    <glyph glyph-name="u.sc" horiz-adv-x="1243" 
d="M1108 1097v-648q0 -225 -129 -347t-357 -122t-358 122q-129 122 -129 347v648h261v-639q0 -113 60 -171t166 -58t165 58t60 171v639h261z" />
    <glyph glyph-name="v.sc" horiz-adv-x="1197" 
d="M1177 1097l-422 -1097h-313l-422 1097h277l303 -837l304 837h273z" />
    <glyph glyph-name="w.sc" horiz-adv-x="1782" 
d="M1750 1097l-328 -1097h-308l-223 728l-224 -728h-308l-326 1097h266l219 -800l236 800h278l236 -801l219 801h263z" />
    <glyph glyph-name="x.sc" horiz-adv-x="1125" 
d="M1092 1097l-369 -540l374 -557h-300l-236 368l-236 -368h-296l373 557l-367 540h300l229 -355l231 355h297z" />
    <glyph glyph-name="y.sc" horiz-adv-x="1133" 
d="M701 0h-261v416l-434 681h302l263 -442l263 442h293l-426 -680v-417z" />
    <glyph glyph-name="z.sc" horiz-adv-x="1092" 
d="M1002 1097v-205l-567 -658h567v-234h-912v203l566 659h-566v235h912z" />
    <glyph glyph-name="braceleft.sc" horiz-adv-x="763" 
d="M703 988h-63q-62 0 -98 -33t-31 -94l4 -63q5 -94 -34 -156t-139 -93q98 -31 138 -93t35 -156l-4 -63q-4 -61 31 -95t98 -33h63v-212h-93q-174 0 -262 93t-82 255l3 68q3 63 -42 98q-46 34 -130 34v207q84 0 130 34t42 99l-3 68q-7 163 82 255t262 92h93v-212z" />
    <glyph glyph-name="braceright.sc" horiz-adv-x="763" 
d="M124 988h-64v212h94q174 0 262 -93t82 -254l-3 -68q-3 -65 43 -99t129 -34v-207q-84 0 -130 -34t-42 -98l3 -68q7 -162 -82 -255t-262 -93h-94v212h64q62 0 98 33q35 34 31 95l-4 63q-5 94 34 156t139 93q-99 31 -139 93q-39 62 -34 156l4 63q4 60 -31 94q-36 33 -98 33z
" />
    <glyph glyph-name="exclamdown.sc" horiz-adv-x="567" 
d="M283 781q-69 0 -119 51q-50 52 -50 120t50 119t119 51t119 -51t52 -120q0 -69 -51 -119t-120 -51zM139 0l31 681h227l31 -681h-289z" />
    <glyph glyph-name="cent.sc" 
d="M476 548q0 -104 83 -156v310q-83 -50 -83 -154zM559 1097h198v-154q156 -29 251 -155l-179 -132q-35 38 -72 56v-328q39 17 74 56l178 -133q-96 -127 -252 -155v-152h-198v156q-148 32 -236 138q-89 106 -89 254t88 254t237 137v158z" />
    <glyph glyph-name="sterling.sc" 
d="M1049 234v-234h-872v234h126v218h-126v193h126v36q0 215 128 325q128 109 325 109t315 -115l-168 -179q-57 53 -149 53t-144 -49q-54 -49 -54 -148v-32h382v-193h-382v-218h493z" />
    <glyph glyph-name="currency.sc" 
d="M614 347q88 1 150 59t62 142t-62 142t-150 58t-149 -58t-61 -142t60 -142q62 -58 150 -59zM616 938q112 0 206 -56l128 127l136 -136l-127 -124q57 -93 57 -202t-57 -200l128 -125l-136 -134l-128 126q-95 -56 -209 -56t-208 56l-128 -126l-136 134l127 126
q-56 92 -56 200t56 200l-128 125l135 136l130 -128q98 57 210 57z" />
    <glyph glyph-name="yen.sc" 
d="M1036 356v-154h-290v-202h-252v202h-290v154h290v89h-290v154h219l-343 498h292l249 -372l244 372h284l-337 -498h224v-154h-290v-89h290z" />
    <glyph glyph-name="section.sc" horiz-adv-x="1070" 
d="M460 519l-22 3q-75 -25 -74 -85q0 -49 82 -70q36 -9 120 -20t100 -14q64 27 64 79t-54 69q-54 18 -158 31zM561 902q-81 0 -131 -22t-51 -63q0 -41 54 -59t169 -34l50 -7q154 -23 241 -87t87 -169q0 -133 -106 -210q90 -69 90 -167q1 -185 -130 -265t-281 -80
q-291 0 -463 111l114 193q154 -92 325 -92q83 0 135 22q51 22 51 64t-57 58t-158 32l-55 8q-330 50 -329 272q0 121 106 196q-92 70 -92 203t118 220t321 87t381 -92l-100 -193q-152 74 -289 74z" />
    <glyph glyph-name="copyright.sc" horiz-adv-x="1506" 
d="M627 553q0 -69 40 -106t96 -36q84 0 130 77l149 -100q-94 -147 -277 -147q-143 1 -234 89t-91 227t91 227t234 88q95 0 171 -43t114 -120l-161 -83q-40 78 -126 77q-59 0 -98 -40q-38 -41 -38 -110zM1194 556q0 180 -129 308t-311 127q-182 0 -313 -127
q-130 -128 -130 -308t130 -308q131 -128 313 -128t311 128t129 308zM754 1187q176 -1 324 -85q150 -84 236 -230t86 -316t-87 -316t-235 -230t-324 -84t-326 84q-149 84 -236 230t-87 316t87 316q86 145 236 230t326 85z" />
    <glyph glyph-name="ordfeminine.sc" horiz-adv-x="953" 
d="M475 893l-98 -273h195zM599 1097l317 -833h-217l-61 171h-327l-60 -171h-214l318 833h244z" />
    <glyph glyph-name="degree.sc" horiz-adv-x="727" 
d="M364 677q55 0 94 38q40 37 40 91t-40 92t-94 38t-94 -38t-40 -92t40 -91q40 -38 94 -38zM364 492q-135 0 -232 92t-97 222q0 131 97 225q97 93 232 93t231 -94t96 -224t-96 -222t-231 -92z" />
    <glyph glyph-name="ordmasculine.sc" horiz-adv-x="1024" 
d="M738 680q0 104 -63 170t-163 65q-100 1 -162 -65q-63 -66 -63 -170t63 -169q62 -66 162 -66t163 66q63 65 63 169zM513 1112q192 0 315 -122t123 -309t-123 -309t-315 -123q-192 0 -316 122q-123 122 -123 309t123 310q124 122 316 122z" />
    <glyph glyph-name="questiondown.sc" horiz-adv-x="792" 
d="M503 781q-69 0 -120 51q-51 52 -51 120t51 119t120 51t120 -51t51 -120t-51 -119t-120 -51zM535 217q41 0 121 7l18 -236q-76 -12 -178 -13q-208 0 -328 89q-119 89 -119 226q0 267 335 325l6 78h227v-269h-81q-218 0 -219 -107q0 -100 218 -100z" />
    <glyph glyph-name="germandbls.sc" horiz-adv-x="2272" 
d="M1723 883q-87 0 -139 -28t-52 -77t59 -71q60 -21 169 -38l59 -10q171 -28 267 -106t96 -207q0 -92 -39 -164t-107 -115q-138 -87 -303 -87q-330 0 -518 143l127 205q166 -117 369 -117q85 0 139 28q54 29 54 77t-54 72t-177 39l-58 8q-169 24 -264 104t-95 230
q0 151 128 249q129 98 347 98t433 -119l-116 -207q-156 93 -325 93zM598 883q-87 0 -139 -28q-53 -28 -53 -78t61 -70q61 -21 168 -38l58 -10q170 -28 267 -106t97 -207q1 -92 -39 -164t-108 -115q-138 -87 -303 -87q-331 0 -517 143l127 205q166 -117 369 -117q84 0 138 28
q54 29 54 77t-54 72t-176 39l-59 8q-169 24 -264 104t-95 230q0 151 129 249t347 98t432 -119l-115 -207q-156 93 -325 93z" />
    <glyph glyph-name="agrave.sc" 
d="M534 1238l-271 324h320l205 -324h-254zM611 845l-146 -386h292zM771 1097l437 -1097h-277l-87 230h-465l-87 -230h-272l439 1097h312z" />
    <glyph glyph-name="aacute.sc" 
d="M691 1238h-255l206 324h320zM611 845l-146 -386h292zM771 1097l437 -1097h-277l-87 230h-465l-87 -230h-272l439 1097h312z" />
    <glyph glyph-name="acircumflex.sc" 
d="M999 1228h-259l-126 157l-125 -157h-259l224 323h322zM611 845l-146 -386h292zM771 1097l437 -1097h-277l-87 230h-465l-87 -230h-272l439 1097h312z" />
    <glyph glyph-name="atilde.sc" 
d="M479 1539q97 0 165 -36q67 -36 110 -36q43 -1 118 68l143 -153q-105 -134 -270 -134q-89 0 -203 54q-38 18 -63 18q-53 0 -127 -69l-141 153q104 135 268 135zM611 845l-146 -386h292zM771 1097l437 -1097h-277l-87 230h-465l-87 -230h-272l439 1097h312z" />
    <glyph glyph-name="adieresis.sc" 
d="M834 1570q72 0 122 -50t49 -122q0 -72 -50 -120q-51 -49 -123 -49t-121 49q-49 50 -49 122t50 121t122 49zM392 1570q72 0 122 -50t50 -122t-50 -120q-50 -49 -122 -49t-122 49q-49 50 -49 122t49 121q50 49 122 49zM611 845l-146 -386h292zM771 1097l437 -1097h-277
l-87 230h-465l-87 -230h-272l439 1097h312z" />
    <glyph glyph-name="aring.sc" 
d="M506 1469q0 -47 32 -79t76 -32t77 32q32 32 32 78t-32 80q-33 32 -77 32t-76 -32t-32 -79zM883 1469q0 -110 -79 -187q-78 -77 -190 -77q-112 -1 -190 77t-78 187t79 187t189 78t190 -78q79 -78 79 -187zM611 845l-146 -386h292zM771 1097l437 -1097h-277l-87 230h-465
l-87 -230h-272l439 1097h312z" />
    <glyph glyph-name="ae.sc" horiz-adv-x="1892" 
d="M906 435v395l-278 -395h278zM906 0v210h-437l-147 -210h-306l792 1097h960v-230h-601v-200h568v-229h-568v-210h606l-1 -228h-866z" />
    <glyph glyph-name="ccedilla.sc" horiz-adv-x="1227" 
d="M359 545q0 -144 90 -230t220 -86q179 0 273 144l212 -150q-135 -200 -384 -236l-98 -316h-258l109 325q-197 43 -316 193t-119 359q0 248 164 408t420 160q160 0 291 -70t201 -194l-227 -129q-86 144 -268 144q-134 0 -222 -89t-88 -233z" />
    <glyph glyph-name="egrave.sc" horiz-adv-x="1136" 
d="M498 1237l-271 324h320l206 -324h-255zM151 0v1097h862v-230h-601v-200h567v-229h-567v-210h605l-1 -228h-865z" />
    <glyph glyph-name="eacute.sc" horiz-adv-x="1136" 
d="M655 1237h-255l206 324h320zM151 0v1097h862v-230h-601v-200h567v-229h-567v-210h605l-1 -228h-865z" />
    <glyph glyph-name="ecircumflex.sc" horiz-adv-x="1136" 
d="M964 1227h-259l-126 157l-125 -157h-259l223 323h322zM151 0v1097h862v-230h-601v-200h567v-229h-567v-210h605l-1 -228h-865z" />
    <glyph glyph-name="edieresis.sc" horiz-adv-x="1136" 
d="M798 1569q72 0 122 -50q50 -49 49 -121q0 -72 -50 -121t-122 -49t-121 48t-49 122q0 73 49 122q50 49 122 49zM356 1569q72 0 122 -50q50 -49 50 -121t-50 -121t-123 -49t-121 48t-49 122q0 73 49 122q50 49 122 49zM151 0v1097h862v-230h-601v-200h567v-229h-567v-210
h605l-1 -228h-865z" />
    <glyph glyph-name="igrave.sc" horiz-adv-x="562" 
d="M200 1238l-271 324h320l206 -324h-255zM412 1097v-1097h-261v1097h261z" />
    <glyph glyph-name="iacute.sc" horiz-adv-x="562" 
d="M357 1238h-255l206 324h320zM412 1097v-1097h-261v1097h261z" />
    <glyph glyph-name="icircumflex.sc" horiz-adv-x="562" 
d="M666 1228h-259l-126 157l-125 -157h-259l223 323h322zM412 1097v-1097h-261v1097h261z" />
    <glyph glyph-name="idieresis.sc" horiz-adv-x="562" 
d="M500 1570q72 0 122 -50t49 -122q0 -72 -50 -120q-51 -49 -123 -49t-121 49q-49 50 -49 122t50 121t122 49zM58 1229q-72 0 -122 49q-48 50 -48 122t48 121q50 49 122 49t122 -50t50 -122t-50 -120q-50 -49 -122 -49zM412 1097v-1097h-261v1097h261z" />
    <glyph glyph-name="eth.sc" horiz-adv-x="1399" 
d="M776 662v-224h-253v-197h208q152 0 231 84q79 83 79 223t-79 224t-231 84h-208v-194h253zM263 1097h473q260 0 418 -151q158 -150 158 -398t-158 -398t-418 -150h-473v438h-173v224h173v435z" />
    <glyph glyph-name="ntilde.sc" horiz-adv-x="1343" 
d="M529 1539q97 0 165 -36q67 -36 110 -36q44 -1 119 68l142 -153q-105 -134 -269 -134q-90 0 -204 54q-38 18 -63 18q-53 0 -127 -69l-141 153q104 135 268 135zM1193 1097v-1097h-248l-533 670v-670h-261v1097h248l534 -670v670h260z" />
    <glyph glyph-name="ograve.sc" horiz-adv-x="1344" 
d="M592 1238l-270 324h319l206 -324h-255zM673 867q-138 0 -226 -89t-88 -230t88 -230t226 -89t226 89t87 230q0 141 -87 230q-88 89 -226 89zM673 1116q169 0 302 -73t207 -203t74 -292t-74 -292t-207 -203t-302 -73q-256 0 -421 160q-164 161 -164 408q0 248 164 408
t421 160z" />
    <glyph glyph-name="oacute.sc" horiz-adv-x="1344" 
d="M750 1238h-255l205 324h320zM673 867q-138 0 -226 -89t-88 -230t88 -230t226 -89t226 89t87 230q0 141 -87 230q-88 89 -226 89zM673 1116q169 0 302 -73t207 -203t74 -292t-74 -292t-207 -203t-302 -73q-256 0 -421 160q-164 161 -164 408q0 248 164 408t421 160z" />
    <glyph glyph-name="ocircumflex.sc" horiz-adv-x="1344" 
d="M1058 1228h-259l-126 157l-125 -157h-259l223 323h323zM673 867q-138 0 -226 -89t-88 -230t88 -230t226 -89t226 89t87 230q0 141 -87 230q-88 89 -226 89zM673 1116q169 0 302 -73t207 -203t74 -292t-74 -292t-207 -203t-302 -73q-256 0 -421 160q-164 161 -164 408
q0 248 164 408t421 160z" />
    <glyph glyph-name="otilde.sc" horiz-adv-x="1344" 
d="M538 1539q96 0 164 -36q67 -36 110 -36q44 -1 119 68l142 -153q-105 -134 -269 -134q-90 0 -204 54q-38 18 -62 18q-53 0 -127 -69l-142 153q104 135 269 135zM673 867q-138 0 -226 -89t-88 -230t88 -230t226 -89t226 89t87 230q0 141 -87 230q-88 89 -226 89zM673 1116
q169 0 302 -73t207 -203t74 -292t-74 -292t-207 -203t-302 -73q-256 0 -421 160q-164 161 -164 408q0 248 164 408t421 160z" />
    <glyph glyph-name="odieresis.sc" horiz-adv-x="1344" 
d="M892 1570q72 0 122 -50t49 -122q0 -72 -50 -120q-50 -49 -122 -49t-121 49q-49 50 -49 122t49 121q50 49 122 49zM450 1570q72 0 122 -50t50 -122t-50 -120q-50 -49 -122 -49t-122 49q-48 50 -48 122t49 121t121 49zM673 867q-138 0 -226 -89t-88 -230t88 -230t226 -89
t226 89t87 230q0 141 -87 230q-88 89 -226 89zM673 1116q169 0 302 -73t207 -203t74 -292t-74 -292t-207 -203t-302 -73q-256 0 -421 160q-164 161 -164 408q0 248 164 408t421 160z" />
    <glyph glyph-name="oslash.sc" horiz-adv-x="1344" 
d="M673 867q-138 0 -226 -89t-88 -230q0 -74 25 -134l426 425q-63 28 -137 28zM986 548q0 75 -27 136l-427 -426q63 -29 141 -29q138 0 226 89q87 89 87 230zM673 1116q184 0 326 -88l100 99l152 -151l-96 -96q101 -142 101 -318t-74 -306t-207 -203t-311 -73t-321 89
l-98 -99l-154 151l96 96q-99 142 -99 331q0 248 164 408t421 160z" />
    <glyph glyph-name="ugrave.sc" horiz-adv-x="1243" 
d="M541 1238l-271 324h320l206 -324h-255zM1108 1097v-648q0 -225 -129 -347t-357 -122t-358 122q-129 122 -129 347v648h261v-639q0 -113 60 -171t166 -58t165 58t60 171v639h261z" />
    <glyph glyph-name="uacute.sc" horiz-adv-x="1243" 
d="M698 1238h-255l206 324h320zM1108 1097v-648q0 -225 -129 -347t-357 -122t-358 122q-129 122 -129 347v648h261v-639q0 -113 60 -171t166 -58t165 58t60 171v639h261z" />
    <glyph glyph-name="ucircumflex.sc" horiz-adv-x="1243" 
d="M1007 1228h-259l-126 157l-125 -157h-259l223 323h322zM1108 1097v-648q0 -225 -129 -347t-357 -122t-358 122q-129 122 -129 347v648h261v-639q0 -113 60 -171t166 -58t165 58t60 171v639h261z" />
    <glyph glyph-name="udieresis.sc" horiz-adv-x="1243" 
d="M840 1570q72 0 122 -50t50 -122t-50 -120q-50 -49 -122 -49t-121 49q-49 50 -49 122t49 121t121 49zM398 1229q-74 0 -122 49q-48 50 -48 122t49 121t121 49t123 -50q49 -50 49 -122t-50 -120q-50 -49 -122 -49zM1108 1097v-648q0 -225 -129 -347t-357 -122t-358 122
q-129 122 -129 347v648h261v-639q0 -113 60 -171t166 -58t165 58t60 171v639h261z" />
    <glyph glyph-name="yacute.sc" horiz-adv-x="1133" 
d="M648 1238h-255l206 324h320zM701 0h-261v416l-434 681h302l263 -442l263 442h293l-426 -680v-417z" />
    <glyph glyph-name="thorn.sc" horiz-adv-x="1136" 
d="M631 433q160 0 162 126q-1 60 -43 93t-119 33h-215v-252h215zM416 1097v-172h219q206 0 317 -99t111 -266t-111 -265t-315 -98h-221v-197h-265v1097h265z" />
    <glyph glyph-name="ydieresis.sc" horiz-adv-x="1133" 
d="M790 1570q72 0 122 -50t50 -122t-50 -120q-50 -49 -122 -49t-122 49q-48 50 -48 122t49 121t121 49zM348 1570q72 0 123 -50q49 -50 49 -122t-50 -120q-50 -49 -122 -49t-121 49q-49 50 -49 122t49 121t121 49zM701 0h-261v416l-434 681h302l263 -442l263 442h293
l-426 -680v-417z" />
    <glyph glyph-name="dotlessi.sc" horiz-adv-x="562" 
d="M412 1097v-1097h-261v1097h261z" />
    <glyph glyph-name="ij.sc" horiz-adv-x="1511" 
d="M1369 1097v-685q0 -210 -113 -321t-304 -111q-237 0 -363 137l140 196q80 -84 205 -84q174 0 174 205v663h261zM412 1097v-1097h-261v1097h261z" />
    <glyph glyph-name="lslash.sc" horiz-adv-x="1112" 
d="M1082 241v-241h-839v327l-153 -82v255l153 82v515h261v-376l314 169v-254l-314 -169v-226h578z" />
    <glyph glyph-name="oe.sc" horiz-adv-x="1851" 
d="M365 548q0 -138 81 -220t237 -83h182v606h-182q-156 0 -237 -83q-81 -82 -81 -220zM678 0q-266 0 -428 150t-162 398t162 398t428 151h1049v-230h-601v-200h568v-229h-568v-210h606l-1 -228h-1053z" />
    <glyph glyph-name="scaron.sc" horiz-adv-x="1146" 
d="M208 1550h259l125 -157l126 157h259l-223 -323h-323zM598 883q-87 0 -139 -28q-53 -28 -53 -78t61 -70q61 -21 168 -38l58 -10q170 -28 267 -106t97 -207q1 -92 -39 -164t-108 -115q-138 -87 -303 -87q-331 0 -517 143l127 205q166 -117 369 -117q84 0 138 28
q54 29 54 77t-54 72t-176 39l-59 8q-169 24 -264 104t-95 230q0 151 129 249t347 98t432 -119l-115 -207q-156 93 -325 93z" />
    <glyph glyph-name="zcaron.sc" horiz-adv-x="1092" 
d="M160 1551h259l125 -157l126 157h259l-223 -323h-323zM1002 1097v-205l-567 -658h567v-234h-912v203l566 659h-566v235h912z" />
    <glyph glyph-name="longs.sc" horiz-adv-x="1146" 
d="M598 883q-87 0 -139 -28q-53 -28 -53 -78t61 -70q61 -21 168 -38l58 -10q170 -28 267 -106t97 -207q1 -92 -39 -164t-108 -115q-138 -87 -303 -87q-331 0 -517 143l127 205q166 -117 369 -117q84 0 138 28q54 29 54 77t-54 72t-176 39l-59 8q-169 24 -264 104t-95 230
q0 151 129 249t347 98t432 -119l-115 -207q-156 93 -325 93z" />
    <glyph glyph-name="florin.sc" 
d="M933 665v-194h-207l-19 -192q-30 -301 -291 -299q-135 0 -242 70l100 175q58 -25 106 -25t66 24t24 76l16 171h-178v194h198l16 158q31 292 291 292q139 0 242 -68l-102 -177q-56 26 -104 26t-66 -23t-23 -76l-14 -132h187z" />
    <glyph glyph-name="uni02BB.sc" horiz-adv-x="455" 
d="M334 547h-269l129 549h201z" />
    <glyph glyph-name="afii57929.sc" horiz-adv-x="455" 
d="M122 1097h269l-129 -549h-202z" />
    <glyph glyph-name="gravecomb.sc" horiz-adv-x="1" 
d="M-753 1238l-270 324h320l205 -324h-255z" />
    <glyph glyph-name="acutecomb.sc" horiz-adv-x="1" 
d="M-595 1238h-255l206 324h319z" />
    <glyph glyph-name="uni0302.sc" horiz-adv-x="1" 
d="M-287 1228h-259l-126 157l-125 -157h-259l223 323h323z" />
    <glyph glyph-name="tildecomb.sc" horiz-adv-x="1" 
d="M-807 1539q97 0 165 -36q67 -36 110 -36q43 -1 118 68l143 -153q-105 -134 -270 -134q-89 0 -203 54q-38 18 -63 18q-53 0 -127 -69l-141 153q104 135 268 135z" />
    <glyph glyph-name="uni0304.sc" horiz-adv-x="1" 
d="M-1011 1282v215h677v-215h-677z" />
    <glyph glyph-name="uni0306.sc" horiz-adv-x="1" 
d="M-673 1427q136 0 190 168l203 -59q-42 -156 -144 -239t-248 -83t-248 82q-102 84 -144 240l204 59q51 -168 187 -168z" />
    <glyph glyph-name="uni0307.sc" horiz-adv-x="1" 
d="M-672 1566q72 0 121 -50t49 -122t-49 -120q-49 -49 -122 -49t-121 49q-48 50 -49 122q0 72 49 121q50 49 122 49z" />
    <glyph glyph-name="uni0308.sc" horiz-adv-x="1" 
d="M-454 1229q-74 0 -122 49q-48 50 -48 122t49 121t121 49t123 -50q49 -50 49 -122t-50 -120q-50 -49 -122 -49zM-894 1570q72 0 122 -50t49 -122q0 -72 -50 -120q-50 -49 -122 -49t-121 49q-49 50 -49 122t49 121q50 49 122 49z" />
    <glyph glyph-name="uni030A.sc" horiz-adv-x="1" 
d="M-780 1469q0 -47 32 -79t76 -32t77 32q32 32 32 78t-32 80q-33 32 -77 32t-76 -32t-32 -79zM-403 1469q0 -110 -79 -187q-78 -77 -190 -77q-112 -1 -190 77t-78 187t79 187t189 78t190 -78q79 -78 79 -187z" />
    <glyph glyph-name="uni030B.sc" horiz-adv-x="1" 
d="M-742 1238h-258l197 324h284zM-356 1238h-260l222 324h291z" />
    <glyph glyph-name="uni030C.sc" horiz-adv-x="1" 
d="M-1056 1551h259l125 -157l126 157h259l-223 -323h-323z" />
    <glyph glyph-name="dotbelowcomb.sc" horiz-adv-x="1" 
d="M-673 -105q72 0 122 -50q49 -51 49 -123t-49 -120t-122 -49q-73 1 -121 49t-49 120q0 72 49 123q49 50 121 50z" />
    <glyph glyph-name="uni0326.sc" horiz-adv-x="1" 
d="M-798 -86h272l-95 -398h-221z" />
    <glyph glyph-name="uni0327.sc" horiz-adv-x="1" 
d="M-490 7l-106 -336h-258l114 336h250z" />
    <glyph glyph-name="uni0328.sc" horiz-adv-x="1" 
d="M-691 -162q0 -55 59 -55q37 0 78 36l131 -157q-99 -91 -228 -91t-201 54t-71 147q0 137 174 247q46 29 111 62l74 -78q-127 -79 -127 -165z" />
    <glyph glyph-name="uni032E.sc" horiz-adv-x="1" 
d="M-674 -245q136 0 190 168l203 -59q-42 -157 -143 -240q-100 -83 -248 -83t-250 83q-101 83 -143 240l204 59q51 -168 187 -168z" />
    <glyph glyph-name="uni0331.sc" horiz-adv-x="1" 
d="M-1011 -375v214h677v-214h-677z" />
    <glyph glyph-name="uni0335.sc" horiz-adv-x="1" 
d="M-329 651v-223h-686v223h686z" />
    <glyph glyph-name="uni0336.sc" horiz-adv-x="1" 
d="M-46 505v-195h-1250v195h1250z" />
    <glyph glyph-name="uni1E9E.sc" horiz-adv-x="1232" 
d="M869 322q0 107 -212 107h-71v189l188 224q-57 38 -159 38t-158 -50t-56 -136v-694h-266v698q0 132 71 241t228 153q84 24 189 24q306 0 480 -210l-241 -284q132 -30 208 -110t75 -193q0 -155 -123 -247t-325 -92q-121 0 -197 17l38 230q58 -12 122 -12q209 0 209 107z
" />
    <glyph glyph-name="quoteleft.sc" horiz-adv-x="455" 
d="M334 547h-269l129 549h201z" />
    <glyph glyph-name="quoteright.sc" horiz-adv-x="455" 
d="M122 1097h269l-129 -549h-202z" />
    <glyph glyph-name="quotesinglbase.sc" horiz-adv-x="455" 
d="M122 357h269l-129 -548h-202z" />
    <glyph glyph-name="quotedblleft.sc" horiz-adv-x="824" 
d="M334 547h-269l129 549h201zM702 547h-269l129 549h202z" />
    <glyph glyph-name="quotedblright.sc" horiz-adv-x="824" 
d="M122 1097h269l-129 -549h-202zM490 1097h270l-129 -549h-202z" />
    <glyph glyph-name="quotedblbase.sc" horiz-adv-x="824" 
d="M122 357h269l-129 -548h-202zM490 357h270l-129 -548h-202z" />
    <glyph glyph-name="dagger.sc" horiz-adv-x="655" 
d="M420 444h-184v312h-160v180h160v161h184v-161h160v-180h-160v-312z" />
    <glyph glyph-name="daggerdbl.sc" horiz-adv-x="655" 
d="M417 444h-178v119h-163v155h163v105h-163v156h163v118h178v-118h163v-156h-163v-105h163v-155h-163v-119z" />
    <glyph glyph-name="perthousand.sc" horiz-adv-x="2345" 
d="M1956 402q-54 0 -88 -34q-35 -34 -35 -86t35 -86q34 -34 88 -34t89 34t35 86t-35 86t-89 34zM1637 282q-1 130 91 216t228 86t228 -86q91 -86 91 -216t-91 -216t-228 -86t-228 86t-91 216zM1258 402q-54 0 -88 -34t-34 -86t34 -86t88 -34t89 34t34 86q0 52 -34 86
q-35 34 -89 34zM1258 584q136 0 228 -86t92 -216t-92 -216t-228 -86t-228 86q-91 86 -91 215t91 216q92 87 228 87zM1339 1097l-797 -1097h-239l798 1097h238zM389 936q-53 0 -88 -34t-35 -86t35 -85q35 -35 88 -35t88 34t35 86t-35 86t-88 34zM389 1118q137 0 228 -86
t91 -216t-90 -216q-92 -86 -229 -86t-228 86t-90 216q0 130 90 216q91 86 228 86z" />
    <glyph glyph-name="minute.sc" horiz-adv-x="476" 
d="M181 1097h231l-121 -551h-231z" />
    <glyph glyph-name="second.sc" horiz-adv-x="807" 
d="M181 1097h231l-121 -551h-231zM513 1097h230l-120 -551h-231z" />
    <glyph glyph-name="uni2034.sc" horiz-adv-x="1105" 
d="M181 1097h231l-121 -551h-231zM811 1097h230l-120 -551h-231zM497 1097h230l-121 -551h-230z" />
    <glyph glyph-name="uni2071.sc" horiz-adv-x="409" 
d="M307 1097v-833h-205v833h205z" />
    <glyph glyph-name="uni207F.sc" horiz-adv-x="976" 
d="M876 1097v-833h-198l-371 498v-498h-205v833h198l370 -499v499h206z" />
    <glyph glyph-name="Euro.sc" 
d="M901 504v-155h-378q39 -69 104 -106t143 -37q131 0 229 89l128 -189q-146 -126 -348 -126q-201 0 -339 98t-189 271h-136v155h110q-1 14 -1 44t1 45h-110v153h136q51 174 189 272t340 97q202 0 349 -125l-132 -189q-95 90 -228 90q-167 0 -247 -145h379v-153h-425
q-1 -15 -1 -37t2 -52h424z" />
    <glyph glyph-name="uni20BA.sc" 
d="M664 238q162 0 260 158l198 -123q-160 -273 -474 -273h-353v286l-126 -55v163l126 55v87l-126 -55v163l126 54v401h254v-291l313 136v-163l-313 -136v-87l313 136v-164l-313 -135v-157h115z" />
    <glyph glyph-name="afii61352.sc" horiz-adv-x="2194" 
d="M1193 1097v-1097h-248l-533 670v-670h-261v1097h248l534 -670v670h260zM1740 927q-76 0 -126 -52t-50 -132t50 -131t126 -51t125 51q50 51 50 131t-50 132q-49 52 -125 52zM1358 744q0 160 109 266t273 106t274 -106q108 -106 108 -266t-109 -266t-273 -106t-273 106
t-109 266zM2101 275v-222h-724v222h724z" />
    <glyph glyph-name="uni2117.sc" horiz-adv-x="1506" 
d="M803 588q85 0 85 62t-85 61h-104v-123h104zM803 863q130 0 199 -58q69 -59 69 -155t-69 -153t-196 -58h-107v-195h-180v619h284zM1194 556q0 180 -129 308t-311 127q-182 0 -313 -127q-130 -128 -130 -308t130 -308q131 -128 313 -128t311 128t129 308zM754 1187
q176 -1 324 -85q150 -84 236 -230t86 -316t-87 -316t-235 -230t-324 -84t-326 84q-149 84 -236 230t-87 316t87 316q86 145 236 230t326 85z" />
    <glyph glyph-name="uni2E38.sc" horiz-adv-x="655" 
d="M236 1097h184v-312h160v-180h-160v-161h-184v161h-160v180h160v312z" />
    <glyph glyph-name="uniFB00.sc" horiz-adv-x="2189" 
d="M2060 654v-233h-554v-421h-261v1097h854v-235h-593v-208h554zM966 654v-233h-554v-421h-261v1097h854v-235h-593v-208h554z" />
    <glyph glyph-name="fi.sc" horiz-adv-x="1656" 
d="M1506 1097v-1097h-261v1097h261zM966 654v-233h-554v-421h-261v1097h854v-235h-593v-208h554z" />
    <glyph glyph-name="fl.sc" horiz-adv-x="2114" 
d="M2085 241v-241h-840v1097h261v-856h579zM966 654v-233h-554v-421h-261v1097h854v-235h-593v-208h554z" />
    <glyph glyph-name="uniFB03.sc" horiz-adv-x="2751" 
d="M2601 1097v-1097h-261v1097h261zM2060 654v-233h-554v-421h-261v1097h854v-235h-593v-208h554zM966 654v-233h-554v-421h-261v1097h854v-235h-593v-208h554z" />
    <glyph glyph-name="uniFB04.sc" horiz-adv-x="3209" 
d="M3180 241v-241h-840v1097h261v-856h579zM2060 654v-233h-554v-421h-261v1097h854v-235h-593v-208h554zM966 654v-233h-554v-421h-261v1097h854v-235h-593v-208h554z" />
    <glyph glyph-name="uniFB05.sc" horiz-adv-x="2145" 
d="M598 883q-87 0 -139 -28q-53 -28 -53 -78t61 -70q61 -21 168 -38l58 -10q170 -28 267 -106t97 -207q1 -92 -39 -164t-108 -115q-138 -87 -303 -87q-331 0 -517 143l127 205q166 -117 369 -117q84 0 138 28q54 29 54 77t-54 72t-176 39l-59 8q-169 24 -264 104t-95 230
q0 151 129 249t347 98t432 -119l-115 -207q-156 93 -325 93zM2116 1097v-242h-341v-855h-261v855h-340v242h942z" />
    <glyph glyph-name="uniFB06.sc" horiz-adv-x="2145" 
d="M2116 1097v-242h-341v-855h-261v855h-340v242h942zM598 883q-87 0 -139 -28q-53 -28 -53 -78t61 -70q61 -21 168 -38l58 -10q170 -28 267 -106t97 -207q1 -92 -39 -164t-108 -115q-138 -87 -303 -87q-331 0 -517 143l127 205q166 -117 369 -117q84 0 138 28q54 29 54 77
t-54 72t-176 39l-59 8q-169 24 -264 104t-95 230q0 151 129 249t347 98t432 -119l-115 -207q-156 93 -325 93z" />
    <glyph glyph-name="j.latn_NLD.sc" horiz-adv-x="949" 
d="M754 1238h-255l206 324h319zM807 1097v-685q0 -210 -113 -321t-304 -111q-237 0 -363 137l140 196q80 -84 205 -84q174 0 174 205v663h261z" />
    <glyph glyph-name="b.ordn.sc" horiz-adv-x="874" 
d="M460 926h-153v-158h152q113 0 112 79q1 79 -111 79zM474 597h-167v-162h167q116 0 116 81t-116 81zM102 1097h362q160 0 240 -61t80 -176q0 -60 -31 -106t-83 -69q57 -20 94 -70t37 -111q1 -116 -79 -178t-237 -62h-383v833z" />
    <glyph glyph-name="d.ordn.sc" horiz-adv-x="966" 
d="M457 907h-150v-454h150q109 0 165 62t57 165q0 103 -56 165t-166 62zM102 1097h359q196 0 314 -114q118 -115 118 -303t-118 -302t-314 -114h-359v833z" />
    <glyph glyph-name="e.ordn.sc" horiz-adv-x="830" 
d="M742 449v-185h-640v833h638v-185h-433v-136h407v-183h-407v-144h435z" />
    <glyph glyph-name="h.ordn.sc" horiz-adv-x="954" 
d="M307 1097v-318h340v318h205v-833h-205v326h-340v-326h-205v833h205z" />
    <glyph glyph-name="l.ordn.sc" horiz-adv-x="766" 
d="M722 454v-190h-620v833h205v-643h415z" />
    <glyph glyph-name="m.ordn.sc" horiz-adv-x="1149" 
d="M1048 1097v-833h-205v558l-159 -479h-218l-159 478v-557h-205v833h289l183 -523l185 523h289z" />
    <glyph glyph-name="r.ordn.sc" horiz-adv-x="860" 
d="M464 911h-157v-168h157q112 0 111 85q0 83 -111 83zM102 1097h364q154 0 236 -72t81 -184q0 -111 -60 -177t-169 -85l237 -315h-244l-215 308h-25v-308h-205v833z" />
    <glyph glyph-name="s.ordn.sc" horiz-adv-x="861" 
d="M447 927q-58 0 -95 -19t-37 -54q0 -41 82 -59q24 -6 90 -16l34 -5q266 -41 266 -236q0 -149 -105 -219t-251 -70q-222 0 -357 97l97 168q127 -80 263 -80q59 0 96 19q36 19 36 55t-35 48q-35 13 -129 28l-41 6q-135 20 -201 78t-65 176q0 116 95 192t260 75
q165 0 315 -80l-86 -169q-117 65 -232 65z" />
    <glyph glyph-name="t.ordn.sc" horiz-adv-x="783" 
d="M738 1097v-191h-243v-642h-206v642h-244v191h693z" />
    <glyph glyph-name="egrave.ordn.sc" horiz-adv-x="830" 
d="M361 1160l-165 200h218l127 -200h-180zM742 449v-185h-640v833h638v-185h-433v-136h407v-183h-407v-144h435z" />
    <glyph glyph-name="parenleft.case" horiz-adv-x="864" 
d="M113 717q0 312 164 554q165 242 437 348l85 -239q-196 -92 -300 -268q-105 -176 -105 -395t104 -395t301 -269l-85 -238q-272 106 -437 348q-164 242 -164 554z" />
    <glyph glyph-name="parenright.case" horiz-adv-x="864" 
d="M470 718q0 219 -104 395t-300 268l85 239q272 -106 436 -348q165 -242 165 -554t-164 -554t-437 -348l-85 238q196 92 300 268t104 396z" />
    <glyph glyph-name="hyphen.case" horiz-adv-x="832" 
d="M719 834v-234h-605v234h605z" />
    <glyph glyph-name="slash.case" horiz-adv-x="1134" 
d="M1069 1434l-699 -1434h-304l699 1434h304z" />
    <glyph glyph-name="at.case" horiz-adv-x="1990" 
d="M1165 718q0 88 -52 146q-51 58 -135 57q-84 0 -135 -58t-51 -145t51 -145t135 -58t135 57q52 58 52 146zM1376 1105v-441q0 -88 22 -128t82 -40t100 65t40 218t-80 288t-223 211t-325 76t-324 -79q-144 -80 -224 -225t-80 -332q0 -188 80 -334q78 -146 220 -226t343 -80
t367 117l122 -165q-216 -158 -511 -158q-184 0 -343 64t-271 176t-175 269q-64 157 -64 337t64 335q128 312 450 443q160 64 346 64t346 -62q318 -123 448 -422q63 -148 63 -334t-105 -317q-104 -131 -290 -131t-260 137q-90 -122 -254 -122t-269 116q-105 115 -105 291
t104 293q106 117 256 117t235 -102v81h215z" />
    <glyph glyph-name="bracketleft.case" horiz-adv-x="784" 
d="M719 106v-241h-556v1703h556v-242h-285v-1220h285z" />
    <glyph glyph-name="backslash.case" horiz-adv-x="912" 
d="M649 0l-699 1434h304l699 -1434h-304z" />
    <glyph glyph-name="bracketright.case" horiz-adv-x="784" 
d="M66 1326v242h556v-1703h-556v241h284v1220h-284z" />
    <glyph glyph-name="braceleft.case" horiz-adv-x="902" 
d="M837 1330h-67q-89 0 -140 -49t-46 -138l4 -96q11 -251 -215 -330q226 -79 215 -330l-4 -96q-4 -89 46 -138t140 -50h67v-237h-88q-219 0 -332 118t-104 324l4 101q3 91 -55 141t-165 49v235q106 0 166 50q59 50 54 141l-4 100q-9 206 104 324t332 119h88v-238z" />
    <glyph glyph-name="braceright.case" horiz-adv-x="902" 
d="M66 103h66q89 -1 140 49t46 139l-4 96q-11 251 215 330q-226 79 -215 330l4 96q4 89 -46 138q-51 49 -140 49h-66v238h88q220 0 332 -118t103 -325l-4 -100q-3 -91 55 -141t165 -49v-235q-105 0 -165 -50t-55 -141l4 -101q9 -206 -104 -324t-331 -118h-88v237z" />
    <glyph glyph-name="exclamdown.case" horiz-adv-x="568" 
d="M284 1070q-78 0 -136 58t-58 136t58 137q58 58 136 58t137 -59q58 -58 58 -136t-58 -136q-59 -58 -137 -58zM125 0l37 941h246l36 -941h-319z" />
    <glyph glyph-name="guillemotleft.case" horiz-adv-x="1113" 
d="M359 717l198 -400h-269l-198 400l198 399h269zM819 717l198 -400h-269l-198 400l198 399h269z" />
    <glyph glyph-name="uni00AD.case" horiz-adv-x="832" 
d="M719 834v-234h-605v234h605z" />
    <glyph glyph-name="periodcentered.case" horiz-adv-x="686" 
d="M344 915q80 -1 138 -59q60 -58 60 -138t-60 -140t-138 -60q-80 0 -140 60t-60 140t60 138t140 59z" />
    <glyph glyph-name="guillemotright.case" horiz-adv-x="1113" 
d="M754 717l-198 399h269l198 -399l-198 -400h-269zM294 717l-198 399h270l197 -399l-197 -400h-270z" />
    <glyph glyph-name="questiondown.case" horiz-adv-x="912" 
d="M808 1263q0 -78 -58 -136t-138 -58q-78 0 -136 58q-58 59 -57 137q0 78 58 136q57 58 135 59q78 0 137 -59t59 -137zM638 596q-304 0 -304 -182q0 -83 77 -127t224 -43q70 0 156 8l19 -269q-93 -13 -207 -14q-266 0 -415 114q-149 115 -149 301t114 297t328 145l8 118
h247v-348h-98z" />
    <glyph glyph-name="gravecomb.case" horiz-adv-x="1" 
d="M-840 1554l-270 323h319l206 -323h-255z" />
    <glyph glyph-name="acutecomb.case" horiz-adv-x="1" 
d="M-855 1554h-255l206 323h319z" />
    <glyph glyph-name="uni0302.case" horiz-adv-x="1" 
d="M-463 1544h-259l-126 157l-125 -157h-259l223 323h323z" />
    <glyph glyph-name="tildecomb.case" horiz-adv-x="1" 
d="M-981 1854q96 0 205 -53q37 -18 61 -18q53 0 127 68l143 -152q-105 -135 -270 -135q-82 0 -162 36t-104 35q-53 1 -127 -67l-141 152q103 134 268 134z" />
    <glyph glyph-name="uni0304.case" horiz-adv-x="1" 
d="M-1186 1598v214h677v-214h-677z" />
    <glyph glyph-name="uni0306.case" horiz-adv-x="1" 
d="M-849 1744q136 0 190 168l203 -60q-42 -158 -143 -240t-249 -82t-248 82q-102 82 -144 240l204 60q51 -168 187 -168z" />
    <glyph glyph-name="uni0307.case" horiz-adv-x="1" 
d="M-848 1893q76 -1 128 -53t52 -128t-52 -127t-128 -51t-127 51t-51 127t51 129q51 52 127 52z" />
    <glyph glyph-name="uni0308.case" horiz-adv-x="1" 
d="M-628 1536q-74 0 -122 49t-48 121t49 122t121 50t123 -50q49 -50 49 -122t-50 -121t-122 -49zM-1069 1878q72 0 122 -50t50 -122t-50 -121t-122 -49t-121 49t-49 121t49 122t121 50z" />
    <glyph glyph-name="uni030A.case" horiz-adv-x="1" 
d="M-848 1674q44 0 76 32t32 79t-32 79t-76 32t-76 -32t-32 -78t31 -80q33 -32 77 -32zM-848 1522q-112 0 -190 77t-78 187t79 186q79 77 189 77t190 -77q78 -76 78 -186t-78 -187t-190 -77z" />
    <glyph glyph-name="uni030B.case" horiz-adv-x="1" 
d="M-1038 1554h-258l197 323h284zM-652 1554h-260l222 323h291z" />
    <glyph glyph-name="uni030C.case" horiz-adv-x="1" 
d="M-1232 1867h259l125 -157l126 157h259l-223 -323h-323z" />
    <glyph glyph-name="dotbelowcomb.case" horiz-adv-x="1" 
d="M-847 -105q71 0 121 -50q50 -51 50 -123t-49 -120t-122 -49q-73 1 -121 49t-49 120q0 72 49 123q49 50 121 50z" />
    <glyph glyph-name="uni0326.case" horiz-adv-x="1" 
d="M-961 -86h272l-94 -398h-222z" />
    <glyph glyph-name="uni0327.case" horiz-adv-x="1" 
d="M-657 7l-106 -336h-273l114 336h265z" />
    <glyph glyph-name="uni032E.case" horiz-adv-x="1" 
d="M-848 -245q136 0 190 168l203 -59q-42 -157 -143 -240q-100 -83 -248 -83t-250 83q-101 83 -143 240l204 59q51 -168 187 -168z" />
    <glyph glyph-name="uni0331.case" horiz-adv-x="1" 
d="M-1186 -376v215h678v-215h-678z" />
    <glyph glyph-name="uni0335.case" horiz-adv-x="1" 
d="M-438 851v-256h-816v256h816z" />
    <glyph glyph-name="uni2010.case" horiz-adv-x="832" 
d="M719 834v-234h-605v234h605z" />
    <glyph glyph-name="uni2011.case" horiz-adv-x="832" 
d="M719 834v-234h-605v234h605z" />
    <glyph glyph-name="figuredash.case" 
d="M1110 831v-228h-991v228h991z" />
    <glyph glyph-name="endash.case" horiz-adv-x="1185" 
d="M1089 831v-228h-992v228h992z" />
    <glyph glyph-name="emdash.case" horiz-adv-x="1634" 
d="M1585 831v-228h-1536v228h1536z" />
    <glyph glyph-name="bullet.case" horiz-adv-x="904" 
d="M128 717q0 135 95 229t229 95q134 -1 230 -95q95 -94 95 -229t-95 -230q-96 -95 -230 -95t-229 95t-95 230z" />
    <glyph glyph-name="guilsinglleft.case" horiz-adv-x="653" 
d="M359 717l198 -400h-269l-198 400l198 399h269z" />
    <glyph glyph-name="guilsinglright.case" horiz-adv-x="653" 
d="M294 718l-198 399h270l197 -399l-197 -400h-270z" />
    <glyph glyph-name="uni2E17.case" horiz-adv-x="898" 
d="M751 751v-220l-604 -220v219zM751 1111v-219l-604 -220v220z" />
    <glyph glyph-name="j.latn_NLD.case" horiz-adv-x="1156" 
d="M927 1554h-255l206 323h319zM474 248q240 0 242 301v885h285v-912q0 -262 -141 -405t-373 -143q-295 0 -457 199l166 208q109 -133 278 -133z" />
    <glyph glyph-name="zero.zero" horiz-adv-x="1445" 
d="M1053 717q0 92 -18 171l-537 -538q88 -110 228 -110t234 125q93 125 93 352zM720 1194q-140 0 -234 -125t-93 -352q0 -93 18 -172l537 537q-88 112 -228 112zM722 1459q128 0 242 -51q112 -51 196 -145t133 -235t49 -311t-50 -311q-95 -276 -328 -380q-114 -52 -242 -52
q-259 -1 -436 196q-84 94 -132 236t-49 311q0 170 49 311q93 273 328 380q112 51 240 51z" />
    <glyph glyph-name="zero.osf.zero" horiz-adv-x="1376" 
d="M688 870q-136 0 -227 -88t-90 -234q0 -81 29 -146l436 436q-68 32 -148 32zM1007 548q0 88 -37 159l-443 -443q72 -39 161 -39q137 1 228 89t91 234zM688 1121q164 1 298 -69t213 -202t79 -302t-79 -303q-79 -131 -213 -201t-298 -70t-298 70t-212 202q-79 132 -79 302
t79 302q78 132 212 202t298 69z" />
    <glyph glyph-name="zero.tf.zero" 
d="M340 717q0 -74 6 -133l475 475q-75 135 -197 135t-203 -107q-81 -106 -81 -370zM889 688q0 100 -8 165l-478 -477q72 -136 215 -136q114 0 189 102q39 53 60 149q22 97 22 197zM604 1459q310 0 461 -259q109 -184 109 -483q0 -447 -230 -634q-136 -109 -327 -109
t-330 109q-233 184 -233 634q0 385 161 563q161 179 389 179z" />
    <glyph glyph-name="zero.tosf.zero" 
d="M897 547q0 73 -20 132l-416 -416q67 -45 152 -45q123 0 203 88t81 241zM613 877q-123 1 -203 -89t-80 -241q0 -73 20 -134l417 417q-69 47 -154 47zM614 1121q154 0 279 -69t201 -201t74 -304q0 -172 -74 -304q-74 -131 -200 -201t-280 -70t-280 69q-125 69 -200 201
t-75 305q0 172 75 304t200 201q126 69 280 69z" />
    <glyph glyph-name="zero.sc.zero" horiz-adv-x="1184" 
d="M828 548q0 56 -9 104l-373 -372q60 -58 155 -58t161 85t66 241zM584 874q-94 0 -160 -86t-67 -240q0 -56 10 -105l371 372q-60 59 -154 59zM1091 526q1 -152 -67 -282q-68 -132 -180 -198t-234 -66q-230 0 -373 152t-143 414q0 261 142 415t356 154t353 -150
q146 -153 146 -439z" />
    <glyph glyph-name="a.ss01" horiz-adv-x="1123" 
d="M493 189q135 0 235 115v114h-199q-88 0 -130 -33q-43 -33 -43 -81t35 -82q35 -33 102 -33zM520 1019q226 0 348 -111t123 -323v-585h-259v100q-122 -126 -294 -126t-266 88t-93 230q0 142 110 224t301 82h232q-17 185 -221 185q-138 0 -272 -93l-104 204q169 125 395 125
z" />
    <glyph glyph-name="agrave.ss01" horiz-adv-x="1123" 
d="M471 1135l-270 322h319l206 -322h-255zM493 189q135 0 235 115v114h-199q-88 0 -130 -33q-43 -33 -43 -81t35 -82q35 -33 102 -33zM520 1019q226 0 348 -111t123 -323v-585h-259v100q-122 -126 -294 -126t-266 88t-93 230q0 142 110 224t301 82h232q-17 185 -221 185
q-138 0 -272 -93l-104 204q169 125 395 125z" />
    <glyph glyph-name="aacute.ss01" horiz-adv-x="1123" 
d="M629 1135h-255l206 322h319zM493 189q135 0 235 115v114h-199q-88 0 -130 -33q-43 -33 -43 -81t35 -82q35 -33 102 -33zM520 1019q226 0 348 -111t123 -323v-585h-259v100q-122 -126 -294 -126t-266 88t-93 230q0 142 110 224t301 82h232q-17 185 -221 185
q-138 0 -272 -93l-104 204q169 125 395 125z" />
    <glyph glyph-name="acircumflex.ss01" horiz-adv-x="1123" 
d="M937 1124h-259l-126 157l-125 -157h-259l223 323h323zM493 189q135 0 235 115v114h-199q-88 0 -130 -33q-43 -33 -43 -81t35 -82q35 -33 102 -33zM520 1019q226 0 348 -111t123 -323v-585h-259v100q-122 -126 -294 -126t-266 88t-93 230q0 142 110 224t301 82h232
q-17 185 -221 185q-138 0 -272 -93l-104 204q169 125 395 125z" />
    <glyph glyph-name="atilde.ss01" horiz-adv-x="1123" 
d="M683 1363q53 0 127 69l142 -153q-105 -135 -269 -135q-90 0 -204 54q-38 18 -62 17q-53 1 -127 -67l-142 152q103 134 269 135q94 0 205 -54q37 -18 61 -18zM493 189q135 0 235 115v114h-199q-88 0 -130 -33q-43 -33 -43 -81t35 -82q35 -33 102 -33zM520 1019
q226 0 348 -111t123 -323v-585h-259v100q-122 -126 -294 -126t-266 88t-93 230q0 142 110 224t301 82h232q-17 185 -221 185q-138 0 -272 -93l-104 204q169 125 395 125z" />
    <glyph glyph-name="adieresis.ss01" horiz-adv-x="1123" 
d="M770 1458q72 0 122 -50t50 -122t-50 -121t-122 -49t-121 49t-49 121t49 122t121 50zM330 1458q72 0 122 -50t49 -122q0 -72 -50 -121q-51 -49 -123 -49t-121 49t-49 121t50 122t122 50zM493 189q135 0 235 115v114h-199q-88 0 -130 -33q-43 -33 -43 -81t35 -82
q35 -33 102 -33zM520 1019q226 0 348 -111t123 -323v-585h-259v100q-122 -126 -294 -126t-266 88t-93 230q0 142 110 224t301 82h232q-17 185 -221 185q-138 0 -272 -93l-104 204q169 125 395 125z" />
    <glyph glyph-name="aring.ss01" horiz-adv-x="1123" 
d="M552 1254q44 0 76 32t32 80q0 46 -32 78t-76 32t-76 -32t-32 -78t31 -80q33 -32 77 -32zM552 1629q112 0 190 -77q78 -76 78 -186t-78 -187t-190 -77t-190 77t-78 187t78 186q79 77 190 77zM493 189q135 0 235 115v114h-199q-88 0 -130 -33q-43 -33 -43 -81t35 -82
q35 -33 102 -33zM520 1019q226 0 348 -111t123 -323v-585h-259v100q-122 -126 -294 -126t-266 88t-93 230q0 142 110 224t301 82h232q-17 185 -221 185q-138 0 -272 -93l-104 204q169 125 395 125z" />
    <glyph glyph-name="J.ss02" horiz-adv-x="848" 
d="M167 248q240 0 242 301v885h285v-912q0 -262 -141 -405t-373 -143q-78 1 -147 15l39 270q47 -11 95 -11z" />
    <glyph glyph-name="IJ.ss02" horiz-adv-x="1460" 
d="M778 248q240 0 242 301v885h286v-912q0 -262 -142 -405t-372 -143q-79 1 -148 15l39 270q47 -11 95 -11zM449 1434v-1434h-286v1434h286z" />
    <glyph glyph-name="j.sc.ss02" horiz-adv-x="709" 
d="M302 431v666h265v-684q0 -211 -113 -322t-304 -111q-62 0 -120 11l30 246q32 -7 70 -8q172 0 172 202z" />
    <glyph glyph-name="ij.sc.ss02" horiz-adv-x="1271" 
d="M864 431v666h265v-684q0 -211 -113 -322t-304 -111q-62 0 -120 11l31 246q32 -7 69 -8q172 0 172 202zM412 1097v-1097h-261v1097h261z" />
    <glyph glyph-name="j.latn_NLD.sc.ss02" horiz-adv-x="709" 
d="M509 1238h-255l206 324h319zM302 431v666h265v-684q0 -211 -113 -322t-304 -111q-62 0 -120 11l30 246q32 -7 70 -8q172 0 172 202z" />
    <glyph glyph-name="j.latn_NLD.case.ss02" horiz-adv-x="848" 
d="M618 1554h-254l205 323h320zM167 248q240 0 242 301v885h285v-912q0 -262 -141 -405t-373 -143q-78 1 -147 15l39 270q47 -11 95 -11z" />
    <glyph glyph-name="seven.ss03" horiz-adv-x="1126" 
d="M1074 1434v-216l-192 -394h157v-245h-277l-282 -579h-325l294 587h-318v246h441l172 343h-681v258h1011z" />
    <glyph glyph-name="seven.osf.ss03" horiz-adv-x="1126" 
d="M1067 1094v-212l-195 -398h179v-240h-296l-285 -584h-320l299 592h-296v241h417l176 347h-687v254h1008z" />
    <glyph glyph-name="seven.tf.ss03" 
d="M1123 1434v-216l-192 -394h158v-245h-278l-282 -579h-325l294 587h-318v246h442l172 343h-681v258h1010z" />
    <glyph glyph-name="seven.tosf.ss03" 
d="M1133 1094v-212l-195 -398h178v-240h-296l-284 -584h-321l299 592h-296v241h418l176 347h-687v254h1008z" />
    <glyph glyph-name="seven.sc.ss03" horiz-adv-x="932" 
d="M881 1097v-199l-132 -260h118v-221h-230l-210 -417h-300l224 424h-224v221h341l115 217h-520v235h818z" />
    <glyph glyph-name="Z.ss04" horiz-adv-x="1318" 
d="M1101 842v-252h-368l-256 -327h745v-263h-1125v223l303 375h-182v252h372l252 320h-743v264h1123v-224l-296 -368h175z" />
    <glyph glyph-name="z.ss04" horiz-adv-x="1064" 
d="M896 589v-180h-282l-148 -170h501v-239h-869v193l210 224h-138v180h290l139 158h-483v237h840v-195l-189 -208h129z" />
    <glyph glyph-name="Zcaron.ss04" horiz-adv-x="1318" 
d="M276 1867h260l124 -157l126 157h260l-224 -323h-322zM1101 842v-252h-368l-256 -327h745v-263h-1125v223l303 375h-182v252h372l252 320h-743v264h1123v-224l-296 -368h175z" />
    <glyph glyph-name="zcaron.ss04" horiz-adv-x="1064" 
d="M159 1447h259l125 -157l126 157h259l-223 -323h-323zM896 589v-180h-282l-148 -170h501v-239h-869v193l210 224h-138v180h290l139 158h-483v237h840v-195l-189 -208h129z" />
    <glyph glyph-name="z.sc.ss04" horiz-adv-x="1092" 
d="M920 658v-219h-305l-180 -205h567v-234h-912v200l221 246h-137v220h310l171 196h-565v235h912v-201l-210 -238h128z" />
    <glyph glyph-name="zcaron.sc.ss04" horiz-adv-x="1092" 
d="M160 1551h259l125 -157l126 157h259l-223 -323h-323zM920 658v-219h-305l-180 -205h567v-234h-912v200l221 246h-137v220h310l171 196h-565v235h912v-201l-210 -238h128z" />
    <glyph glyph-name="Adieresis.ss05" horiz-adv-x="1507" 
d="M751 1151l-208 -554h414zM928 1434l558 -1434h-305l-125 334h-612l-125 -334h-297l558 1434h348zM1294 1118q-72 0 -120 49t-50 121q0 72 49 122q49 49 121 49t123 -49q49 -50 49 -122t-50 -121t-122 -49zM212 1459q72 1 122 -49t49 -122q0 -72 -50 -121t-122 -49
t-121 49t-49 121t49 122q50 49 122 49z" />
    <glyph glyph-name="Odieresis.ss05" horiz-adv-x="1701" 
d="M850 1186q-200 0 -327 -131q-128 -131 -128 -339t128 -338q127 -130 327 -130t327 130t128 339t-127 339t-328 130zM877 1460q190 0 363 -96q172 -96 268 -266t96 -381t-96 -381t-268 -266t-363 -96q-190 0 -330 56t-239 154t-155 236t-56 297t56 296q112 277 394 391
q140 56 330 56zM1530 1459q62 0 112 -49q48 -50 48 -116t-35 -111q-36 -45 -95 -59q-69 137 -196 230q18 48 61 76t105 29zM172 1459q123 0 166 -105q-58 -44 -112 -106t-84 -124q-59 12 -95 58t-36 112t49 116q50 49 112 49z" />
    <glyph glyph-name="Udieresis.ss05" horiz-adv-x="1527" 
d="M1381 1434v-862q-1 -194 -79 -330q-156 -268 -538 -268q-383 0 -539 269q-79 136 -79 329v862h287v-847q0 -171 88 -255t243 -84t243 84t88 255v847h286zM764 1029q70 0 118 -47t47 -117q0 -71 -48 -117q-47 -46 -117 -46t-116 46q-46 48 -47 118q0 70 47 116
q46 47 116 47zM764 1459q70 0 118 -47t47 -117q0 -71 -48 -117q-47 -46 -117 -46t-116 47t-47 117q0 70 47 116q46 47 116 47z" />
    <glyph glyph-name="hyphen.ss06" horiz-adv-x="898" 
d="M751 608v-219l-604 -220v219zM751 969v-219l-604 -221v221z" />
    <glyph glyph-name="hyphen.case.ss06" horiz-adv-x="927" 
d="M751 751v-220l-604 -220v219zM751 1111v-219l-604 -220v220z" />
    <glyph glyph-name="f_t" horiz-adv-x="1580" 
d="M495 1048v-56h364v56q0 106 -50 158q-51 52 -133 52t-132 -52q-49 -52 -49 -158zM1486 992v-237h-360v-363q0 -166 155 -168q74 0 180 64l98 -209q-151 -105 -331 -105t-274 102t-95 295v384h-364v-755h-267v755h-186v237h186v67q0 227 131 334t317 107t318 -108
t132 -334v-66h360z" />
    <glyph glyph-name="longs_t" horiz-adv-x="1485" 
d="M1392 992v-237h-361v-363q0 -166 156 -168q74 0 180 64l97 -209q-152 -105 -331 -105t-273 102t-95 295v384h-166v237h166v56q0 106 -50 158q-51 52 -133 52t-132 -52t-50 -158v-1048h-267v1059q0 229 136 337q126 104 314 104t318 -108t130 -334v-66h361z" />
    </font>
</defs>
</svg>
