<svg xmlns="http://www.w3.org/2000/svg" xmlns:xlink="http://www.w3.org/1999/xlink" version="1.1" id="Layer_1" x="0" y="0" viewBox="0 0 200 200" xml:space="preserve" enable-background="new 0 0 200 200"><style type="text/css"> .st0{fill:none;stroke:#9CD3AA;stroke-width:2;stroke-miterlimit:10;} .st1{fill:none;stroke:#9CD3AA;stroke-miterlimit:10;} .st2{fill:none;stroke:#9CD3AA;stroke-width:2;stroke-linecap:round;stroke-miterlimit:10;} .st3{fill:#9BD3AA;} .st4{fill:none;stroke:#FFFFFF;stroke-miterlimit:10;}</style><path class="st0" d="M51.6 181.7V19.2c0-6.9 5.7-12.6 12.6-12.6H135c6.9 0 12.6 5.7 12.6 12.6v162.4c0 6.9-5.7 12.6-12.6 12.6H64.2C57.3 194.3 51.6 188.6 51.6 181.7z"/><line class="st1" x1="51.7" y1="166.1" x2="147.4" y2="166.1"/><circle class="st1" cx="99.6" cy="179.8" r="8.2"/><line class="st1" x1="51.6" y1="31.9" x2="147.6" y2="31.9"/><line class="st2" x1="112.7" y1="20.1" x2="86.5" y2="20.1"/><circle class="st3" cx="99.6" cy="100.4" r="28.7"/><line class="st4" x1="93.7" y1="94.5" x2="105.5" y2="84.2"/><line class="st4" x1="93.7" y1="105.6" x2="105.5" y2="95.2"/><line class="st4" x1="93.7" y1="117.5" x2="105.5" y2="107.2"/></svg>