<svg xmlns="http://www.w3.org/2000/svg" xmlns:xlink="http://www.w3.org/1999/xlink" version="1.1" id="Layer_1" x="0px" y="0px" viewBox="0 0 200 200" xml:space="preserve" class="style0"><style>.style0{enable-background:	new 0 0 200 200;}</style><style type="text/css">.st0{fill:none;stroke:#9CD3AA;stroke-width:2;stroke-miterlimit:10;}.st1{fill:none;stroke:#9CD3AA;stroke-linecap:round;stroke-miterlimit:10;}.st2{fill:none;stroke:#9CD3AA;stroke-miterlimit:10;}.st3{fill:none;stroke:#9BD3AA;stroke-width:1.5;stroke-miterlimit:10;}.st4{fill:none;stroke:#9BD3AA;stroke-miterlimit:10;}</style><path class="st0" d="M152.5 193.7H44.7c-1.6 0-3-1.3-3-3v-47.1c0-1.6 1.4-3 3-3h107.8c1.6 0 3 1.4 3 3v47.1 C155.5 192.3 154.2 193.7 152.5 193.7z"/><path class="st0" d="M100.1 132.9V11.5c0-1.6 1.3-3 3-3h49.1c1.6 0 3 1.4 3 3v121.4c0 1.7-1.4 3-3 3h-49.1 C101.4 135.9 100.1 134.5 100.1 132.9z"/><path class="st0" d="M41.7 132.9V11.5c0-1.6 1.4-3 3-3h48.3c1.7 0 3 1.4 3 3v121.4c0 1.7-1.3 3-3 3H44.7 C43 135.9 41.7 134.5 41.7 132.9z"/><line class="st1" x1="110.4" y1="149.1" x2="85.6" y2="149.1"/><path class="st1" d="M80.6 92.5H59.1c-1.6 0-3-1.3-3-3V53c0-1.6 1.4-3 3-3h21.5c1.7 0 3 1.4 3 3v36.5C83.6 91.1 82.2 92.5 80.6 92.5 z"/><rect x="60.8" y="71.1" class="st0" width="6.8" height="8.3"/><polyline class="st2" points="75.6,71.1 75.6,60.8 83.6,60.8 56.1,60.8 64.2,60.8 64.2,71.1"/><rect x="72.2" y="71.1" class="st0" width="6.8" height="8.3"/><path class="st2" d="M142.7 107.7h-30c-2.8 0-5-2.2-5-5v-55c0-2.8 2.2-5 5-5h30c2.8 0 5 2.2 5 5v55 C147.7 105.5 145.4 107.7 142.7 107.7z"/><circle class="st3" cx="127.7" cy="75.8" r="13"/><line class="st4" x1="125" y1="73.1" x2="130.4" y2="68.4"/><line class="st4" x1="125" y1="78.2" x2="130.4" y2="73.5"/><line class="st4" x1="125" y1="83.6" x2="130.4" y2="78.9"/></svg>